<?xml version="1.0" encoding="utf-8" standalone="no"?>
<!DOCTYPE svg PUBLIC "-//W3C//DTD SVG 1.1//EN"
  "http://www.w3.org/Graphics/SVG/1.1/DTD/svg11.dtd">
<!-- Created with matplotlib (https://matplotlib.org/) -->
<svg height="345.6pt" version="1.1" viewBox="0 0 460.8 345.6" width="460.8pt" xmlns="http://www.w3.org/2000/svg" xmlns:xlink="http://www.w3.org/1999/xlink">
 <defs>
  <style type="text/css">
*{stroke-linecap:butt;stroke-linejoin:round;}
  </style>
 </defs>
 <g id="figure_1">
  <g id="patch_1">
   <path d="M 0 345.6 
L 460.8 345.6 
L 460.8 0 
L 0 0 
z
" style="fill:#ffffff;"/>
  </g>
  <g id="axes_1">
   <g id="patch_2">
    <path d="M 57.6 307.584 
L 414.72 307.584 
L 414.72 41.472 
L 57.6 41.472 
z
" style="fill:#ffffff;"/>
   </g>
   <g id="matplotlib.axis_1">
    <g id="xtick_1">
     <g id="line2d_1">
      <defs>
       <path d="M 0 0 
L 0 3.5 
" id="m02c4408b31" style="stroke:#000000;stroke-width:0.8;"/>
      </defs>
      <g>
       <use style="stroke:#000000;stroke-width:0.8;" x="72.746926" xlink:href="#m02c4408b31" y="307.584"/>
      </g>
     </g>
     <g id="text_1">
      <!-- 0 -->
      <defs>
       <path d="M 31.78125 66.40625 
Q 24.171875 66.40625 20.328125 58.90625 
Q 16.5 51.421875 16.5 36.375 
Q 16.5 21.390625 20.328125 13.890625 
Q 24.171875 6.390625 31.78125 6.390625 
Q 39.453125 6.390625 43.28125 13.890625 
Q 47.125 21.390625 47.125 36.375 
Q 47.125 51.421875 43.28125 58.90625 
Q 39.453125 66.40625 31.78125 66.40625 
z
M 31.78125 74.21875 
Q 44.046875 74.21875 50.515625 64.515625 
Q 56.984375 54.828125 56.984375 36.375 
Q 56.984375 17.96875 50.515625 8.265625 
Q 44.046875 -1.421875 31.78125 -1.421875 
Q 19.53125 -1.421875 13.0625 8.265625 
Q 6.59375 17.96875 6.59375 36.375 
Q 6.59375 54.828125 13.0625 64.515625 
Q 19.53125 74.21875 31.78125 74.21875 
z
" id="DejaVuSans-48"/>
      </defs>
      <g transform="translate(69.565676 322.182437)scale(0.1 -0.1)">
       <use xlink:href="#DejaVuSans-48"/>
      </g>
     </g>
    </g>
    <g id="xtick_2">
     <g id="line2d_2">
      <g>
       <use style="stroke:#000000;stroke-width:0.8;" x="127.036984" xlink:href="#m02c4408b31" y="307.584"/>
      </g>
     </g>
     <g id="text_2">
      <!-- 5 -->
      <defs>
       <path d="M 10.796875 72.90625 
L 49.515625 72.90625 
L 49.515625 64.59375 
L 19.828125 64.59375 
L 19.828125 46.734375 
Q 21.96875 47.46875 24.109375 47.828125 
Q 26.265625 48.1875 28.421875 48.1875 
Q 40.625 48.1875 47.75 41.5 
Q 54.890625 34.8125 54.890625 23.390625 
Q 54.890625 11.625 47.5625 5.09375 
Q 40.234375 -1.421875 26.90625 -1.421875 
Q 22.3125 -1.421875 17.546875 -0.640625 
Q 12.796875 0.140625 7.71875 1.703125 
L 7.71875 11.625 
Q 12.109375 9.234375 16.796875 8.0625 
Q 21.484375 6.890625 26.703125 6.890625 
Q 35.15625 6.890625 40.078125 11.328125 
Q 45.015625 15.765625 45.015625 23.390625 
Q 45.015625 31 40.078125 35.4375 
Q 35.15625 39.890625 26.703125 39.890625 
Q 22.75 39.890625 18.8125 39.015625 
Q 14.890625 38.140625 10.796875 36.28125 
z
" id="DejaVuSans-53"/>
      </defs>
      <g transform="translate(123.855734 322.182437)scale(0.1 -0.1)">
       <use xlink:href="#DejaVuSans-53"/>
      </g>
     </g>
    </g>
    <g id="xtick_3">
     <g id="line2d_3">
      <g>
       <use style="stroke:#000000;stroke-width:0.8;" x="181.327042" xlink:href="#m02c4408b31" y="307.584"/>
      </g>
     </g>
     <g id="text_3">
      <!-- 10 -->
      <defs>
       <path d="M 12.40625 8.296875 
L 28.515625 8.296875 
L 28.515625 63.921875 
L 10.984375 60.40625 
L 10.984375 69.390625 
L 28.421875 72.90625 
L 38.28125 72.90625 
L 38.28125 8.296875 
L 54.390625 8.296875 
L 54.390625 0 
L 12.40625 0 
z
" id="DejaVuSans-49"/>
      </defs>
      <g transform="translate(174.964542 322.182437)scale(0.1 -0.1)">
       <use xlink:href="#DejaVuSans-49"/>
       <use x="63.623047" xlink:href="#DejaVuSans-48"/>
      </g>
     </g>
    </g>
    <g id="xtick_4">
     <g id="line2d_4">
      <g>
       <use style="stroke:#000000;stroke-width:0.8;" x="235.617099" xlink:href="#m02c4408b31" y="307.584"/>
      </g>
     </g>
     <g id="text_4">
      <!-- 15 -->
      <g transform="translate(229.254599 322.182437)scale(0.1 -0.1)">
       <use xlink:href="#DejaVuSans-49"/>
       <use x="63.623047" xlink:href="#DejaVuSans-53"/>
      </g>
     </g>
    </g>
    <g id="xtick_5">
     <g id="line2d_5">
      <g>
       <use style="stroke:#000000;stroke-width:0.8;" x="289.907157" xlink:href="#m02c4408b31" y="307.584"/>
      </g>
     </g>
     <g id="text_5">
      <!-- 20 -->
      <defs>
       <path d="M 19.1875 8.296875 
L 53.609375 8.296875 
L 53.609375 0 
L 7.328125 0 
L 7.328125 8.296875 
Q 12.9375 14.109375 22.625 23.890625 
Q 32.328125 33.6875 34.8125 36.53125 
Q 39.546875 41.84375 41.421875 45.53125 
Q 43.3125 49.21875 43.3125 52.78125 
Q 43.3125 58.59375 39.234375 62.25 
Q 35.15625 65.921875 28.609375 65.921875 
Q 23.96875 65.921875 18.8125 64.3125 
Q 13.671875 62.703125 7.8125 59.421875 
L 7.8125 69.390625 
Q 13.765625 71.78125 18.9375 73 
Q 24.125 74.21875 28.421875 74.21875 
Q 39.75 74.21875 46.484375 68.546875 
Q 53.21875 62.890625 53.21875 53.421875 
Q 53.21875 48.921875 51.53125 44.890625 
Q 49.859375 40.875 45.40625 35.40625 
Q 44.1875 33.984375 37.640625 27.21875 
Q 31.109375 20.453125 19.1875 8.296875 
z
" id="DejaVuSans-50"/>
      </defs>
      <g transform="translate(283.544657 322.182437)scale(0.1 -0.1)">
       <use xlink:href="#DejaVuSans-50"/>
       <use x="63.623047" xlink:href="#DejaVuSans-48"/>
      </g>
     </g>
    </g>
    <g id="xtick_6">
     <g id="line2d_6">
      <g>
       <use style="stroke:#000000;stroke-width:0.8;" x="344.197215" xlink:href="#m02c4408b31" y="307.584"/>
      </g>
     </g>
     <g id="text_6">
      <!-- 25 -->
      <g transform="translate(337.834715 322.182437)scale(0.1 -0.1)">
       <use xlink:href="#DejaVuSans-50"/>
       <use x="63.623047" xlink:href="#DejaVuSans-53"/>
      </g>
     </g>
    </g>
    <g id="xtick_7">
     <g id="line2d_7">
      <g>
       <use style="stroke:#000000;stroke-width:0.8;" x="398.487273" xlink:href="#m02c4408b31" y="307.584"/>
      </g>
     </g>
     <g id="text_7">
      <!-- 30 -->
      <defs>
       <path d="M 40.578125 39.3125 
Q 47.65625 37.796875 51.625 33 
Q 55.609375 28.21875 55.609375 21.1875 
Q 55.609375 10.40625 48.1875 4.484375 
Q 40.765625 -1.421875 27.09375 -1.421875 
Q 22.515625 -1.421875 17.65625 -0.515625 
Q 12.796875 0.390625 7.625 2.203125 
L 7.625 11.71875 
Q 11.71875 9.328125 16.59375 8.109375 
Q 21.484375 6.890625 26.8125 6.890625 
Q 36.078125 6.890625 40.9375 10.546875 
Q 45.796875 14.203125 45.796875 21.1875 
Q 45.796875 27.640625 41.28125 31.265625 
Q 36.765625 34.90625 28.71875 34.90625 
L 20.21875 34.90625 
L 20.21875 43.015625 
L 29.109375 43.015625 
Q 36.375 43.015625 40.234375 45.921875 
Q 44.09375 48.828125 44.09375 54.296875 
Q 44.09375 59.90625 40.109375 62.90625 
Q 36.140625 65.921875 28.71875 65.921875 
Q 24.65625 65.921875 20.015625 65.03125 
Q 15.375 64.15625 9.8125 62.3125 
L 9.8125 71.09375 
Q 15.4375 72.65625 20.34375 73.4375 
Q 25.25 74.21875 29.59375 74.21875 
Q 40.828125 74.21875 47.359375 69.109375 
Q 53.90625 64.015625 53.90625 55.328125 
Q 53.90625 49.265625 50.4375 45.09375 
Q 46.96875 40.921875 40.578125 39.3125 
z
" id="DejaVuSans-51"/>
      </defs>
      <g transform="translate(392.124773 322.182437)scale(0.1 -0.1)">
       <use xlink:href="#DejaVuSans-51"/>
       <use x="63.623047" xlink:href="#DejaVuSans-48"/>
      </g>
     </g>
    </g>
    <g id="text_8">
     <!-- Vitesse max (m/s) -->
     <defs>
      <path d="M 28.609375 0 
L 0.78125 72.90625 
L 11.078125 72.90625 
L 34.1875 11.53125 
L 57.328125 72.90625 
L 67.578125 72.90625 
L 39.796875 0 
z
" id="DejaVuSans-86"/>
      <path d="M 9.421875 54.6875 
L 18.40625 54.6875 
L 18.40625 0 
L 9.421875 0 
z
M 9.421875 75.984375 
L 18.40625 75.984375 
L 18.40625 64.59375 
L 9.421875 64.59375 
z
" id="DejaVuSans-105"/>
      <path d="M 18.3125 70.21875 
L 18.3125 54.6875 
L 36.8125 54.6875 
L 36.8125 47.703125 
L 18.3125 47.703125 
L 18.3125 18.015625 
Q 18.3125 11.328125 20.140625 9.421875 
Q 21.96875 7.515625 27.59375 7.515625 
L 36.8125 7.515625 
L 36.8125 0 
L 27.59375 0 
Q 17.1875 0 13.234375 3.875 
Q 9.28125 7.765625 9.28125 18.015625 
L 9.28125 47.703125 
L 2.6875 47.703125 
L 2.6875 54.6875 
L 9.28125 54.6875 
L 9.28125 70.21875 
z
" id="DejaVuSans-116"/>
      <path d="M 56.203125 29.59375 
L 56.203125 25.203125 
L 14.890625 25.203125 
Q 15.484375 15.921875 20.484375 11.0625 
Q 25.484375 6.203125 34.421875 6.203125 
Q 39.59375 6.203125 44.453125 7.46875 
Q 49.3125 8.734375 54.109375 11.28125 
L 54.109375 2.78125 
Q 49.265625 0.734375 44.1875 -0.34375 
Q 39.109375 -1.421875 33.890625 -1.421875 
Q 20.796875 -1.421875 13.15625 6.1875 
Q 5.515625 13.8125 5.515625 26.8125 
Q 5.515625 40.234375 12.765625 48.109375 
Q 20.015625 56 32.328125 56 
Q 43.359375 56 49.78125 48.890625 
Q 56.203125 41.796875 56.203125 29.59375 
z
M 47.21875 32.234375 
Q 47.125 39.59375 43.09375 43.984375 
Q 39.0625 48.390625 32.421875 48.390625 
Q 24.90625 48.390625 20.390625 44.140625 
Q 15.875 39.890625 15.1875 32.171875 
z
" id="DejaVuSans-101"/>
      <path d="M 44.28125 53.078125 
L 44.28125 44.578125 
Q 40.484375 46.53125 36.375 47.5 
Q 32.28125 48.484375 27.875 48.484375 
Q 21.1875 48.484375 17.84375 46.4375 
Q 14.5 44.390625 14.5 40.28125 
Q 14.5 37.15625 16.890625 35.375 
Q 19.28125 33.59375 26.515625 31.984375 
L 29.59375 31.296875 
Q 39.15625 29.25 43.1875 25.515625 
Q 47.21875 21.78125 47.21875 15.09375 
Q 47.21875 7.46875 41.1875 3.015625 
Q 35.15625 -1.421875 24.609375 -1.421875 
Q 20.21875 -1.421875 15.453125 -0.5625 
Q 10.6875 0.296875 5.421875 2 
L 5.421875 11.28125 
Q 10.40625 8.6875 15.234375 7.390625 
Q 20.0625 6.109375 24.8125 6.109375 
Q 31.15625 6.109375 34.5625 8.28125 
Q 37.984375 10.453125 37.984375 14.40625 
Q 37.984375 18.0625 35.515625 20.015625 
Q 33.0625 21.96875 24.703125 23.78125 
L 21.578125 24.515625 
Q 13.234375 26.265625 9.515625 29.90625 
Q 5.8125 33.546875 5.8125 39.890625 
Q 5.8125 47.609375 11.28125 51.796875 
Q 16.75 56 26.8125 56 
Q 31.78125 56 36.171875 55.265625 
Q 40.578125 54.546875 44.28125 53.078125 
z
" id="DejaVuSans-115"/>
      <path id="DejaVuSans-32"/>
      <path d="M 52 44.1875 
Q 55.375 50.25 60.0625 53.125 
Q 64.75 56 71.09375 56 
Q 79.640625 56 84.28125 50.015625 
Q 88.921875 44.046875 88.921875 33.015625 
L 88.921875 0 
L 79.890625 0 
L 79.890625 32.71875 
Q 79.890625 40.578125 77.09375 44.375 
Q 74.3125 48.1875 68.609375 48.1875 
Q 61.625 48.1875 57.5625 43.546875 
Q 53.515625 38.921875 53.515625 30.90625 
L 53.515625 0 
L 44.484375 0 
L 44.484375 32.71875 
Q 44.484375 40.625 41.703125 44.40625 
Q 38.921875 48.1875 33.109375 48.1875 
Q 26.21875 48.1875 22.15625 43.53125 
Q 18.109375 38.875 18.109375 30.90625 
L 18.109375 0 
L 9.078125 0 
L 9.078125 54.6875 
L 18.109375 54.6875 
L 18.109375 46.1875 
Q 21.1875 51.21875 25.484375 53.609375 
Q 29.78125 56 35.6875 56 
Q 41.65625 56 45.828125 52.96875 
Q 50 49.953125 52 44.1875 
z
" id="DejaVuSans-109"/>
      <path d="M 34.28125 27.484375 
Q 23.390625 27.484375 19.1875 25 
Q 14.984375 22.515625 14.984375 16.5 
Q 14.984375 11.71875 18.140625 8.90625 
Q 21.296875 6.109375 26.703125 6.109375 
Q 34.1875 6.109375 38.703125 11.40625 
Q 43.21875 16.703125 43.21875 25.484375 
L 43.21875 27.484375 
z
M 52.203125 31.203125 
L 52.203125 0 
L 43.21875 0 
L 43.21875 8.296875 
Q 40.140625 3.328125 35.546875 0.953125 
Q 30.953125 -1.421875 24.3125 -1.421875 
Q 15.921875 -1.421875 10.953125 3.296875 
Q 6 8.015625 6 15.921875 
Q 6 25.140625 12.171875 29.828125 
Q 18.359375 34.515625 30.609375 34.515625 
L 43.21875 34.515625 
L 43.21875 35.40625 
Q 43.21875 41.609375 39.140625 45 
Q 35.0625 48.390625 27.6875 48.390625 
Q 23 48.390625 18.546875 47.265625 
Q 14.109375 46.140625 10.015625 43.890625 
L 10.015625 52.203125 
Q 14.9375 54.109375 19.578125 55.046875 
Q 24.21875 56 28.609375 56 
Q 40.484375 56 46.34375 49.84375 
Q 52.203125 43.703125 52.203125 31.203125 
z
" id="DejaVuSans-97"/>
      <path d="M 54.890625 54.6875 
L 35.109375 28.078125 
L 55.90625 0 
L 45.3125 0 
L 29.390625 21.484375 
L 13.484375 0 
L 2.875 0 
L 24.125 28.609375 
L 4.6875 54.6875 
L 15.28125 54.6875 
L 29.78125 35.203125 
L 44.28125 54.6875 
z
" id="DejaVuSans-120"/>
      <path d="M 31 75.875 
Q 24.46875 64.65625 21.28125 53.65625 
Q 18.109375 42.671875 18.109375 31.390625 
Q 18.109375 20.125 21.3125 9.0625 
Q 24.515625 -2 31 -13.1875 
L 23.1875 -13.1875 
Q 15.875 -1.703125 12.234375 9.375 
Q 8.59375 20.453125 8.59375 31.390625 
Q 8.59375 42.28125 12.203125 53.3125 
Q 15.828125 64.359375 23.1875 75.875 
z
" id="DejaVuSans-40"/>
      <path d="M 25.390625 72.90625 
L 33.6875 72.90625 
L 8.296875 -9.28125 
L 0 -9.28125 
z
" id="DejaVuSans-47"/>
      <path d="M 8.015625 75.875 
L 15.828125 75.875 
Q 23.140625 64.359375 26.78125 53.3125 
Q 30.421875 42.28125 30.421875 31.390625 
Q 30.421875 20.453125 26.78125 9.375 
Q 23.140625 -1.703125 15.828125 -13.1875 
L 8.015625 -13.1875 
Q 14.5 -2 17.703125 9.0625 
Q 20.90625 20.125 20.90625 31.390625 
Q 20.90625 42.671875 17.703125 53.65625 
Q 14.5 64.65625 8.015625 75.875 
z
" id="DejaVuSans-41"/>
     </defs>
     <g transform="translate(190.896719 335.860562)scale(0.1 -0.1)">
      <use xlink:href="#DejaVuSans-86"/>
      <use x="68.376953" xlink:href="#DejaVuSans-105"/>
      <use x="96.160156" xlink:href="#DejaVuSans-116"/>
      <use x="135.369141" xlink:href="#DejaVuSans-101"/>
      <use x="196.892578" xlink:href="#DejaVuSans-115"/>
      <use x="248.992188" xlink:href="#DejaVuSans-115"/>
      <use x="301.091797" xlink:href="#DejaVuSans-101"/>
      <use x="362.615234" xlink:href="#DejaVuSans-32"/>
      <use x="394.402344" xlink:href="#DejaVuSans-109"/>
      <use x="491.814453" xlink:href="#DejaVuSans-97"/>
      <use x="553.09375" xlink:href="#DejaVuSans-120"/>
      <use x="612.273438" xlink:href="#DejaVuSans-32"/>
      <use x="644.060547" xlink:href="#DejaVuSans-40"/>
      <use x="683.074219" xlink:href="#DejaVuSans-109"/>
      <use x="780.486328" xlink:href="#DejaVuSans-47"/>
      <use x="814.177734" xlink:href="#DejaVuSans-115"/>
      <use x="866.277344" xlink:href="#DejaVuSans-41"/>
     </g>
    </g>
   </g>
   <g id="matplotlib.axis_2">
    <g id="ytick_1">
     <g id="line2d_8">
      <defs>
       <path d="M 0 0 
L -3.5 0 
" id="ma76a097e81" style="stroke:#000000;stroke-width:0.8;"/>
      </defs>
      <g>
       <use style="stroke:#000000;stroke-width:0.8;" x="57.6" xlink:href="#ma76a097e81" y="304.812"/>
      </g>
     </g>
     <g id="text_9">
      <!-- 0.00 -->
      <defs>
       <path d="M 10.6875 12.40625 
L 21 12.40625 
L 21 0 
L 10.6875 0 
z
" id="DejaVuSans-46"/>
      </defs>
      <g transform="translate(28.334375 308.611219)scale(0.1 -0.1)">
       <use xlink:href="#DejaVuSans-48"/>
       <use x="63.623047" xlink:href="#DejaVuSans-46"/>
       <use x="95.410156" xlink:href="#DejaVuSans-48"/>
       <use x="159.033203" xlink:href="#DejaVuSans-48"/>
      </g>
     </g>
    </g>
    <g id="ytick_2">
     <g id="line2d_9">
      <g>
       <use style="stroke:#000000;stroke-width:0.8;" x="57.6" xlink:href="#ma76a097e81" y="290.952"/>
      </g>
     </g>
     <g id="text_10">
      <!-- 0.05 -->
      <g transform="translate(28.334375 294.751219)scale(0.1 -0.1)">
       <use xlink:href="#DejaVuSans-48"/>
       <use x="63.623047" xlink:href="#DejaVuSans-46"/>
       <use x="95.410156" xlink:href="#DejaVuSans-48"/>
       <use x="159.033203" xlink:href="#DejaVuSans-53"/>
      </g>
     </g>
    </g>
    <g id="ytick_3">
     <g id="line2d_10">
      <g>
       <use style="stroke:#000000;stroke-width:0.8;" x="57.6" xlink:href="#ma76a097e81" y="277.092"/>
      </g>
     </g>
     <g id="text_11">
      <!-- 0.10 -->
      <g transform="translate(28.334375 280.891219)scale(0.1 -0.1)">
       <use xlink:href="#DejaVuSans-48"/>
       <use x="63.623047" xlink:href="#DejaVuSans-46"/>
       <use x="95.410156" xlink:href="#DejaVuSans-49"/>
       <use x="159.033203" xlink:href="#DejaVuSans-48"/>
      </g>
     </g>
    </g>
    <g id="ytick_4">
     <g id="line2d_11">
      <g>
       <use style="stroke:#000000;stroke-width:0.8;" x="57.6" xlink:href="#ma76a097e81" y="263.232"/>
      </g>
     </g>
     <g id="text_12">
      <!-- 0.15 -->
      <g transform="translate(28.334375 267.031219)scale(0.1 -0.1)">
       <use xlink:href="#DejaVuSans-48"/>
       <use x="63.623047" xlink:href="#DejaVuSans-46"/>
       <use x="95.410156" xlink:href="#DejaVuSans-49"/>
       <use x="159.033203" xlink:href="#DejaVuSans-53"/>
      </g>
     </g>
    </g>
    <g id="ytick_5">
     <g id="line2d_12">
      <g>
       <use style="stroke:#000000;stroke-width:0.8;" x="57.6" xlink:href="#ma76a097e81" y="249.372"/>
      </g>
     </g>
     <g id="text_13">
      <!-- 0.20 -->
      <g transform="translate(28.334375 253.171219)scale(0.1 -0.1)">
       <use xlink:href="#DejaVuSans-48"/>
       <use x="63.623047" xlink:href="#DejaVuSans-46"/>
       <use x="95.410156" xlink:href="#DejaVuSans-50"/>
       <use x="159.033203" xlink:href="#DejaVuSans-48"/>
      </g>
     </g>
    </g>
    <g id="ytick_6">
     <g id="line2d_13">
      <g>
       <use style="stroke:#000000;stroke-width:0.8;" x="57.6" xlink:href="#ma76a097e81" y="235.512"/>
      </g>
     </g>
     <g id="text_14">
      <!-- 0.25 -->
      <g transform="translate(28.334375 239.311219)scale(0.1 -0.1)">
       <use xlink:href="#DejaVuSans-48"/>
       <use x="63.623047" xlink:href="#DejaVuSans-46"/>
       <use x="95.410156" xlink:href="#DejaVuSans-50"/>
       <use x="159.033203" xlink:href="#DejaVuSans-53"/>
      </g>
     </g>
    </g>
    <g id="ytick_7">
     <g id="line2d_14">
      <g>
       <use style="stroke:#000000;stroke-width:0.8;" x="57.6" xlink:href="#ma76a097e81" y="221.652"/>
      </g>
     </g>
     <g id="text_15">
      <!-- 0.30 -->
      <g transform="translate(28.334375 225.451219)scale(0.1 -0.1)">
       <use xlink:href="#DejaVuSans-48"/>
       <use x="63.623047" xlink:href="#DejaVuSans-46"/>
       <use x="95.410156" xlink:href="#DejaVuSans-51"/>
       <use x="159.033203" xlink:href="#DejaVuSans-48"/>
      </g>
     </g>
    </g>
    <g id="ytick_8">
     <g id="line2d_15">
      <g>
       <use style="stroke:#000000;stroke-width:0.8;" x="57.6" xlink:href="#ma76a097e81" y="207.792"/>
      </g>
     </g>
     <g id="text_16">
      <!-- 0.35 -->
      <g transform="translate(28.334375 211.591219)scale(0.1 -0.1)">
       <use xlink:href="#DejaVuSans-48"/>
       <use x="63.623047" xlink:href="#DejaVuSans-46"/>
       <use x="95.410156" xlink:href="#DejaVuSans-51"/>
       <use x="159.033203" xlink:href="#DejaVuSans-53"/>
      </g>
     </g>
    </g>
    <g id="ytick_9">
     <g id="line2d_16">
      <g>
       <use style="stroke:#000000;stroke-width:0.8;" x="57.6" xlink:href="#ma76a097e81" y="193.932"/>
      </g>
     </g>
     <g id="text_17">
      <!-- 0.40 -->
      <defs>
       <path d="M 37.796875 64.3125 
L 12.890625 25.390625 
L 37.796875 25.390625 
z
M 35.203125 72.90625 
L 47.609375 72.90625 
L 47.609375 25.390625 
L 58.015625 25.390625 
L 58.015625 17.1875 
L 47.609375 17.1875 
L 47.609375 0 
L 37.796875 0 
L 37.796875 17.1875 
L 4.890625 17.1875 
L 4.890625 26.703125 
z
" id="DejaVuSans-52"/>
      </defs>
      <g transform="translate(28.334375 197.731219)scale(0.1 -0.1)">
       <use xlink:href="#DejaVuSans-48"/>
       <use x="63.623047" xlink:href="#DejaVuSans-46"/>
       <use x="95.410156" xlink:href="#DejaVuSans-52"/>
       <use x="159.033203" xlink:href="#DejaVuSans-48"/>
      </g>
     </g>
    </g>
    <g id="ytick_10">
     <g id="line2d_17">
      <g>
       <use style="stroke:#000000;stroke-width:0.8;" x="57.6" xlink:href="#ma76a097e81" y="180.072"/>
      </g>
     </g>
     <g id="text_18">
      <!-- 0.45 -->
      <g transform="translate(28.334375 183.871219)scale(0.1 -0.1)">
       <use xlink:href="#DejaVuSans-48"/>
       <use x="63.623047" xlink:href="#DejaVuSans-46"/>
       <use x="95.410156" xlink:href="#DejaVuSans-52"/>
       <use x="159.033203" xlink:href="#DejaVuSans-53"/>
      </g>
     </g>
    </g>
    <g id="ytick_11">
     <g id="line2d_18">
      <g>
       <use style="stroke:#000000;stroke-width:0.8;" x="57.6" xlink:href="#ma76a097e81" y="166.212"/>
      </g>
     </g>
     <g id="text_19">
      <!-- 0.50 -->
      <g transform="translate(28.334375 170.011219)scale(0.1 -0.1)">
       <use xlink:href="#DejaVuSans-48"/>
       <use x="63.623047" xlink:href="#DejaVuSans-46"/>
       <use x="95.410156" xlink:href="#DejaVuSans-53"/>
       <use x="159.033203" xlink:href="#DejaVuSans-48"/>
      </g>
     </g>
    </g>
    <g id="ytick_12">
     <g id="line2d_19">
      <g>
       <use style="stroke:#000000;stroke-width:0.8;" x="57.6" xlink:href="#ma76a097e81" y="152.352"/>
      </g>
     </g>
     <g id="text_20">
      <!-- 0.55 -->
      <g transform="translate(28.334375 156.151219)scale(0.1 -0.1)">
       <use xlink:href="#DejaVuSans-48"/>
       <use x="63.623047" xlink:href="#DejaVuSans-46"/>
       <use x="95.410156" xlink:href="#DejaVuSans-53"/>
       <use x="159.033203" xlink:href="#DejaVuSans-53"/>
      </g>
     </g>
    </g>
    <g id="ytick_13">
     <g id="line2d_20">
      <g>
       <use style="stroke:#000000;stroke-width:0.8;" x="57.6" xlink:href="#ma76a097e81" y="138.492"/>
      </g>
     </g>
     <g id="text_21">
      <!-- 0.60 -->
      <defs>
       <path d="M 33.015625 40.375 
Q 26.375 40.375 22.484375 35.828125 
Q 18.609375 31.296875 18.609375 23.390625 
Q 18.609375 15.53125 22.484375 10.953125 
Q 26.375 6.390625 33.015625 6.390625 
Q 39.65625 6.390625 43.53125 10.953125 
Q 47.40625 15.53125 47.40625 23.390625 
Q 47.40625 31.296875 43.53125 35.828125 
Q 39.65625 40.375 33.015625 40.375 
z
M 52.59375 71.296875 
L 52.59375 62.3125 
Q 48.875 64.0625 45.09375 64.984375 
Q 41.3125 65.921875 37.59375 65.921875 
Q 27.828125 65.921875 22.671875 59.328125 
Q 17.53125 52.734375 16.796875 39.40625 
Q 19.671875 43.65625 24.015625 45.921875 
Q 28.375 48.1875 33.59375 48.1875 
Q 44.578125 48.1875 50.953125 41.515625 
Q 57.328125 34.859375 57.328125 23.390625 
Q 57.328125 12.15625 50.6875 5.359375 
Q 44.046875 -1.421875 33.015625 -1.421875 
Q 20.359375 -1.421875 13.671875 8.265625 
Q 6.984375 17.96875 6.984375 36.375 
Q 6.984375 53.65625 15.1875 63.9375 
Q 23.390625 74.21875 37.203125 74.21875 
Q 40.921875 74.21875 44.703125 73.484375 
Q 48.484375 72.75 52.59375 71.296875 
z
" id="DejaVuSans-54"/>
      </defs>
      <g transform="translate(28.334375 142.291219)scale(0.1 -0.1)">
       <use xlink:href="#DejaVuSans-48"/>
       <use x="63.623047" xlink:href="#DejaVuSans-46"/>
       <use x="95.410156" xlink:href="#DejaVuSans-54"/>
       <use x="159.033203" xlink:href="#DejaVuSans-48"/>
      </g>
     </g>
    </g>
    <g id="ytick_14">
     <g id="line2d_21">
      <g>
       <use style="stroke:#000000;stroke-width:0.8;" x="57.6" xlink:href="#ma76a097e81" y="124.632"/>
      </g>
     </g>
     <g id="text_22">
      <!-- 0.65 -->
      <g transform="translate(28.334375 128.431219)scale(0.1 -0.1)">
       <use xlink:href="#DejaVuSans-48"/>
       <use x="63.623047" xlink:href="#DejaVuSans-46"/>
       <use x="95.410156" xlink:href="#DejaVuSans-54"/>
       <use x="159.033203" xlink:href="#DejaVuSans-53"/>
      </g>
     </g>
    </g>
    <g id="ytick_15">
     <g id="line2d_22">
      <g>
       <use style="stroke:#000000;stroke-width:0.8;" x="57.6" xlink:href="#ma76a097e81" y="110.772"/>
      </g>
     </g>
     <g id="text_23">
      <!-- 0.70 -->
      <defs>
       <path d="M 8.203125 72.90625 
L 55.078125 72.90625 
L 55.078125 68.703125 
L 28.609375 0 
L 18.3125 0 
L 43.21875 64.59375 
L 8.203125 64.59375 
z
" id="DejaVuSans-55"/>
      </defs>
      <g transform="translate(28.334375 114.571219)scale(0.1 -0.1)">
       <use xlink:href="#DejaVuSans-48"/>
       <use x="63.623047" xlink:href="#DejaVuSans-46"/>
       <use x="95.410156" xlink:href="#DejaVuSans-55"/>
       <use x="159.033203" xlink:href="#DejaVuSans-48"/>
      </g>
     </g>
    </g>
    <g id="ytick_16">
     <g id="line2d_23">
      <g>
       <use style="stroke:#000000;stroke-width:0.8;" x="57.6" xlink:href="#ma76a097e81" y="96.912"/>
      </g>
     </g>
     <g id="text_24">
      <!-- 0.75 -->
      <g transform="translate(28.334375 100.711219)scale(0.1 -0.1)">
       <use xlink:href="#DejaVuSans-48"/>
       <use x="63.623047" xlink:href="#DejaVuSans-46"/>
       <use x="95.410156" xlink:href="#DejaVuSans-55"/>
       <use x="159.033203" xlink:href="#DejaVuSans-53"/>
      </g>
     </g>
    </g>
    <g id="ytick_17">
     <g id="line2d_24">
      <g>
       <use style="stroke:#000000;stroke-width:0.8;" x="57.6" xlink:href="#ma76a097e81" y="83.052"/>
      </g>
     </g>
     <g id="text_25">
      <!-- 0.80 -->
      <defs>
       <path d="M 31.78125 34.625 
Q 24.75 34.625 20.71875 30.859375 
Q 16.703125 27.09375 16.703125 20.515625 
Q 16.703125 13.921875 20.71875 10.15625 
Q 24.75 6.390625 31.78125 6.390625 
Q 38.8125 6.390625 42.859375 10.171875 
Q 46.921875 13.96875 46.921875 20.515625 
Q 46.921875 27.09375 42.890625 30.859375 
Q 38.875 34.625 31.78125 34.625 
z
M 21.921875 38.8125 
Q 15.578125 40.375 12.03125 44.71875 
Q 8.5 49.078125 8.5 55.328125 
Q 8.5 64.0625 14.71875 69.140625 
Q 20.953125 74.21875 31.78125 74.21875 
Q 42.671875 74.21875 48.875 69.140625 
Q 55.078125 64.0625 55.078125 55.328125 
Q 55.078125 49.078125 51.53125 44.71875 
Q 48 40.375 41.703125 38.8125 
Q 48.828125 37.15625 52.796875 32.3125 
Q 56.78125 27.484375 56.78125 20.515625 
Q 56.78125 9.90625 50.3125 4.234375 
Q 43.84375 -1.421875 31.78125 -1.421875 
Q 19.734375 -1.421875 13.25 4.234375 
Q 6.78125 9.90625 6.78125 20.515625 
Q 6.78125 27.484375 10.78125 32.3125 
Q 14.796875 37.15625 21.921875 38.8125 
z
M 18.3125 54.390625 
Q 18.3125 48.734375 21.84375 45.5625 
Q 25.390625 42.390625 31.78125 42.390625 
Q 38.140625 42.390625 41.71875 45.5625 
Q 45.3125 48.734375 45.3125 54.390625 
Q 45.3125 60.0625 41.71875 63.234375 
Q 38.140625 66.40625 31.78125 66.40625 
Q 25.390625 66.40625 21.84375 63.234375 
Q 18.3125 60.0625 18.3125 54.390625 
z
" id="DejaVuSans-56"/>
      </defs>
      <g transform="translate(28.334375 86.851219)scale(0.1 -0.1)">
       <use xlink:href="#DejaVuSans-48"/>
       <use x="63.623047" xlink:href="#DejaVuSans-46"/>
       <use x="95.410156" xlink:href="#DejaVuSans-56"/>
       <use x="159.033203" xlink:href="#DejaVuSans-48"/>
      </g>
     </g>
    </g>
    <g id="ytick_18">
     <g id="line2d_25">
      <g>
       <use style="stroke:#000000;stroke-width:0.8;" x="57.6" xlink:href="#ma76a097e81" y="69.192"/>
      </g>
     </g>
     <g id="text_26">
      <!-- 0.85 -->
      <g transform="translate(28.334375 72.991219)scale(0.1 -0.1)">
       <use xlink:href="#DejaVuSans-48"/>
       <use x="63.623047" xlink:href="#DejaVuSans-46"/>
       <use x="95.410156" xlink:href="#DejaVuSans-56"/>
       <use x="159.033203" xlink:href="#DejaVuSans-53"/>
      </g>
     </g>
    </g>
    <g id="ytick_19">
     <g id="line2d_26">
      <g>
       <use style="stroke:#000000;stroke-width:0.8;" x="57.6" xlink:href="#ma76a097e81" y="55.332"/>
      </g>
     </g>
     <g id="text_27">
      <!-- 0.90 -->
      <defs>
       <path d="M 10.984375 1.515625 
L 10.984375 10.5 
Q 14.703125 8.734375 18.5 7.8125 
Q 22.3125 6.890625 25.984375 6.890625 
Q 35.75 6.890625 40.890625 13.453125 
Q 46.046875 20.015625 46.78125 33.40625 
Q 43.953125 29.203125 39.59375 26.953125 
Q 35.25 24.703125 29.984375 24.703125 
Q 19.046875 24.703125 12.671875 31.3125 
Q 6.296875 37.9375 6.296875 49.421875 
Q 6.296875 60.640625 12.9375 67.421875 
Q 19.578125 74.21875 30.609375 74.21875 
Q 43.265625 74.21875 49.921875 64.515625 
Q 56.59375 54.828125 56.59375 36.375 
Q 56.59375 19.140625 48.40625 8.859375 
Q 40.234375 -1.421875 26.421875 -1.421875 
Q 22.703125 -1.421875 18.890625 -0.6875 
Q 15.09375 0.046875 10.984375 1.515625 
z
M 30.609375 32.421875 
Q 37.25 32.421875 41.125 36.953125 
Q 45.015625 41.5 45.015625 49.421875 
Q 45.015625 57.28125 41.125 61.84375 
Q 37.25 66.40625 30.609375 66.40625 
Q 23.96875 66.40625 20.09375 61.84375 
Q 16.21875 57.28125 16.21875 49.421875 
Q 16.21875 41.5 20.09375 36.953125 
Q 23.96875 32.421875 30.609375 32.421875 
z
" id="DejaVuSans-57"/>
      </defs>
      <g transform="translate(28.334375 59.131219)scale(0.1 -0.1)">
       <use xlink:href="#DejaVuSans-48"/>
       <use x="63.623047" xlink:href="#DejaVuSans-46"/>
       <use x="95.410156" xlink:href="#DejaVuSans-57"/>
       <use x="159.033203" xlink:href="#DejaVuSans-48"/>
      </g>
     </g>
    </g>
    <g id="ytick_20">
     <g id="line2d_27">
      <g>
       <use style="stroke:#000000;stroke-width:0.8;" x="57.6" xlink:href="#ma76a097e81" y="41.472"/>
      </g>
     </g>
     <g id="text_28">
      <!-- 0.95 -->
      <g transform="translate(28.334375 45.271219)scale(0.1 -0.1)">
       <use xlink:href="#DejaVuSans-48"/>
       <use x="63.623047" xlink:href="#DejaVuSans-46"/>
       <use x="95.410156" xlink:href="#DejaVuSans-57"/>
       <use x="159.033203" xlink:href="#DejaVuSans-53"/>
      </g>
     </g>
    </g>
    <g id="text_29">
     <!-- PDR -->
     <defs>
      <path d="M 19.671875 64.796875 
L 19.671875 37.40625 
L 32.078125 37.40625 
Q 38.96875 37.40625 42.71875 40.96875 
Q 46.484375 44.53125 46.484375 51.125 
Q 46.484375 57.671875 42.71875 61.234375 
Q 38.96875 64.796875 32.078125 64.796875 
z
M 9.8125 72.90625 
L 32.078125 72.90625 
Q 44.34375 72.90625 50.609375 67.359375 
Q 56.890625 61.8125 56.890625 51.125 
Q 56.890625 40.328125 50.609375 34.8125 
Q 44.34375 29.296875 32.078125 29.296875 
L 19.671875 29.296875 
L 19.671875 0 
L 9.8125 0 
z
" id="DejaVuSans-80"/>
      <path d="M 19.671875 64.796875 
L 19.671875 8.109375 
L 31.59375 8.109375 
Q 46.6875 8.109375 53.6875 14.9375 
Q 60.6875 21.78125 60.6875 36.53125 
Q 60.6875 51.171875 53.6875 57.984375 
Q 46.6875 64.796875 31.59375 64.796875 
z
M 9.8125 72.90625 
L 30.078125 72.90625 
Q 51.265625 72.90625 61.171875 64.09375 
Q 71.09375 55.28125 71.09375 36.53125 
Q 71.09375 17.671875 61.125 8.828125 
Q 51.171875 0 30.078125 0 
L 9.8125 0 
z
" id="DejaVuSans-68"/>
      <path d="M 44.390625 34.1875 
Q 47.5625 33.109375 50.5625 29.59375 
Q 53.5625 26.078125 56.59375 19.921875 
L 66.609375 0 
L 56 0 
L 46.6875 18.703125 
Q 43.0625 26.03125 39.671875 28.421875 
Q 36.28125 30.8125 30.421875 30.8125 
L 19.671875 30.8125 
L 19.671875 0 
L 9.8125 0 
L 9.8125 72.90625 
L 32.078125 72.90625 
Q 44.578125 72.90625 50.734375 67.671875 
Q 56.890625 62.453125 56.890625 51.90625 
Q 56.890625 45.015625 53.6875 40.46875 
Q 50.484375 35.9375 44.390625 34.1875 
z
M 19.671875 64.796875 
L 19.671875 38.921875 
L 32.078125 38.921875 
Q 39.203125 38.921875 42.84375 42.21875 
Q 46.484375 45.515625 46.484375 51.90625 
Q 46.484375 58.296875 42.84375 61.546875 
Q 39.203125 64.796875 32.078125 64.796875 
z
" id="DejaVuSans-82"/>
     </defs>
     <g transform="translate(22.254688 184.867063)rotate(-90)scale(0.1 -0.1)">
      <use xlink:href="#DejaVuSans-80"/>
      <use x="60.302734" xlink:href="#DejaVuSans-68"/>
      <use x="137.304688" xlink:href="#DejaVuSans-82"/>
     </g>
    </g>
   </g>
   <g id="line2d_28">
    <path clip-path="url(#pac628492b1)" d="M 73.832727 304.812 
L 78.175932 304.812 
L 83.604938 281.052 
L 89.033943 300.852 
L 94.462949 277.092 
L 99.891955 273.132 
L 105.320961 273.132 
L 110.749967 273.132 
L 116.178972 273.132 
L 121.607978 269.172 
L 127.036984 265.212 
L 132.46599 261.252 
L 137.894995 285.012 
L 143.324001 288.972 
L 148.753007 288.972 
L 154.182013 277.092 
L 159.611019 277.092 
L 165.040024 281.052 
L 170.46903 285.012 
L 175.898036 288.972 
L 181.327042 292.932 
L 186.756047 285.012 
L 192.185053 288.972 
L 197.614059 285.012 
L 203.043065 285.012 
L 208.472071 288.972 
L 213.901076 296.892 
L 219.330082 300.852 
L 224.759088 292.932 
L 230.188094 296.892 
L 235.617099 300.852 
L 241.046105 300.852 
L 246.475111 296.892 
L 251.904117 304.812 
L 257.333123 304.812 
L 262.762128 304.812 
L 268.191134 300.852 
L 273.62014 304.812 
L 279.049146 304.812 
L 284.478151 304.812 
L 289.907157 300.852 
L 295.336163 300.852 
L 300.765169 296.892 
L 306.194175 292.932 
L 311.62318 288.972 
L 317.052186 285.012 
L 322.481192 281.052 
L 327.910198 281.052 
L 333.339203 277.092 
L 338.768209 277.092 
L 344.197215 277.092 
L 349.626221 277.092 
L 355.055227 277.092 
L 360.484232 277.092 
L 365.913238 273.132 
L 371.342244 273.132 
L 376.77125 281.052 
L 382.200255 285.012 
L 387.629261 285.012 
L 393.058267 281.052 
L 398.487273 285.012 
" style="fill:none;stroke:#0000ff;stroke-linecap:square;"/>
    <defs>
     <path d="M 0 1 
C 0.265203 1 0.51958 0.894634 0.707107 0.707107 
C 0.894634 0.51958 1 0.265203 1 0 
C 1 -0.265203 0.894634 -0.51958 0.707107 -0.707107 
C 0.51958 -0.894634 0.265203 -1 0 -1 
C -0.265203 -1 -0.51958 -0.894634 -0.707107 -0.707107 
C -0.894634 -0.51958 -1 -0.265203 -1 0 
C -1 0.265203 -0.894634 0.51958 -0.707107 0.707107 
C -0.51958 0.894634 -0.265203 1 0 1 
z
" id="m37381591ef" style="stroke:#0000ff;"/>
    </defs>
    <g clip-path="url(#pac628492b1)">
     <use style="fill:#0000ff;stroke:#0000ff;" x="73.832727" xlink:href="#m37381591ef" y="304.812"/>
     <use style="fill:#0000ff;stroke:#0000ff;" x="78.175932" xlink:href="#m37381591ef" y="304.812"/>
     <use style="fill:#0000ff;stroke:#0000ff;" x="83.604938" xlink:href="#m37381591ef" y="281.052"/>
     <use style="fill:#0000ff;stroke:#0000ff;" x="89.033943" xlink:href="#m37381591ef" y="300.852"/>
     <use style="fill:#0000ff;stroke:#0000ff;" x="94.462949" xlink:href="#m37381591ef" y="277.092"/>
     <use style="fill:#0000ff;stroke:#0000ff;" x="99.891955" xlink:href="#m37381591ef" y="273.132"/>
     <use style="fill:#0000ff;stroke:#0000ff;" x="105.320961" xlink:href="#m37381591ef" y="273.132"/>
     <use style="fill:#0000ff;stroke:#0000ff;" x="110.749967" xlink:href="#m37381591ef" y="273.132"/>
     <use style="fill:#0000ff;stroke:#0000ff;" x="116.178972" xlink:href="#m37381591ef" y="273.132"/>
     <use style="fill:#0000ff;stroke:#0000ff;" x="121.607978" xlink:href="#m37381591ef" y="269.172"/>
     <use style="fill:#0000ff;stroke:#0000ff;" x="127.036984" xlink:href="#m37381591ef" y="265.212"/>
     <use style="fill:#0000ff;stroke:#0000ff;" x="132.46599" xlink:href="#m37381591ef" y="261.252"/>
     <use style="fill:#0000ff;stroke:#0000ff;" x="137.894995" xlink:href="#m37381591ef" y="285.012"/>
     <use style="fill:#0000ff;stroke:#0000ff;" x="143.324001" xlink:href="#m37381591ef" y="288.972"/>
     <use style="fill:#0000ff;stroke:#0000ff;" x="148.753007" xlink:href="#m37381591ef" y="288.972"/>
     <use style="fill:#0000ff;stroke:#0000ff;" x="154.182013" xlink:href="#m37381591ef" y="277.092"/>
     <use style="fill:#0000ff;stroke:#0000ff;" x="159.611019" xlink:href="#m37381591ef" y="277.092"/>
     <use style="fill:#0000ff;stroke:#0000ff;" x="165.040024" xlink:href="#m37381591ef" y="281.052"/>
     <use style="fill:#0000ff;stroke:#0000ff;" x="170.46903" xlink:href="#m37381591ef" y="285.012"/>
     <use style="fill:#0000ff;stroke:#0000ff;" x="175.898036" xlink:href="#m37381591ef" y="288.972"/>
     <use style="fill:#0000ff;stroke:#0000ff;" x="181.327042" xlink:href="#m37381591ef" y="292.932"/>
     <use style="fill:#0000ff;stroke:#0000ff;" x="186.756047" xlink:href="#m37381591ef" y="285.012"/>
     <use style="fill:#0000ff;stroke:#0000ff;" x="192.185053" xlink:href="#m37381591ef" y="288.972"/>
     <use style="fill:#0000ff;stroke:#0000ff;" x="197.614059" xlink:href="#m37381591ef" y="285.012"/>
     <use style="fill:#0000ff;stroke:#0000ff;" x="203.043065" xlink:href="#m37381591ef" y="285.012"/>
     <use style="fill:#0000ff;stroke:#0000ff;" x="208.472071" xlink:href="#m37381591ef" y="288.972"/>
     <use style="fill:#0000ff;stroke:#0000ff;" x="213.901076" xlink:href="#m37381591ef" y="296.892"/>
     <use style="fill:#0000ff;stroke:#0000ff;" x="219.330082" xlink:href="#m37381591ef" y="300.852"/>
     <use style="fill:#0000ff;stroke:#0000ff;" x="224.759088" xlink:href="#m37381591ef" y="292.932"/>
     <use style="fill:#0000ff;stroke:#0000ff;" x="230.188094" xlink:href="#m37381591ef" y="296.892"/>
     <use style="fill:#0000ff;stroke:#0000ff;" x="235.617099" xlink:href="#m37381591ef" y="300.852"/>
     <use style="fill:#0000ff;stroke:#0000ff;" x="241.046105" xlink:href="#m37381591ef" y="300.852"/>
     <use style="fill:#0000ff;stroke:#0000ff;" x="246.475111" xlink:href="#m37381591ef" y="296.892"/>
     <use style="fill:#0000ff;stroke:#0000ff;" x="251.904117" xlink:href="#m37381591ef" y="304.812"/>
     <use style="fill:#0000ff;stroke:#0000ff;" x="257.333123" xlink:href="#m37381591ef" y="304.812"/>
     <use style="fill:#0000ff;stroke:#0000ff;" x="262.762128" xlink:href="#m37381591ef" y="304.812"/>
     <use style="fill:#0000ff;stroke:#0000ff;" x="268.191134" xlink:href="#m37381591ef" y="300.852"/>
     <use style="fill:#0000ff;stroke:#0000ff;" x="273.62014" xlink:href="#m37381591ef" y="304.812"/>
     <use style="fill:#0000ff;stroke:#0000ff;" x="279.049146" xlink:href="#m37381591ef" y="304.812"/>
     <use style="fill:#0000ff;stroke:#0000ff;" x="284.478151" xlink:href="#m37381591ef" y="304.812"/>
     <use style="fill:#0000ff;stroke:#0000ff;" x="289.907157" xlink:href="#m37381591ef" y="300.852"/>
     <use style="fill:#0000ff;stroke:#0000ff;" x="295.336163" xlink:href="#m37381591ef" y="300.852"/>
     <use style="fill:#0000ff;stroke:#0000ff;" x="300.765169" xlink:href="#m37381591ef" y="296.892"/>
     <use style="fill:#0000ff;stroke:#0000ff;" x="306.194175" xlink:href="#m37381591ef" y="292.932"/>
     <use style="fill:#0000ff;stroke:#0000ff;" x="311.62318" xlink:href="#m37381591ef" y="288.972"/>
     <use style="fill:#0000ff;stroke:#0000ff;" x="317.052186" xlink:href="#m37381591ef" y="285.012"/>
     <use style="fill:#0000ff;stroke:#0000ff;" x="322.481192" xlink:href="#m37381591ef" y="281.052"/>
     <use style="fill:#0000ff;stroke:#0000ff;" x="327.910198" xlink:href="#m37381591ef" y="281.052"/>
     <use style="fill:#0000ff;stroke:#0000ff;" x="333.339203" xlink:href="#m37381591ef" y="277.092"/>
     <use style="fill:#0000ff;stroke:#0000ff;" x="338.768209" xlink:href="#m37381591ef" y="277.092"/>
     <use style="fill:#0000ff;stroke:#0000ff;" x="344.197215" xlink:href="#m37381591ef" y="277.092"/>
     <use style="fill:#0000ff;stroke:#0000ff;" x="349.626221" xlink:href="#m37381591ef" y="277.092"/>
     <use style="fill:#0000ff;stroke:#0000ff;" x="355.055227" xlink:href="#m37381591ef" y="277.092"/>
     <use style="fill:#0000ff;stroke:#0000ff;" x="360.484232" xlink:href="#m37381591ef" y="277.092"/>
     <use style="fill:#0000ff;stroke:#0000ff;" x="365.913238" xlink:href="#m37381591ef" y="273.132"/>
     <use style="fill:#0000ff;stroke:#0000ff;" x="371.342244" xlink:href="#m37381591ef" y="273.132"/>
     <use style="fill:#0000ff;stroke:#0000ff;" x="376.77125" xlink:href="#m37381591ef" y="281.052"/>
     <use style="fill:#0000ff;stroke:#0000ff;" x="382.200255" xlink:href="#m37381591ef" y="285.012"/>
     <use style="fill:#0000ff;stroke:#0000ff;" x="387.629261" xlink:href="#m37381591ef" y="285.012"/>
     <use style="fill:#0000ff;stroke:#0000ff;" x="393.058267" xlink:href="#m37381591ef" y="281.052"/>
     <use style="fill:#0000ff;stroke:#0000ff;" x="398.487273" xlink:href="#m37381591ef" y="285.012"/>
    </g>
   </g>
   <g id="line2d_29">
    <path clip-path="url(#pac628492b1)" d="M 73.832727 304.812 
L 78.175932 304.812 
L 83.604938 277.092 
L 89.033943 277.092 
L 94.462949 277.092 
L 99.891955 281.052 
L 105.320961 277.092 
L 110.749967 277.092 
L 116.178972 269.172 
L 121.607978 265.212 
L 127.036984 269.172 
L 132.46599 265.212 
L 137.894995 269.172 
L 143.324001 265.212 
L 148.753007 261.252 
L 154.182013 253.332 
L 159.611019 257.292 
L 165.040024 269.172 
L 170.46903 253.332 
L 175.898036 269.172 
L 181.327042 269.172 
L 186.756047 269.172 
L 192.185053 269.172 
L 197.614059 269.172 
L 203.043065 265.212 
L 208.472071 261.252 
L 213.901076 273.132 
L 219.330082 265.212 
L 224.759088 273.132 
L 230.188094 265.212 
L 235.617099 273.132 
L 241.046105 273.132 
L 246.475111 269.172 
L 251.904117 269.172 
L 257.333123 265.212 
L 262.762128 269.172 
L 268.191134 273.132 
L 273.62014 265.212 
L 279.049146 273.132 
L 284.478151 265.212 
L 289.907157 261.252 
L 295.336163 253.332 
L 300.765169 261.252 
L 306.194175 253.332 
L 311.62318 249.372 
L 317.052186 261.252 
L 322.481192 261.252 
L 327.910198 253.332 
L 333.339203 249.372 
L 338.768209 249.372 
L 344.197215 253.332 
L 349.626221 257.292 
L 355.055227 253.332 
L 360.484232 253.332 
L 365.913238 253.332 
L 371.342244 249.372 
L 376.77125 253.332 
L 382.200255 257.292 
L 387.629261 253.332 
L 393.058267 261.252 
L 398.487273 281.052 
" style="fill:none;stroke:#ff0000;stroke-linecap:square;"/>
    <defs>
     <path d="M 0 1 
C 0.265203 1 0.51958 0.894634 0.707107 0.707107 
C 0.894634 0.51958 1 0.265203 1 0 
C 1 -0.265203 0.894634 -0.51958 0.707107 -0.707107 
C 0.51958 -0.894634 0.265203 -1 0 -1 
C -0.265203 -1 -0.51958 -0.894634 -0.707107 -0.707107 
C -0.894634 -0.51958 -1 -0.265203 -1 0 
C -1 0.265203 -0.894634 0.51958 -0.707107 0.707107 
C -0.51958 0.894634 -0.265203 1 0 1 
z
" id="mc686d7d77f" style="stroke:#ff0000;"/>
    </defs>
    <g clip-path="url(#pac628492b1)">
     <use style="fill:#ff0000;stroke:#ff0000;" x="73.832727" xlink:href="#mc686d7d77f" y="304.812"/>
     <use style="fill:#ff0000;stroke:#ff0000;" x="78.175932" xlink:href="#mc686d7d77f" y="304.812"/>
     <use style="fill:#ff0000;stroke:#ff0000;" x="83.604938" xlink:href="#mc686d7d77f" y="277.092"/>
     <use style="fill:#ff0000;stroke:#ff0000;" x="89.033943" xlink:href="#mc686d7d77f" y="277.092"/>
     <use style="fill:#ff0000;stroke:#ff0000;" x="94.462949" xlink:href="#mc686d7d77f" y="277.092"/>
     <use style="fill:#ff0000;stroke:#ff0000;" x="99.891955" xlink:href="#mc686d7d77f" y="281.052"/>
     <use style="fill:#ff0000;stroke:#ff0000;" x="105.320961" xlink:href="#mc686d7d77f" y="277.092"/>
     <use style="fill:#ff0000;stroke:#ff0000;" x="110.749967" xlink:href="#mc686d7d77f" y="277.092"/>
     <use style="fill:#ff0000;stroke:#ff0000;" x="116.178972" xlink:href="#mc686d7d77f" y="269.172"/>
     <use style="fill:#ff0000;stroke:#ff0000;" x="121.607978" xlink:href="#mc686d7d77f" y="265.212"/>
     <use style="fill:#ff0000;stroke:#ff0000;" x="127.036984" xlink:href="#mc686d7d77f" y="269.172"/>
     <use style="fill:#ff0000;stroke:#ff0000;" x="132.46599" xlink:href="#mc686d7d77f" y="265.212"/>
     <use style="fill:#ff0000;stroke:#ff0000;" x="137.894995" xlink:href="#mc686d7d77f" y="269.172"/>
     <use style="fill:#ff0000;stroke:#ff0000;" x="143.324001" xlink:href="#mc686d7d77f" y="265.212"/>
     <use style="fill:#ff0000;stroke:#ff0000;" x="148.753007" xlink:href="#mc686d7d77f" y="261.252"/>
     <use style="fill:#ff0000;stroke:#ff0000;" x="154.182013" xlink:href="#mc686d7d77f" y="253.332"/>
     <use style="fill:#ff0000;stroke:#ff0000;" x="159.611019" xlink:href="#mc686d7d77f" y="257.292"/>
     <use style="fill:#ff0000;stroke:#ff0000;" x="165.040024" xlink:href="#mc686d7d77f" y="269.172"/>
     <use style="fill:#ff0000;stroke:#ff0000;" x="170.46903" xlink:href="#mc686d7d77f" y="253.332"/>
     <use style="fill:#ff0000;stroke:#ff0000;" x="175.898036" xlink:href="#mc686d7d77f" y="269.172"/>
     <use style="fill:#ff0000;stroke:#ff0000;" x="181.327042" xlink:href="#mc686d7d77f" y="269.172"/>
     <use style="fill:#ff0000;stroke:#ff0000;" x="186.756047" xlink:href="#mc686d7d77f" y="269.172"/>
     <use style="fill:#ff0000;stroke:#ff0000;" x="192.185053" xlink:href="#mc686d7d77f" y="269.172"/>
     <use style="fill:#ff0000;stroke:#ff0000;" x="197.614059" xlink:href="#mc686d7d77f" y="269.172"/>
     <use style="fill:#ff0000;stroke:#ff0000;" x="203.043065" xlink:href="#mc686d7d77f" y="265.212"/>
     <use style="fill:#ff0000;stroke:#ff0000;" x="208.472071" xlink:href="#mc686d7d77f" y="261.252"/>
     <use style="fill:#ff0000;stroke:#ff0000;" x="213.901076" xlink:href="#mc686d7d77f" y="273.132"/>
     <use style="fill:#ff0000;stroke:#ff0000;" x="219.330082" xlink:href="#mc686d7d77f" y="265.212"/>
     <use style="fill:#ff0000;stroke:#ff0000;" x="224.759088" xlink:href="#mc686d7d77f" y="273.132"/>
     <use style="fill:#ff0000;stroke:#ff0000;" x="230.188094" xlink:href="#mc686d7d77f" y="265.212"/>
     <use style="fill:#ff0000;stroke:#ff0000;" x="235.617099" xlink:href="#mc686d7d77f" y="273.132"/>
     <use style="fill:#ff0000;stroke:#ff0000;" x="241.046105" xlink:href="#mc686d7d77f" y="273.132"/>
     <use style="fill:#ff0000;stroke:#ff0000;" x="246.475111" xlink:href="#mc686d7d77f" y="269.172"/>
     <use style="fill:#ff0000;stroke:#ff0000;" x="251.904117" xlink:href="#mc686d7d77f" y="269.172"/>
     <use style="fill:#ff0000;stroke:#ff0000;" x="257.333123" xlink:href="#mc686d7d77f" y="265.212"/>
     <use style="fill:#ff0000;stroke:#ff0000;" x="262.762128" xlink:href="#mc686d7d77f" y="269.172"/>
     <use style="fill:#ff0000;stroke:#ff0000;" x="268.191134" xlink:href="#mc686d7d77f" y="273.132"/>
     <use style="fill:#ff0000;stroke:#ff0000;" x="273.62014" xlink:href="#mc686d7d77f" y="265.212"/>
     <use style="fill:#ff0000;stroke:#ff0000;" x="279.049146" xlink:href="#mc686d7d77f" y="273.132"/>
     <use style="fill:#ff0000;stroke:#ff0000;" x="284.478151" xlink:href="#mc686d7d77f" y="265.212"/>
     <use style="fill:#ff0000;stroke:#ff0000;" x="289.907157" xlink:href="#mc686d7d77f" y="261.252"/>
     <use style="fill:#ff0000;stroke:#ff0000;" x="295.336163" xlink:href="#mc686d7d77f" y="253.332"/>
     <use style="fill:#ff0000;stroke:#ff0000;" x="300.765169" xlink:href="#mc686d7d77f" y="261.252"/>
     <use style="fill:#ff0000;stroke:#ff0000;" x="306.194175" xlink:href="#mc686d7d77f" y="253.332"/>
     <use style="fill:#ff0000;stroke:#ff0000;" x="311.62318" xlink:href="#mc686d7d77f" y="249.372"/>
     <use style="fill:#ff0000;stroke:#ff0000;" x="317.052186" xlink:href="#mc686d7d77f" y="261.252"/>
     <use style="fill:#ff0000;stroke:#ff0000;" x="322.481192" xlink:href="#mc686d7d77f" y="261.252"/>
     <use style="fill:#ff0000;stroke:#ff0000;" x="327.910198" xlink:href="#mc686d7d77f" y="253.332"/>
     <use style="fill:#ff0000;stroke:#ff0000;" x="333.339203" xlink:href="#mc686d7d77f" y="249.372"/>
     <use style="fill:#ff0000;stroke:#ff0000;" x="338.768209" xlink:href="#mc686d7d77f" y="249.372"/>
     <use style="fill:#ff0000;stroke:#ff0000;" x="344.197215" xlink:href="#mc686d7d77f" y="253.332"/>
     <use style="fill:#ff0000;stroke:#ff0000;" x="349.626221" xlink:href="#mc686d7d77f" y="257.292"/>
     <use style="fill:#ff0000;stroke:#ff0000;" x="355.055227" xlink:href="#mc686d7d77f" y="253.332"/>
     <use style="fill:#ff0000;stroke:#ff0000;" x="360.484232" xlink:href="#mc686d7d77f" y="253.332"/>
     <use style="fill:#ff0000;stroke:#ff0000;" x="365.913238" xlink:href="#mc686d7d77f" y="253.332"/>
     <use style="fill:#ff0000;stroke:#ff0000;" x="371.342244" xlink:href="#mc686d7d77f" y="249.372"/>
     <use style="fill:#ff0000;stroke:#ff0000;" x="376.77125" xlink:href="#mc686d7d77f" y="253.332"/>
     <use style="fill:#ff0000;stroke:#ff0000;" x="382.200255" xlink:href="#mc686d7d77f" y="257.292"/>
     <use style="fill:#ff0000;stroke:#ff0000;" x="387.629261" xlink:href="#mc686d7d77f" y="253.332"/>
     <use style="fill:#ff0000;stroke:#ff0000;" x="393.058267" xlink:href="#mc686d7d77f" y="261.252"/>
     <use style="fill:#ff0000;stroke:#ff0000;" x="398.487273" xlink:href="#mc686d7d77f" y="281.052"/>
    </g>
   </g>
   <g id="patch_3">
    <path d="M 57.6 307.584 
L 57.6 41.472 
" style="fill:none;stroke:#000000;stroke-linecap:square;stroke-linejoin:miter;stroke-width:0.8;"/>
   </g>
   <g id="patch_4">
    <path d="M 414.72 307.584 
L 414.72 41.472 
" style="fill:none;stroke:#000000;stroke-linecap:square;stroke-linejoin:miter;stroke-width:0.8;"/>
   </g>
   <g id="patch_5">
    <path d="M 57.6 307.584 
L 414.72 307.584 
" style="fill:none;stroke:#000000;stroke-linecap:square;stroke-linejoin:miter;stroke-width:0.8;"/>
   </g>
   <g id="patch_6">
    <path d="M 57.6 41.472 
L 414.72 41.472 
" style="fill:none;stroke:#000000;stroke-linecap:square;stroke-linejoin:miter;stroke-width:0.8;"/>
   </g>
   <g id="legend_1">
    <g id="patch_7">
     <path d="M 346.47 78.82825 
L 407.72 78.82825 
Q 409.72 78.82825 409.72 76.82825 
L 409.72 48.472 
Q 409.72 46.472 407.72 46.472 
L 346.47 46.472 
Q 344.47 46.472 344.47 48.472 
L 344.47 76.82825 
Q 344.47 78.82825 346.47 78.82825 
z
" style="fill:#ffffff;opacity:0.8;stroke:#cccccc;stroke-linejoin:miter;"/>
    </g>
    <g id="line2d_30">
     <path d="M 348.47 54.570437 
L 368.47 54.570437 
" style="fill:none;stroke:#0000ff;stroke-linecap:square;"/>
    </g>
    <g id="line2d_31">
     <g>
      <use style="fill:#0000ff;stroke:#0000ff;" x="358.47" xlink:href="#m37381591ef" y="54.570437"/>
     </g>
    </g>
    <g id="text_30">
     <!-- OLSR -->
     <defs>
      <path d="M 39.40625 66.21875 
Q 28.65625 66.21875 22.328125 58.203125 
Q 16.015625 50.203125 16.015625 36.375 
Q 16.015625 22.609375 22.328125 14.59375 
Q 28.65625 6.59375 39.40625 6.59375 
Q 50.140625 6.59375 56.421875 14.59375 
Q 62.703125 22.609375 62.703125 36.375 
Q 62.703125 50.203125 56.421875 58.203125 
Q 50.140625 66.21875 39.40625 66.21875 
z
M 39.40625 74.21875 
Q 54.734375 74.21875 63.90625 63.9375 
Q 73.09375 53.65625 73.09375 36.375 
Q 73.09375 19.140625 63.90625 8.859375 
Q 54.734375 -1.421875 39.40625 -1.421875 
Q 24.03125 -1.421875 14.8125 8.828125 
Q 5.609375 19.09375 5.609375 36.375 
Q 5.609375 53.65625 14.8125 63.9375 
Q 24.03125 74.21875 39.40625 74.21875 
z
" id="DejaVuSans-79"/>
      <path d="M 9.8125 72.90625 
L 19.671875 72.90625 
L 19.671875 8.296875 
L 55.171875 8.296875 
L 55.171875 0 
L 9.8125 0 
z
" id="DejaVuSans-76"/>
      <path d="M 53.515625 70.515625 
L 53.515625 60.890625 
Q 47.90625 63.578125 42.921875 64.890625 
Q 37.9375 66.21875 33.296875 66.21875 
Q 25.25 66.21875 20.875 63.09375 
Q 16.5 59.96875 16.5 54.203125 
Q 16.5 49.359375 19.40625 46.890625 
Q 22.3125 44.4375 30.421875 42.921875 
L 36.375 41.703125 
Q 47.40625 39.59375 52.65625 34.296875 
Q 57.90625 29 57.90625 20.125 
Q 57.90625 9.515625 50.796875 4.046875 
Q 43.703125 -1.421875 29.984375 -1.421875 
Q 24.8125 -1.421875 18.96875 -0.25 
Q 13.140625 0.921875 6.890625 3.21875 
L 6.890625 13.375 
Q 12.890625 10.015625 18.65625 8.296875 
Q 24.421875 6.59375 29.984375 6.59375 
Q 38.421875 6.59375 43.015625 9.90625 
Q 47.609375 13.234375 47.609375 19.390625 
Q 47.609375 24.75 44.3125 27.78125 
Q 41.015625 30.8125 33.5 32.328125 
L 27.484375 33.5 
Q 16.453125 35.6875 11.515625 40.375 
Q 6.59375 45.0625 6.59375 53.421875 
Q 6.59375 63.09375 13.40625 68.65625 
Q 20.21875 74.21875 32.171875 74.21875 
Q 37.3125 74.21875 42.625 73.28125 
Q 47.953125 72.359375 53.515625 70.515625 
z
" id="DejaVuSans-83"/>
     </defs>
     <g transform="translate(376.47 58.070437)scale(0.1 -0.1)">
      <use xlink:href="#DejaVuSans-79"/>
      <use x="78.710938" xlink:href="#DejaVuSans-76"/>
      <use x="134.423828" xlink:href="#DejaVuSans-83"/>
      <use x="197.900391" xlink:href="#DejaVuSans-82"/>
     </g>
    </g>
    <g id="line2d_32">
     <path d="M 348.47 69.248562 
L 368.47 69.248562 
" style="fill:none;stroke:#ff0000;stroke-linecap:square;"/>
    </g>
    <g id="line2d_33">
     <g>
      <use style="fill:#ff0000;stroke:#ff0000;" x="358.47" xlink:href="#mc686d7d77f" y="69.248562"/>
     </g>
    </g>
    <g id="text_31">
     <!-- AODV -->
     <defs>
      <path d="M 34.1875 63.1875 
L 20.796875 26.90625 
L 47.609375 26.90625 
z
M 28.609375 72.90625 
L 39.796875 72.90625 
L 67.578125 0 
L 57.328125 0 
L 50.6875 18.703125 
L 17.828125 18.703125 
L 11.1875 0 
L 0.78125 0 
z
" id="DejaVuSans-65"/>
     </defs>
     <g transform="translate(376.47 72.748562)scale(0.1 -0.1)">
      <use xlink:href="#DejaVuSans-65"/>
      <use x="68.392578" xlink:href="#DejaVuSans-79"/>
      <use x="147.103516" xlink:href="#DejaVuSans-68"/>
      <use x="224.089844" xlink:href="#DejaVuSans-86"/>
     </g>
    </g>
   </g>
  </g>
  <g id="text_32">
   <!-- PDR en fonction de la vitesse maximale -->
   <defs>
    <path d="M 54.890625 33.015625 
L 54.890625 0 
L 45.90625 0 
L 45.90625 32.71875 
Q 45.90625 40.484375 42.875 44.328125 
Q 39.84375 48.1875 33.796875 48.1875 
Q 26.515625 48.1875 22.3125 43.546875 
Q 18.109375 38.921875 18.109375 30.90625 
L 18.109375 0 
L 9.078125 0 
L 9.078125 54.6875 
L 18.109375 54.6875 
L 18.109375 46.1875 
Q 21.34375 51.125 25.703125 53.5625 
Q 30.078125 56 35.796875 56 
Q 45.21875 56 50.046875 50.171875 
Q 54.890625 44.34375 54.890625 33.015625 
z
" id="DejaVuSans-110"/>
    <path d="M 37.109375 75.984375 
L 37.109375 68.5 
L 28.515625 68.5 
Q 23.6875 68.5 21.796875 66.546875 
Q 19.921875 64.59375 19.921875 59.515625 
L 19.921875 54.6875 
L 34.71875 54.6875 
L 34.71875 47.703125 
L 19.921875 47.703125 
L 19.921875 0 
L 10.890625 0 
L 10.890625 47.703125 
L 2.296875 47.703125 
L 2.296875 54.6875 
L 10.890625 54.6875 
L 10.890625 58.5 
Q 10.890625 67.625 15.140625 71.796875 
Q 19.390625 75.984375 28.609375 75.984375 
z
" id="DejaVuSans-102"/>
    <path d="M 30.609375 48.390625 
Q 23.390625 48.390625 19.1875 42.75 
Q 14.984375 37.109375 14.984375 27.296875 
Q 14.984375 17.484375 19.15625 11.84375 
Q 23.34375 6.203125 30.609375 6.203125 
Q 37.796875 6.203125 41.984375 11.859375 
Q 46.1875 17.53125 46.1875 27.296875 
Q 46.1875 37.015625 41.984375 42.703125 
Q 37.796875 48.390625 30.609375 48.390625 
z
M 30.609375 56 
Q 42.328125 56 49.015625 48.375 
Q 55.71875 40.765625 55.71875 27.296875 
Q 55.71875 13.875 49.015625 6.21875 
Q 42.328125 -1.421875 30.609375 -1.421875 
Q 18.84375 -1.421875 12.171875 6.21875 
Q 5.515625 13.875 5.515625 27.296875 
Q 5.515625 40.765625 12.171875 48.375 
Q 18.84375 56 30.609375 56 
z
" id="DejaVuSans-111"/>
    <path d="M 48.78125 52.59375 
L 48.78125 44.1875 
Q 44.96875 46.296875 41.140625 47.34375 
Q 37.3125 48.390625 33.40625 48.390625 
Q 24.65625 48.390625 19.8125 42.84375 
Q 14.984375 37.3125 14.984375 27.296875 
Q 14.984375 17.28125 19.8125 11.734375 
Q 24.65625 6.203125 33.40625 6.203125 
Q 37.3125 6.203125 41.140625 7.25 
Q 44.96875 8.296875 48.78125 10.40625 
L 48.78125 2.09375 
Q 45.015625 0.34375 40.984375 -0.53125 
Q 36.96875 -1.421875 32.421875 -1.421875 
Q 20.0625 -1.421875 12.78125 6.34375 
Q 5.515625 14.109375 5.515625 27.296875 
Q 5.515625 40.671875 12.859375 48.328125 
Q 20.21875 56 33.015625 56 
Q 37.15625 56 41.109375 55.140625 
Q 45.0625 54.296875 48.78125 52.59375 
z
" id="DejaVuSans-99"/>
    <path d="M 45.40625 46.390625 
L 45.40625 75.984375 
L 54.390625 75.984375 
L 54.390625 0 
L 45.40625 0 
L 45.40625 8.203125 
Q 42.578125 3.328125 38.25 0.953125 
Q 33.9375 -1.421875 27.875 -1.421875 
Q 17.96875 -1.421875 11.734375 6.484375 
Q 5.515625 14.40625 5.515625 27.296875 
Q 5.515625 40.1875 11.734375 48.09375 
Q 17.96875 56 27.875 56 
Q 33.9375 56 38.25 53.625 
Q 42.578125 51.265625 45.40625 46.390625 
z
M 14.796875 27.296875 
Q 14.796875 17.390625 18.875 11.75 
Q 22.953125 6.109375 30.078125 6.109375 
Q 37.203125 6.109375 41.296875 11.75 
Q 45.40625 17.390625 45.40625 27.296875 
Q 45.40625 37.203125 41.296875 42.84375 
Q 37.203125 48.484375 30.078125 48.484375 
Q 22.953125 48.484375 18.875 42.84375 
Q 14.796875 37.203125 14.796875 27.296875 
z
" id="DejaVuSans-100"/>
    <path d="M 9.421875 75.984375 
L 18.40625 75.984375 
L 18.40625 0 
L 9.421875 0 
z
" id="DejaVuSans-108"/>
    <path d="M 2.984375 54.6875 
L 12.5 54.6875 
L 29.59375 8.796875 
L 46.6875 54.6875 
L 56.203125 54.6875 
L 35.6875 0 
L 23.484375 0 
z
" id="DejaVuSans-118"/>
   </defs>
   <g transform="translate(111.010313 16.030125)scale(0.12 -0.12)">
    <use xlink:href="#DejaVuSans-80"/>
    <use x="60.302734" xlink:href="#DejaVuSans-68"/>
    <use x="137.304688" xlink:href="#DejaVuSans-82"/>
    <use x="206.787109" xlink:href="#DejaVuSans-32"/>
    <use x="238.574219" xlink:href="#DejaVuSans-101"/>
    <use x="300.097656" xlink:href="#DejaVuSans-110"/>
    <use x="363.476562" xlink:href="#DejaVuSans-32"/>
    <use x="395.263672" xlink:href="#DejaVuSans-102"/>
    <use x="430.46875" xlink:href="#DejaVuSans-111"/>
    <use x="491.650391" xlink:href="#DejaVuSans-110"/>
    <use x="555.029297" xlink:href="#DejaVuSans-99"/>
    <use x="610.009766" xlink:href="#DejaVuSans-116"/>
    <use x="649.21875" xlink:href="#DejaVuSans-105"/>
    <use x="677.001953" xlink:href="#DejaVuSans-111"/>
    <use x="738.183594" xlink:href="#DejaVuSans-110"/>
    <use x="801.5625" xlink:href="#DejaVuSans-32"/>
    <use x="833.349609" xlink:href="#DejaVuSans-100"/>
    <use x="896.826172" xlink:href="#DejaVuSans-101"/>
    <use x="958.349609" xlink:href="#DejaVuSans-32"/>
    <use x="990.136719" xlink:href="#DejaVuSans-108"/>
    <use x="1017.919922" xlink:href="#DejaVuSans-97"/>
    <use x="1079.199219" xlink:href="#DejaVuSans-32"/>
    <use x="1110.986328" xlink:href="#DejaVuSans-118"/>
    <use x="1170.166016" xlink:href="#DejaVuSans-105"/>
    <use x="1197.949219" xlink:href="#DejaVuSans-116"/>
    <use x="1237.158203" xlink:href="#DejaVuSans-101"/>
    <use x="1298.681641" xlink:href="#DejaVuSans-115"/>
    <use x="1350.78125" xlink:href="#DejaVuSans-115"/>
    <use x="1402.880859" xlink:href="#DejaVuSans-101"/>
    <use x="1464.404297" xlink:href="#DejaVuSans-32"/>
    <use x="1496.191406" xlink:href="#DejaVuSans-109"/>
    <use x="1593.603516" xlink:href="#DejaVuSans-97"/>
    <use x="1654.882812" xlink:href="#DejaVuSans-120"/>
    <use x="1714.0625" xlink:href="#DejaVuSans-105"/>
    <use x="1741.845703" xlink:href="#DejaVuSans-109"/>
    <use x="1839.257812" xlink:href="#DejaVuSans-97"/>
    <use x="1900.537109" xlink:href="#DejaVuSans-108"/>
    <use x="1928.320312" xlink:href="#DejaVuSans-101"/>
   </g>
  </g>
 </g>
 <defs>
  <clipPath id="pac628492b1">
   <rect height="266.112" width="357.12" x="57.6" y="41.472"/>
  </clipPath>
 </defs>
</svg>
