<?xml version="1.0" encoding="utf-8" standalone="no"?>
<!DOCTYPE svg PUBLIC "-//W3C//DTD SVG 1.1//EN"
  "http://www.w3.org/Graphics/SVG/1.1/DTD/svg11.dtd">
<!-- Created with matplotlib (https://matplotlib.org/) -->
<svg height="345.6pt" version="1.1" viewBox="0 0 460.8 345.6" width="460.8pt" xmlns="http://www.w3.org/2000/svg" xmlns:xlink="http://www.w3.org/1999/xlink">
 <defs>
  <style type="text/css">
*{stroke-linecap:butt;stroke-linejoin:round;}
  </style>
 </defs>
 <g id="figure_1">
  <g id="patch_1">
   <path d="M 0 345.6 
L 460.8 345.6 
L 460.8 0 
L 0 0 
z
" style="fill:#ffffff;"/>
  </g>
  <g id="axes_1">
   <g id="patch_2">
    <path d="M 57.6 307.584 
L 414.72 307.584 
L 414.72 41.472 
L 57.6 41.472 
z
" style="fill:#ffffff;"/>
   </g>
   <g id="matplotlib.axis_1">
    <g id="xtick_1">
     <g id="line2d_1">
      <defs>
       <path d="M 0 0 
L 0 3.5 
" id="ma73d508a10" style="stroke:#000000;stroke-width:0.8;"/>
      </defs>
      <g>
       <use style="stroke:#000000;stroke-width:0.8;" x="65.508252" xlink:href="#ma73d508a10" y="307.584"/>
      </g>
     </g>
     <g id="text_1">
      <!-- 0.0 -->
      <defs>
       <path d="M 31.78125 66.40625 
Q 24.171875 66.40625 20.328125 58.90625 
Q 16.5 51.421875 16.5 36.375 
Q 16.5 21.390625 20.328125 13.890625 
Q 24.171875 6.390625 31.78125 6.390625 
Q 39.453125 6.390625 43.28125 13.890625 
Q 47.125 21.390625 47.125 36.375 
Q 47.125 51.421875 43.28125 58.90625 
Q 39.453125 66.40625 31.78125 66.40625 
z
M 31.78125 74.21875 
Q 44.046875 74.21875 50.515625 64.515625 
Q 56.984375 54.828125 56.984375 36.375 
Q 56.984375 17.96875 50.515625 8.265625 
Q 44.046875 -1.421875 31.78125 -1.421875 
Q 19.53125 -1.421875 13.0625 8.265625 
Q 6.59375 17.96875 6.59375 36.375 
Q 6.59375 54.828125 13.0625 64.515625 
Q 19.53125 74.21875 31.78125 74.21875 
z
" id="DejaVuSans-48"/>
       <path d="M 10.6875 12.40625 
L 21 12.40625 
L 21 0 
L 10.6875 0 
z
" id="DejaVuSans-46"/>
      </defs>
      <g transform="translate(57.556689 322.182437)scale(0.1 -0.1)">
       <use xlink:href="#DejaVuSans-48"/>
       <use x="63.623047" xlink:href="#DejaVuSans-46"/>
       <use x="95.410156" xlink:href="#DejaVuSans-48"/>
      </g>
     </g>
    </g>
    <g id="xtick_2">
     <g id="line2d_2">
      <g>
       <use style="stroke:#000000;stroke-width:0.8;" x="107.130629" xlink:href="#ma73d508a10" y="307.584"/>
      </g>
     </g>
     <g id="text_2">
      <!-- 0.5 -->
      <defs>
       <path d="M 10.796875 72.90625 
L 49.515625 72.90625 
L 49.515625 64.59375 
L 19.828125 64.59375 
L 19.828125 46.734375 
Q 21.96875 47.46875 24.109375 47.828125 
Q 26.265625 48.1875 28.421875 48.1875 
Q 40.625 48.1875 47.75 41.5 
Q 54.890625 34.8125 54.890625 23.390625 
Q 54.890625 11.625 47.5625 5.09375 
Q 40.234375 -1.421875 26.90625 -1.421875 
Q 22.3125 -1.421875 17.546875 -0.640625 
Q 12.796875 0.140625 7.71875 1.703125 
L 7.71875 11.625 
Q 12.109375 9.234375 16.796875 8.0625 
Q 21.484375 6.890625 26.703125 6.890625 
Q 35.15625 6.890625 40.078125 11.328125 
Q 45.015625 15.765625 45.015625 23.390625 
Q 45.015625 31 40.078125 35.4375 
Q 35.15625 39.890625 26.703125 39.890625 
Q 22.75 39.890625 18.8125 39.015625 
Q 14.890625 38.140625 10.796875 36.28125 
z
" id="DejaVuSans-53"/>
      </defs>
      <g transform="translate(99.179067 322.182437)scale(0.1 -0.1)">
       <use xlink:href="#DejaVuSans-48"/>
       <use x="63.623047" xlink:href="#DejaVuSans-46"/>
       <use x="95.410156" xlink:href="#DejaVuSans-53"/>
      </g>
     </g>
    </g>
    <g id="xtick_3">
     <g id="line2d_3">
      <g>
       <use style="stroke:#000000;stroke-width:0.8;" x="148.753007" xlink:href="#ma73d508a10" y="307.584"/>
      </g>
     </g>
     <g id="text_3">
      <!-- 1.0 -->
      <defs>
       <path d="M 12.40625 8.296875 
L 28.515625 8.296875 
L 28.515625 63.921875 
L 10.984375 60.40625 
L 10.984375 69.390625 
L 28.421875 72.90625 
L 38.28125 72.90625 
L 38.28125 8.296875 
L 54.390625 8.296875 
L 54.390625 0 
L 12.40625 0 
z
" id="DejaVuSans-49"/>
      </defs>
      <g transform="translate(140.801444 322.182437)scale(0.1 -0.1)">
       <use xlink:href="#DejaVuSans-49"/>
       <use x="63.623047" xlink:href="#DejaVuSans-46"/>
       <use x="95.410156" xlink:href="#DejaVuSans-48"/>
      </g>
     </g>
    </g>
    <g id="xtick_4">
     <g id="line2d_4">
      <g>
       <use style="stroke:#000000;stroke-width:0.8;" x="190.375385" xlink:href="#ma73d508a10" y="307.584"/>
      </g>
     </g>
     <g id="text_4">
      <!-- 1.5 -->
      <g transform="translate(182.423822 322.182437)scale(0.1 -0.1)">
       <use xlink:href="#DejaVuSans-49"/>
       <use x="63.623047" xlink:href="#DejaVuSans-46"/>
       <use x="95.410156" xlink:href="#DejaVuSans-53"/>
      </g>
     </g>
    </g>
    <g id="xtick_5">
     <g id="line2d_5">
      <g>
       <use style="stroke:#000000;stroke-width:0.8;" x="231.997762" xlink:href="#ma73d508a10" y="307.584"/>
      </g>
     </g>
     <g id="text_5">
      <!-- 2.0 -->
      <defs>
       <path d="M 19.1875 8.296875 
L 53.609375 8.296875 
L 53.609375 0 
L 7.328125 0 
L 7.328125 8.296875 
Q 12.9375 14.109375 22.625 23.890625 
Q 32.328125 33.6875 34.8125 36.53125 
Q 39.546875 41.84375 41.421875 45.53125 
Q 43.3125 49.21875 43.3125 52.78125 
Q 43.3125 58.59375 39.234375 62.25 
Q 35.15625 65.921875 28.609375 65.921875 
Q 23.96875 65.921875 18.8125 64.3125 
Q 13.671875 62.703125 7.8125 59.421875 
L 7.8125 69.390625 
Q 13.765625 71.78125 18.9375 73 
Q 24.125 74.21875 28.421875 74.21875 
Q 39.75 74.21875 46.484375 68.546875 
Q 53.21875 62.890625 53.21875 53.421875 
Q 53.21875 48.921875 51.53125 44.890625 
Q 49.859375 40.875 45.40625 35.40625 
Q 44.1875 33.984375 37.640625 27.21875 
Q 31.109375 20.453125 19.1875 8.296875 
z
" id="DejaVuSans-50"/>
      </defs>
      <g transform="translate(224.0462 322.182437)scale(0.1 -0.1)">
       <use xlink:href="#DejaVuSans-50"/>
       <use x="63.623047" xlink:href="#DejaVuSans-46"/>
       <use x="95.410156" xlink:href="#DejaVuSans-48"/>
      </g>
     </g>
    </g>
    <g id="xtick_6">
     <g id="line2d_6">
      <g>
       <use style="stroke:#000000;stroke-width:0.8;" x="273.62014" xlink:href="#ma73d508a10" y="307.584"/>
      </g>
     </g>
     <g id="text_6">
      <!-- 2.5 -->
      <g transform="translate(265.668577 322.182437)scale(0.1 -0.1)">
       <use xlink:href="#DejaVuSans-50"/>
       <use x="63.623047" xlink:href="#DejaVuSans-46"/>
       <use x="95.410156" xlink:href="#DejaVuSans-53"/>
      </g>
     </g>
    </g>
    <g id="xtick_7">
     <g id="line2d_7">
      <g>
       <use style="stroke:#000000;stroke-width:0.8;" x="315.242517" xlink:href="#ma73d508a10" y="307.584"/>
      </g>
     </g>
     <g id="text_7">
      <!-- 3.0 -->
      <defs>
       <path d="M 40.578125 39.3125 
Q 47.65625 37.796875 51.625 33 
Q 55.609375 28.21875 55.609375 21.1875 
Q 55.609375 10.40625 48.1875 4.484375 
Q 40.765625 -1.421875 27.09375 -1.421875 
Q 22.515625 -1.421875 17.65625 -0.515625 
Q 12.796875 0.390625 7.625 2.203125 
L 7.625 11.71875 
Q 11.71875 9.328125 16.59375 8.109375 
Q 21.484375 6.890625 26.8125 6.890625 
Q 36.078125 6.890625 40.9375 10.546875 
Q 45.796875 14.203125 45.796875 21.1875 
Q 45.796875 27.640625 41.28125 31.265625 
Q 36.765625 34.90625 28.71875 34.90625 
L 20.21875 34.90625 
L 20.21875 43.015625 
L 29.109375 43.015625 
Q 36.375 43.015625 40.234375 45.921875 
Q 44.09375 48.828125 44.09375 54.296875 
Q 44.09375 59.90625 40.109375 62.90625 
Q 36.140625 65.921875 28.71875 65.921875 
Q 24.65625 65.921875 20.015625 65.03125 
Q 15.375 64.15625 9.8125 62.3125 
L 9.8125 71.09375 
Q 15.4375 72.65625 20.34375 73.4375 
Q 25.25 74.21875 29.59375 74.21875 
Q 40.828125 74.21875 47.359375 69.109375 
Q 53.90625 64.015625 53.90625 55.328125 
Q 53.90625 49.265625 50.4375 45.09375 
Q 46.96875 40.921875 40.578125 39.3125 
z
" id="DejaVuSans-51"/>
      </defs>
      <g transform="translate(307.290955 322.182437)scale(0.1 -0.1)">
       <use xlink:href="#DejaVuSans-51"/>
       <use x="63.623047" xlink:href="#DejaVuSans-46"/>
       <use x="95.410156" xlink:href="#DejaVuSans-48"/>
      </g>
     </g>
    </g>
    <g id="xtick_8">
     <g id="line2d_8">
      <g>
       <use style="stroke:#000000;stroke-width:0.8;" x="356.864895" xlink:href="#ma73d508a10" y="307.584"/>
      </g>
     </g>
     <g id="text_8">
      <!-- 3.5 -->
      <g transform="translate(348.913333 322.182437)scale(0.1 -0.1)">
       <use xlink:href="#DejaVuSans-51"/>
       <use x="63.623047" xlink:href="#DejaVuSans-46"/>
       <use x="95.410156" xlink:href="#DejaVuSans-53"/>
      </g>
     </g>
    </g>
    <g id="xtick_9">
     <g id="line2d_9">
      <g>
       <use style="stroke:#000000;stroke-width:0.8;" x="398.487273" xlink:href="#ma73d508a10" y="307.584"/>
      </g>
     </g>
     <g id="text_9">
      <!-- 4.0 -->
      <defs>
       <path d="M 37.796875 64.3125 
L 12.890625 25.390625 
L 37.796875 25.390625 
z
M 35.203125 72.90625 
L 47.609375 72.90625 
L 47.609375 25.390625 
L 58.015625 25.390625 
L 58.015625 17.1875 
L 47.609375 17.1875 
L 47.609375 0 
L 37.796875 0 
L 37.796875 17.1875 
L 4.890625 17.1875 
L 4.890625 26.703125 
z
" id="DejaVuSans-52"/>
      </defs>
      <g transform="translate(390.53571 322.182437)scale(0.1 -0.1)">
       <use xlink:href="#DejaVuSans-52"/>
       <use x="63.623047" xlink:href="#DejaVuSans-46"/>
       <use x="95.410156" xlink:href="#DejaVuSans-48"/>
      </g>
     </g>
    </g>
    <g id="text_10">
     <!-- Débit source (Mbps) -->
     <defs>
      <path d="M 19.671875 64.796875 
L 19.671875 8.109375 
L 31.59375 8.109375 
Q 46.6875 8.109375 53.6875 14.9375 
Q 60.6875 21.78125 60.6875 36.53125 
Q 60.6875 51.171875 53.6875 57.984375 
Q 46.6875 64.796875 31.59375 64.796875 
z
M 9.8125 72.90625 
L 30.078125 72.90625 
Q 51.265625 72.90625 61.171875 64.09375 
Q 71.09375 55.28125 71.09375 36.53125 
Q 71.09375 17.671875 61.125 8.828125 
Q 51.171875 0 30.078125 0 
L 9.8125 0 
z
" id="DejaVuSans-68"/>
      <path d="M 56.203125 29.59375 
L 56.203125 25.203125 
L 14.890625 25.203125 
Q 15.484375 15.921875 20.484375 11.0625 
Q 25.484375 6.203125 34.421875 6.203125 
Q 39.59375 6.203125 44.453125 7.46875 
Q 49.3125 8.734375 54.109375 11.28125 
L 54.109375 2.78125 
Q 49.265625 0.734375 44.1875 -0.34375 
Q 39.109375 -1.421875 33.890625 -1.421875 
Q 20.796875 -1.421875 13.15625 6.1875 
Q 5.515625 13.8125 5.515625 26.8125 
Q 5.515625 40.234375 12.765625 48.109375 
Q 20.015625 56 32.328125 56 
Q 43.359375 56 49.78125 48.890625 
Q 56.203125 41.796875 56.203125 29.59375 
z
M 47.21875 32.234375 
Q 47.125 39.59375 43.09375 43.984375 
Q 39.0625 48.390625 32.421875 48.390625 
Q 24.90625 48.390625 20.390625 44.140625 
Q 15.875 39.890625 15.1875 32.171875 
z
M 38.53125 79.984375 
L 48.25 79.984375 
L 32.34375 61.625 
L 24.859375 61.625 
z
" id="DejaVuSans-233"/>
      <path d="M 48.6875 27.296875 
Q 48.6875 37.203125 44.609375 42.84375 
Q 40.53125 48.484375 33.40625 48.484375 
Q 26.265625 48.484375 22.1875 42.84375 
Q 18.109375 37.203125 18.109375 27.296875 
Q 18.109375 17.390625 22.1875 11.75 
Q 26.265625 6.109375 33.40625 6.109375 
Q 40.53125 6.109375 44.609375 11.75 
Q 48.6875 17.390625 48.6875 27.296875 
z
M 18.109375 46.390625 
Q 20.953125 51.265625 25.265625 53.625 
Q 29.59375 56 35.59375 56 
Q 45.5625 56 51.78125 48.09375 
Q 58.015625 40.1875 58.015625 27.296875 
Q 58.015625 14.40625 51.78125 6.484375 
Q 45.5625 -1.421875 35.59375 -1.421875 
Q 29.59375 -1.421875 25.265625 0.953125 
Q 20.953125 3.328125 18.109375 8.203125 
L 18.109375 0 
L 9.078125 0 
L 9.078125 75.984375 
L 18.109375 75.984375 
z
" id="DejaVuSans-98"/>
      <path d="M 9.421875 54.6875 
L 18.40625 54.6875 
L 18.40625 0 
L 9.421875 0 
z
M 9.421875 75.984375 
L 18.40625 75.984375 
L 18.40625 64.59375 
L 9.421875 64.59375 
z
" id="DejaVuSans-105"/>
      <path d="M 18.3125 70.21875 
L 18.3125 54.6875 
L 36.8125 54.6875 
L 36.8125 47.703125 
L 18.3125 47.703125 
L 18.3125 18.015625 
Q 18.3125 11.328125 20.140625 9.421875 
Q 21.96875 7.515625 27.59375 7.515625 
L 36.8125 7.515625 
L 36.8125 0 
L 27.59375 0 
Q 17.1875 0 13.234375 3.875 
Q 9.28125 7.765625 9.28125 18.015625 
L 9.28125 47.703125 
L 2.6875 47.703125 
L 2.6875 54.6875 
L 9.28125 54.6875 
L 9.28125 70.21875 
z
" id="DejaVuSans-116"/>
      <path id="DejaVuSans-32"/>
      <path d="M 44.28125 53.078125 
L 44.28125 44.578125 
Q 40.484375 46.53125 36.375 47.5 
Q 32.28125 48.484375 27.875 48.484375 
Q 21.1875 48.484375 17.84375 46.4375 
Q 14.5 44.390625 14.5 40.28125 
Q 14.5 37.15625 16.890625 35.375 
Q 19.28125 33.59375 26.515625 31.984375 
L 29.59375 31.296875 
Q 39.15625 29.25 43.1875 25.515625 
Q 47.21875 21.78125 47.21875 15.09375 
Q 47.21875 7.46875 41.1875 3.015625 
Q 35.15625 -1.421875 24.609375 -1.421875 
Q 20.21875 -1.421875 15.453125 -0.5625 
Q 10.6875 0.296875 5.421875 2 
L 5.421875 11.28125 
Q 10.40625 8.6875 15.234375 7.390625 
Q 20.0625 6.109375 24.8125 6.109375 
Q 31.15625 6.109375 34.5625 8.28125 
Q 37.984375 10.453125 37.984375 14.40625 
Q 37.984375 18.0625 35.515625 20.015625 
Q 33.0625 21.96875 24.703125 23.78125 
L 21.578125 24.515625 
Q 13.234375 26.265625 9.515625 29.90625 
Q 5.8125 33.546875 5.8125 39.890625 
Q 5.8125 47.609375 11.28125 51.796875 
Q 16.75 56 26.8125 56 
Q 31.78125 56 36.171875 55.265625 
Q 40.578125 54.546875 44.28125 53.078125 
z
" id="DejaVuSans-115"/>
      <path d="M 30.609375 48.390625 
Q 23.390625 48.390625 19.1875 42.75 
Q 14.984375 37.109375 14.984375 27.296875 
Q 14.984375 17.484375 19.15625 11.84375 
Q 23.34375 6.203125 30.609375 6.203125 
Q 37.796875 6.203125 41.984375 11.859375 
Q 46.1875 17.53125 46.1875 27.296875 
Q 46.1875 37.015625 41.984375 42.703125 
Q 37.796875 48.390625 30.609375 48.390625 
z
M 30.609375 56 
Q 42.328125 56 49.015625 48.375 
Q 55.71875 40.765625 55.71875 27.296875 
Q 55.71875 13.875 49.015625 6.21875 
Q 42.328125 -1.421875 30.609375 -1.421875 
Q 18.84375 -1.421875 12.171875 6.21875 
Q 5.515625 13.875 5.515625 27.296875 
Q 5.515625 40.765625 12.171875 48.375 
Q 18.84375 56 30.609375 56 
z
" id="DejaVuSans-111"/>
      <path d="M 8.5 21.578125 
L 8.5 54.6875 
L 17.484375 54.6875 
L 17.484375 21.921875 
Q 17.484375 14.15625 20.5 10.265625 
Q 23.53125 6.390625 29.59375 6.390625 
Q 36.859375 6.390625 41.078125 11.03125 
Q 45.3125 15.671875 45.3125 23.6875 
L 45.3125 54.6875 
L 54.296875 54.6875 
L 54.296875 0 
L 45.3125 0 
L 45.3125 8.40625 
Q 42.046875 3.421875 37.71875 1 
Q 33.40625 -1.421875 27.6875 -1.421875 
Q 18.265625 -1.421875 13.375 4.4375 
Q 8.5 10.296875 8.5 21.578125 
z
M 31.109375 56 
z
" id="DejaVuSans-117"/>
      <path d="M 41.109375 46.296875 
Q 39.59375 47.171875 37.8125 47.578125 
Q 36.03125 48 33.890625 48 
Q 26.265625 48 22.1875 43.046875 
Q 18.109375 38.09375 18.109375 28.8125 
L 18.109375 0 
L 9.078125 0 
L 9.078125 54.6875 
L 18.109375 54.6875 
L 18.109375 46.1875 
Q 20.953125 51.171875 25.484375 53.578125 
Q 30.03125 56 36.53125 56 
Q 37.453125 56 38.578125 55.875 
Q 39.703125 55.765625 41.0625 55.515625 
z
" id="DejaVuSans-114"/>
      <path d="M 48.78125 52.59375 
L 48.78125 44.1875 
Q 44.96875 46.296875 41.140625 47.34375 
Q 37.3125 48.390625 33.40625 48.390625 
Q 24.65625 48.390625 19.8125 42.84375 
Q 14.984375 37.3125 14.984375 27.296875 
Q 14.984375 17.28125 19.8125 11.734375 
Q 24.65625 6.203125 33.40625 6.203125 
Q 37.3125 6.203125 41.140625 7.25 
Q 44.96875 8.296875 48.78125 10.40625 
L 48.78125 2.09375 
Q 45.015625 0.34375 40.984375 -0.53125 
Q 36.96875 -1.421875 32.421875 -1.421875 
Q 20.0625 -1.421875 12.78125 6.34375 
Q 5.515625 14.109375 5.515625 27.296875 
Q 5.515625 40.671875 12.859375 48.328125 
Q 20.21875 56 33.015625 56 
Q 37.15625 56 41.109375 55.140625 
Q 45.0625 54.296875 48.78125 52.59375 
z
" id="DejaVuSans-99"/>
      <path d="M 56.203125 29.59375 
L 56.203125 25.203125 
L 14.890625 25.203125 
Q 15.484375 15.921875 20.484375 11.0625 
Q 25.484375 6.203125 34.421875 6.203125 
Q 39.59375 6.203125 44.453125 7.46875 
Q 49.3125 8.734375 54.109375 11.28125 
L 54.109375 2.78125 
Q 49.265625 0.734375 44.1875 -0.34375 
Q 39.109375 -1.421875 33.890625 -1.421875 
Q 20.796875 -1.421875 13.15625 6.1875 
Q 5.515625 13.8125 5.515625 26.8125 
Q 5.515625 40.234375 12.765625 48.109375 
Q 20.015625 56 32.328125 56 
Q 43.359375 56 49.78125 48.890625 
Q 56.203125 41.796875 56.203125 29.59375 
z
M 47.21875 32.234375 
Q 47.125 39.59375 43.09375 43.984375 
Q 39.0625 48.390625 32.421875 48.390625 
Q 24.90625 48.390625 20.390625 44.140625 
Q 15.875 39.890625 15.1875 32.171875 
z
" id="DejaVuSans-101"/>
      <path d="M 31 75.875 
Q 24.46875 64.65625 21.28125 53.65625 
Q 18.109375 42.671875 18.109375 31.390625 
Q 18.109375 20.125 21.3125 9.0625 
Q 24.515625 -2 31 -13.1875 
L 23.1875 -13.1875 
Q 15.875 -1.703125 12.234375 9.375 
Q 8.59375 20.453125 8.59375 31.390625 
Q 8.59375 42.28125 12.203125 53.3125 
Q 15.828125 64.359375 23.1875 75.875 
z
" id="DejaVuSans-40"/>
      <path d="M 9.8125 72.90625 
L 24.515625 72.90625 
L 43.109375 23.296875 
L 61.8125 72.90625 
L 76.515625 72.90625 
L 76.515625 0 
L 66.890625 0 
L 66.890625 64.015625 
L 48.09375 14.015625 
L 38.1875 14.015625 
L 19.390625 64.015625 
L 19.390625 0 
L 9.8125 0 
z
" id="DejaVuSans-77"/>
      <path d="M 18.109375 8.203125 
L 18.109375 -20.796875 
L 9.078125 -20.796875 
L 9.078125 54.6875 
L 18.109375 54.6875 
L 18.109375 46.390625 
Q 20.953125 51.265625 25.265625 53.625 
Q 29.59375 56 35.59375 56 
Q 45.5625 56 51.78125 48.09375 
Q 58.015625 40.1875 58.015625 27.296875 
Q 58.015625 14.40625 51.78125 6.484375 
Q 45.5625 -1.421875 35.59375 -1.421875 
Q 29.59375 -1.421875 25.265625 0.953125 
Q 20.953125 3.328125 18.109375 8.203125 
z
M 48.6875 27.296875 
Q 48.6875 37.203125 44.609375 42.84375 
Q 40.53125 48.484375 33.40625 48.484375 
Q 26.265625 48.484375 22.1875 42.84375 
Q 18.109375 37.203125 18.109375 27.296875 
Q 18.109375 17.390625 22.1875 11.75 
Q 26.265625 6.109375 33.40625 6.109375 
Q 40.53125 6.109375 44.609375 11.75 
Q 48.6875 17.390625 48.6875 27.296875 
z
" id="DejaVuSans-112"/>
      <path d="M 8.015625 75.875 
L 15.828125 75.875 
Q 23.140625 64.359375 26.78125 53.3125 
Q 30.421875 42.28125 30.421875 31.390625 
Q 30.421875 20.453125 26.78125 9.375 
Q 23.140625 -1.703125 15.828125 -13.1875 
L 8.015625 -13.1875 
Q 14.5 -2 17.703125 9.0625 
Q 20.90625 20.125 20.90625 31.390625 
Q 20.90625 42.671875 17.703125 53.65625 
Q 14.5 64.65625 8.015625 75.875 
z
" id="DejaVuSans-41"/>
     </defs>
     <g transform="translate(185.650625 336.260562)scale(0.1 -0.1)">
      <use xlink:href="#DejaVuSans-68"/>
      <use x="77.001953" xlink:href="#DejaVuSans-233"/>
      <use x="138.525391" xlink:href="#DejaVuSans-98"/>
      <use x="202.001953" xlink:href="#DejaVuSans-105"/>
      <use x="229.785156" xlink:href="#DejaVuSans-116"/>
      <use x="268.994141" xlink:href="#DejaVuSans-32"/>
      <use x="300.78125" xlink:href="#DejaVuSans-115"/>
      <use x="352.880859" xlink:href="#DejaVuSans-111"/>
      <use x="414.0625" xlink:href="#DejaVuSans-117"/>
      <use x="477.441406" xlink:href="#DejaVuSans-114"/>
      <use x="518.523438" xlink:href="#DejaVuSans-99"/>
      <use x="573.503906" xlink:href="#DejaVuSans-101"/>
      <use x="635.027344" xlink:href="#DejaVuSans-32"/>
      <use x="666.814453" xlink:href="#DejaVuSans-40"/>
      <use x="705.828125" xlink:href="#DejaVuSans-77"/>
      <use x="792.107422" xlink:href="#DejaVuSans-98"/>
      <use x="855.583984" xlink:href="#DejaVuSans-112"/>
      <use x="919.060547" xlink:href="#DejaVuSans-115"/>
      <use x="971.160156" xlink:href="#DejaVuSans-41"/>
     </g>
    </g>
   </g>
   <g id="matplotlib.axis_2">
    <g id="ytick_1">
     <g id="line2d_10">
      <defs>
       <path d="M 0 0 
L -3.5 0 
" id="ma04beda828" style="stroke:#000000;stroke-width:0.8;"/>
      </defs>
      <g>
       <use style="stroke:#000000;stroke-width:0.8;" x="57.6" xlink:href="#ma04beda828" y="306.220496"/>
      </g>
     </g>
     <g id="text_11">
      <!-- 0 -->
      <g transform="translate(44.2375 310.019714)scale(0.1 -0.1)">
       <use xlink:href="#DejaVuSans-48"/>
      </g>
     </g>
    </g>
    <g id="ytick_2">
     <g id="line2d_11">
      <g>
       <use style="stroke:#000000;stroke-width:0.8;" x="57.6" xlink:href="#ma04beda828" y="290.822367"/>
      </g>
     </g>
     <g id="text_12">
      <!-- 1000 -->
      <g transform="translate(25.15 294.621586)scale(0.1 -0.1)">
       <use xlink:href="#DejaVuSans-49"/>
       <use x="63.623047" xlink:href="#DejaVuSans-48"/>
       <use x="127.246094" xlink:href="#DejaVuSans-48"/>
       <use x="190.869141" xlink:href="#DejaVuSans-48"/>
      </g>
     </g>
    </g>
    <g id="ytick_3">
     <g id="line2d_12">
      <g>
       <use style="stroke:#000000;stroke-width:0.8;" x="57.6" xlink:href="#ma04beda828" y="275.424238"/>
      </g>
     </g>
     <g id="text_13">
      <!-- 2000 -->
      <g transform="translate(25.15 279.223457)scale(0.1 -0.1)">
       <use xlink:href="#DejaVuSans-50"/>
       <use x="63.623047" xlink:href="#DejaVuSans-48"/>
       <use x="127.246094" xlink:href="#DejaVuSans-48"/>
       <use x="190.869141" xlink:href="#DejaVuSans-48"/>
      </g>
     </g>
    </g>
    <g id="ytick_4">
     <g id="line2d_13">
      <g>
       <use style="stroke:#000000;stroke-width:0.8;" x="57.6" xlink:href="#ma04beda828" y="260.02611"/>
      </g>
     </g>
     <g id="text_14">
      <!-- 3000 -->
      <g transform="translate(25.15 263.825328)scale(0.1 -0.1)">
       <use xlink:href="#DejaVuSans-51"/>
       <use x="63.623047" xlink:href="#DejaVuSans-48"/>
       <use x="127.246094" xlink:href="#DejaVuSans-48"/>
       <use x="190.869141" xlink:href="#DejaVuSans-48"/>
      </g>
     </g>
    </g>
    <g id="ytick_5">
     <g id="line2d_14">
      <g>
       <use style="stroke:#000000;stroke-width:0.8;" x="57.6" xlink:href="#ma04beda828" y="244.627981"/>
      </g>
     </g>
     <g id="text_15">
      <!-- 4000 -->
      <g transform="translate(25.15 248.4272)scale(0.1 -0.1)">
       <use xlink:href="#DejaVuSans-52"/>
       <use x="63.623047" xlink:href="#DejaVuSans-48"/>
       <use x="127.246094" xlink:href="#DejaVuSans-48"/>
       <use x="190.869141" xlink:href="#DejaVuSans-48"/>
      </g>
     </g>
    </g>
    <g id="ytick_6">
     <g id="line2d_15">
      <g>
       <use style="stroke:#000000;stroke-width:0.8;" x="57.6" xlink:href="#ma04beda828" y="229.229852"/>
      </g>
     </g>
     <g id="text_16">
      <!-- 5000 -->
      <g transform="translate(25.15 233.029071)scale(0.1 -0.1)">
       <use xlink:href="#DejaVuSans-53"/>
       <use x="63.623047" xlink:href="#DejaVuSans-48"/>
       <use x="127.246094" xlink:href="#DejaVuSans-48"/>
       <use x="190.869141" xlink:href="#DejaVuSans-48"/>
      </g>
     </g>
    </g>
    <g id="ytick_7">
     <g id="line2d_16">
      <g>
       <use style="stroke:#000000;stroke-width:0.8;" x="57.6" xlink:href="#ma04beda828" y="213.831724"/>
      </g>
     </g>
     <g id="text_17">
      <!-- 6000 -->
      <defs>
       <path d="M 33.015625 40.375 
Q 26.375 40.375 22.484375 35.828125 
Q 18.609375 31.296875 18.609375 23.390625 
Q 18.609375 15.53125 22.484375 10.953125 
Q 26.375 6.390625 33.015625 6.390625 
Q 39.65625 6.390625 43.53125 10.953125 
Q 47.40625 15.53125 47.40625 23.390625 
Q 47.40625 31.296875 43.53125 35.828125 
Q 39.65625 40.375 33.015625 40.375 
z
M 52.59375 71.296875 
L 52.59375 62.3125 
Q 48.875 64.0625 45.09375 64.984375 
Q 41.3125 65.921875 37.59375 65.921875 
Q 27.828125 65.921875 22.671875 59.328125 
Q 17.53125 52.734375 16.796875 39.40625 
Q 19.671875 43.65625 24.015625 45.921875 
Q 28.375 48.1875 33.59375 48.1875 
Q 44.578125 48.1875 50.953125 41.515625 
Q 57.328125 34.859375 57.328125 23.390625 
Q 57.328125 12.15625 50.6875 5.359375 
Q 44.046875 -1.421875 33.015625 -1.421875 
Q 20.359375 -1.421875 13.671875 8.265625 
Q 6.984375 17.96875 6.984375 36.375 
Q 6.984375 53.65625 15.1875 63.9375 
Q 23.390625 74.21875 37.203125 74.21875 
Q 40.921875 74.21875 44.703125 73.484375 
Q 48.484375 72.75 52.59375 71.296875 
z
" id="DejaVuSans-54"/>
      </defs>
      <g transform="translate(25.15 217.630942)scale(0.1 -0.1)">
       <use xlink:href="#DejaVuSans-54"/>
       <use x="63.623047" xlink:href="#DejaVuSans-48"/>
       <use x="127.246094" xlink:href="#DejaVuSans-48"/>
       <use x="190.869141" xlink:href="#DejaVuSans-48"/>
      </g>
     </g>
    </g>
    <g id="ytick_8">
     <g id="line2d_17">
      <g>
       <use style="stroke:#000000;stroke-width:0.8;" x="57.6" xlink:href="#ma04beda828" y="198.433595"/>
      </g>
     </g>
     <g id="text_18">
      <!-- 7000 -->
      <defs>
       <path d="M 8.203125 72.90625 
L 55.078125 72.90625 
L 55.078125 68.703125 
L 28.609375 0 
L 18.3125 0 
L 43.21875 64.59375 
L 8.203125 64.59375 
z
" id="DejaVuSans-55"/>
      </defs>
      <g transform="translate(25.15 202.232814)scale(0.1 -0.1)">
       <use xlink:href="#DejaVuSans-55"/>
       <use x="63.623047" xlink:href="#DejaVuSans-48"/>
       <use x="127.246094" xlink:href="#DejaVuSans-48"/>
       <use x="190.869141" xlink:href="#DejaVuSans-48"/>
      </g>
     </g>
    </g>
    <g id="ytick_9">
     <g id="line2d_18">
      <g>
       <use style="stroke:#000000;stroke-width:0.8;" x="57.6" xlink:href="#ma04beda828" y="183.035466"/>
      </g>
     </g>
     <g id="text_19">
      <!-- 8000 -->
      <defs>
       <path d="M 31.78125 34.625 
Q 24.75 34.625 20.71875 30.859375 
Q 16.703125 27.09375 16.703125 20.515625 
Q 16.703125 13.921875 20.71875 10.15625 
Q 24.75 6.390625 31.78125 6.390625 
Q 38.8125 6.390625 42.859375 10.171875 
Q 46.921875 13.96875 46.921875 20.515625 
Q 46.921875 27.09375 42.890625 30.859375 
Q 38.875 34.625 31.78125 34.625 
z
M 21.921875 38.8125 
Q 15.578125 40.375 12.03125 44.71875 
Q 8.5 49.078125 8.5 55.328125 
Q 8.5 64.0625 14.71875 69.140625 
Q 20.953125 74.21875 31.78125 74.21875 
Q 42.671875 74.21875 48.875 69.140625 
Q 55.078125 64.0625 55.078125 55.328125 
Q 55.078125 49.078125 51.53125 44.71875 
Q 48 40.375 41.703125 38.8125 
Q 48.828125 37.15625 52.796875 32.3125 
Q 56.78125 27.484375 56.78125 20.515625 
Q 56.78125 9.90625 50.3125 4.234375 
Q 43.84375 -1.421875 31.78125 -1.421875 
Q 19.734375 -1.421875 13.25 4.234375 
Q 6.78125 9.90625 6.78125 20.515625 
Q 6.78125 27.484375 10.78125 32.3125 
Q 14.796875 37.15625 21.921875 38.8125 
z
M 18.3125 54.390625 
Q 18.3125 48.734375 21.84375 45.5625 
Q 25.390625 42.390625 31.78125 42.390625 
Q 38.140625 42.390625 41.71875 45.5625 
Q 45.3125 48.734375 45.3125 54.390625 
Q 45.3125 60.0625 41.71875 63.234375 
Q 38.140625 66.40625 31.78125 66.40625 
Q 25.390625 66.40625 21.84375 63.234375 
Q 18.3125 60.0625 18.3125 54.390625 
z
" id="DejaVuSans-56"/>
      </defs>
      <g transform="translate(25.15 186.834685)scale(0.1 -0.1)">
       <use xlink:href="#DejaVuSans-56"/>
       <use x="63.623047" xlink:href="#DejaVuSans-48"/>
       <use x="127.246094" xlink:href="#DejaVuSans-48"/>
       <use x="190.869141" xlink:href="#DejaVuSans-48"/>
      </g>
     </g>
    </g>
    <g id="ytick_10">
     <g id="line2d_19">
      <g>
       <use style="stroke:#000000;stroke-width:0.8;" x="57.6" xlink:href="#ma04beda828" y="167.637337"/>
      </g>
     </g>
     <g id="text_20">
      <!-- 9000 -->
      <defs>
       <path d="M 10.984375 1.515625 
L 10.984375 10.5 
Q 14.703125 8.734375 18.5 7.8125 
Q 22.3125 6.890625 25.984375 6.890625 
Q 35.75 6.890625 40.890625 13.453125 
Q 46.046875 20.015625 46.78125 33.40625 
Q 43.953125 29.203125 39.59375 26.953125 
Q 35.25 24.703125 29.984375 24.703125 
Q 19.046875 24.703125 12.671875 31.3125 
Q 6.296875 37.9375 6.296875 49.421875 
Q 6.296875 60.640625 12.9375 67.421875 
Q 19.578125 74.21875 30.609375 74.21875 
Q 43.265625 74.21875 49.921875 64.515625 
Q 56.59375 54.828125 56.59375 36.375 
Q 56.59375 19.140625 48.40625 8.859375 
Q 40.234375 -1.421875 26.421875 -1.421875 
Q 22.703125 -1.421875 18.890625 -0.6875 
Q 15.09375 0.046875 10.984375 1.515625 
z
M 30.609375 32.421875 
Q 37.25 32.421875 41.125 36.953125 
Q 45.015625 41.5 45.015625 49.421875 
Q 45.015625 57.28125 41.125 61.84375 
Q 37.25 66.40625 30.609375 66.40625 
Q 23.96875 66.40625 20.09375 61.84375 
Q 16.21875 57.28125 16.21875 49.421875 
Q 16.21875 41.5 20.09375 36.953125 
Q 23.96875 32.421875 30.609375 32.421875 
z
" id="DejaVuSans-57"/>
      </defs>
      <g transform="translate(25.15 171.436556)scale(0.1 -0.1)">
       <use xlink:href="#DejaVuSans-57"/>
       <use x="63.623047" xlink:href="#DejaVuSans-48"/>
       <use x="127.246094" xlink:href="#DejaVuSans-48"/>
       <use x="190.869141" xlink:href="#DejaVuSans-48"/>
      </g>
     </g>
    </g>
    <g id="ytick_11">
     <g id="line2d_20">
      <g>
       <use style="stroke:#000000;stroke-width:0.8;" x="57.6" xlink:href="#ma04beda828" y="152.239209"/>
      </g>
     </g>
     <g id="text_21">
      <!-- 10000 -->
      <g transform="translate(18.7875 156.038427)scale(0.1 -0.1)">
       <use xlink:href="#DejaVuSans-49"/>
       <use x="63.623047" xlink:href="#DejaVuSans-48"/>
       <use x="127.246094" xlink:href="#DejaVuSans-48"/>
       <use x="190.869141" xlink:href="#DejaVuSans-48"/>
       <use x="254.492188" xlink:href="#DejaVuSans-48"/>
      </g>
     </g>
    </g>
    <g id="ytick_12">
     <g id="line2d_21">
      <g>
       <use style="stroke:#000000;stroke-width:0.8;" x="57.6" xlink:href="#ma04beda828" y="136.84108"/>
      </g>
     </g>
     <g id="text_22">
      <!-- 11000 -->
      <g transform="translate(18.7875 140.640299)scale(0.1 -0.1)">
       <use xlink:href="#DejaVuSans-49"/>
       <use x="63.623047" xlink:href="#DejaVuSans-49"/>
       <use x="127.246094" xlink:href="#DejaVuSans-48"/>
       <use x="190.869141" xlink:href="#DejaVuSans-48"/>
       <use x="254.492188" xlink:href="#DejaVuSans-48"/>
      </g>
     </g>
    </g>
    <g id="ytick_13">
     <g id="line2d_22">
      <g>
       <use style="stroke:#000000;stroke-width:0.8;" x="57.6" xlink:href="#ma04beda828" y="121.442951"/>
      </g>
     </g>
     <g id="text_23">
      <!-- 12000 -->
      <g transform="translate(18.7875 125.24217)scale(0.1 -0.1)">
       <use xlink:href="#DejaVuSans-49"/>
       <use x="63.623047" xlink:href="#DejaVuSans-50"/>
       <use x="127.246094" xlink:href="#DejaVuSans-48"/>
       <use x="190.869141" xlink:href="#DejaVuSans-48"/>
       <use x="254.492188" xlink:href="#DejaVuSans-48"/>
      </g>
     </g>
    </g>
    <g id="ytick_14">
     <g id="line2d_23">
      <g>
       <use style="stroke:#000000;stroke-width:0.8;" x="57.6" xlink:href="#ma04beda828" y="106.044823"/>
      </g>
     </g>
     <g id="text_24">
      <!-- 13000 -->
      <g transform="translate(18.7875 109.844041)scale(0.1 -0.1)">
       <use xlink:href="#DejaVuSans-49"/>
       <use x="63.623047" xlink:href="#DejaVuSans-51"/>
       <use x="127.246094" xlink:href="#DejaVuSans-48"/>
       <use x="190.869141" xlink:href="#DejaVuSans-48"/>
       <use x="254.492188" xlink:href="#DejaVuSans-48"/>
      </g>
     </g>
    </g>
    <g id="ytick_15">
     <g id="line2d_24">
      <g>
       <use style="stroke:#000000;stroke-width:0.8;" x="57.6" xlink:href="#ma04beda828" y="90.646694"/>
      </g>
     </g>
     <g id="text_25">
      <!-- 14000 -->
      <g transform="translate(18.7875 94.445913)scale(0.1 -0.1)">
       <use xlink:href="#DejaVuSans-49"/>
       <use x="63.623047" xlink:href="#DejaVuSans-52"/>
       <use x="127.246094" xlink:href="#DejaVuSans-48"/>
       <use x="190.869141" xlink:href="#DejaVuSans-48"/>
       <use x="254.492188" xlink:href="#DejaVuSans-48"/>
      </g>
     </g>
    </g>
    <g id="ytick_16">
     <g id="line2d_25">
      <g>
       <use style="stroke:#000000;stroke-width:0.8;" x="57.6" xlink:href="#ma04beda828" y="75.248565"/>
      </g>
     </g>
     <g id="text_26">
      <!-- 15000 -->
      <g transform="translate(18.7875 79.047784)scale(0.1 -0.1)">
       <use xlink:href="#DejaVuSans-49"/>
       <use x="63.623047" xlink:href="#DejaVuSans-53"/>
       <use x="127.246094" xlink:href="#DejaVuSans-48"/>
       <use x="190.869141" xlink:href="#DejaVuSans-48"/>
       <use x="254.492188" xlink:href="#DejaVuSans-48"/>
      </g>
     </g>
    </g>
    <g id="ytick_17">
     <g id="line2d_26">
      <g>
       <use style="stroke:#000000;stroke-width:0.8;" x="57.6" xlink:href="#ma04beda828" y="59.850437"/>
      </g>
     </g>
     <g id="text_27">
      <!-- 16000 -->
      <g transform="translate(18.7875 63.649655)scale(0.1 -0.1)">
       <use xlink:href="#DejaVuSans-49"/>
       <use x="63.623047" xlink:href="#DejaVuSans-54"/>
       <use x="127.246094" xlink:href="#DejaVuSans-48"/>
       <use x="190.869141" xlink:href="#DejaVuSans-48"/>
       <use x="254.492188" xlink:href="#DejaVuSans-48"/>
      </g>
     </g>
    </g>
    <g id="text_28">
     <!-- Nombre de paquets reçus -->
     <defs>
      <path d="M 9.8125 72.90625 
L 23.09375 72.90625 
L 55.421875 11.921875 
L 55.421875 72.90625 
L 64.984375 72.90625 
L 64.984375 0 
L 51.703125 0 
L 19.390625 60.984375 
L 19.390625 0 
L 9.8125 0 
z
" id="DejaVuSans-78"/>
      <path d="M 52 44.1875 
Q 55.375 50.25 60.0625 53.125 
Q 64.75 56 71.09375 56 
Q 79.640625 56 84.28125 50.015625 
Q 88.921875 44.046875 88.921875 33.015625 
L 88.921875 0 
L 79.890625 0 
L 79.890625 32.71875 
Q 79.890625 40.578125 77.09375 44.375 
Q 74.3125 48.1875 68.609375 48.1875 
Q 61.625 48.1875 57.5625 43.546875 
Q 53.515625 38.921875 53.515625 30.90625 
L 53.515625 0 
L 44.484375 0 
L 44.484375 32.71875 
Q 44.484375 40.625 41.703125 44.40625 
Q 38.921875 48.1875 33.109375 48.1875 
Q 26.21875 48.1875 22.15625 43.53125 
Q 18.109375 38.875 18.109375 30.90625 
L 18.109375 0 
L 9.078125 0 
L 9.078125 54.6875 
L 18.109375 54.6875 
L 18.109375 46.1875 
Q 21.1875 51.21875 25.484375 53.609375 
Q 29.78125 56 35.6875 56 
Q 41.65625 56 45.828125 52.96875 
Q 50 49.953125 52 44.1875 
z
" id="DejaVuSans-109"/>
      <path d="M 45.40625 46.390625 
L 45.40625 75.984375 
L 54.390625 75.984375 
L 54.390625 0 
L 45.40625 0 
L 45.40625 8.203125 
Q 42.578125 3.328125 38.25 0.953125 
Q 33.9375 -1.421875 27.875 -1.421875 
Q 17.96875 -1.421875 11.734375 6.484375 
Q 5.515625 14.40625 5.515625 27.296875 
Q 5.515625 40.1875 11.734375 48.09375 
Q 17.96875 56 27.875 56 
Q 33.9375 56 38.25 53.625 
Q 42.578125 51.265625 45.40625 46.390625 
z
M 14.796875 27.296875 
Q 14.796875 17.390625 18.875 11.75 
Q 22.953125 6.109375 30.078125 6.109375 
Q 37.203125 6.109375 41.296875 11.75 
Q 45.40625 17.390625 45.40625 27.296875 
Q 45.40625 37.203125 41.296875 42.84375 
Q 37.203125 48.484375 30.078125 48.484375 
Q 22.953125 48.484375 18.875 42.84375 
Q 14.796875 37.203125 14.796875 27.296875 
z
" id="DejaVuSans-100"/>
      <path d="M 34.28125 27.484375 
Q 23.390625 27.484375 19.1875 25 
Q 14.984375 22.515625 14.984375 16.5 
Q 14.984375 11.71875 18.140625 8.90625 
Q 21.296875 6.109375 26.703125 6.109375 
Q 34.1875 6.109375 38.703125 11.40625 
Q 43.21875 16.703125 43.21875 25.484375 
L 43.21875 27.484375 
z
M 52.203125 31.203125 
L 52.203125 0 
L 43.21875 0 
L 43.21875 8.296875 
Q 40.140625 3.328125 35.546875 0.953125 
Q 30.953125 -1.421875 24.3125 -1.421875 
Q 15.921875 -1.421875 10.953125 3.296875 
Q 6 8.015625 6 15.921875 
Q 6 25.140625 12.171875 29.828125 
Q 18.359375 34.515625 30.609375 34.515625 
L 43.21875 34.515625 
L 43.21875 35.40625 
Q 43.21875 41.609375 39.140625 45 
Q 35.0625 48.390625 27.6875 48.390625 
Q 23 48.390625 18.546875 47.265625 
Q 14.109375 46.140625 10.015625 43.890625 
L 10.015625 52.203125 
Q 14.9375 54.109375 19.578125 55.046875 
Q 24.21875 56 28.609375 56 
Q 40.484375 56 46.34375 49.84375 
Q 52.203125 43.703125 52.203125 31.203125 
z
" id="DejaVuSans-97"/>
      <path d="M 14.796875 27.296875 
Q 14.796875 17.390625 18.875 11.75 
Q 22.953125 6.109375 30.078125 6.109375 
Q 37.203125 6.109375 41.296875 11.75 
Q 45.40625 17.390625 45.40625 27.296875 
Q 45.40625 37.203125 41.296875 42.84375 
Q 37.203125 48.484375 30.078125 48.484375 
Q 22.953125 48.484375 18.875 42.84375 
Q 14.796875 37.203125 14.796875 27.296875 
z
M 45.40625 8.203125 
Q 42.578125 3.328125 38.25 0.953125 
Q 33.9375 -1.421875 27.875 -1.421875 
Q 17.96875 -1.421875 11.734375 6.484375 
Q 5.515625 14.40625 5.515625 27.296875 
Q 5.515625 40.1875 11.734375 48.09375 
Q 17.96875 56 27.875 56 
Q 33.9375 56 38.25 53.625 
Q 42.578125 51.265625 45.40625 46.390625 
L 45.40625 54.6875 
L 54.390625 54.6875 
L 54.390625 -20.796875 
L 45.40625 -20.796875 
z
" id="DejaVuSans-113"/>
      <path d="M 48.78125 52.59375 
L 48.78125 44.1875 
Q 44.96875 46.296875 41.140625 47.34375 
Q 37.3125 48.390625 33.40625 48.390625 
Q 24.65625 48.390625 19.8125 42.84375 
Q 14.984375 37.3125 14.984375 27.296875 
Q 14.984375 17.28125 19.8125 11.734375 
Q 24.65625 6.203125 33.40625 6.203125 
Q 37.3125 6.203125 41.140625 7.25 
Q 44.96875 8.296875 48.78125 10.40625 
L 48.78125 2.09375 
Q 45.015625 0.34375 40.984375 -0.53125 
Q 36.96875 -1.421875 32.421875 -1.421875 
Q 20.0625 -1.421875 12.78125 6.34375 
Q 5.515625 14.109375 5.515625 27.296875 
Q 5.515625 40.671875 12.859375 48.328125 
Q 20.21875 56 33.015625 56 
Q 37.15625 56 41.109375 55.140625 
Q 45.0625 54.296875 48.78125 52.59375 
z
M 36.109375 0 
Q 38.78125 -3.03125 40.09375 -5.59375 
Q 41.421875 -8.15625 41.421875 -10.5 
Q 41.421875 -14.84375 38.484375 -17.0625 
Q 35.5625 -19.28125 29.796875 -19.28125 
Q 27.5625 -19.28125 25.4375 -18.984375 
Q 23.3125 -18.703125 21.203125 -18.109375 
L 21.203125 -11.71875 
Q 22.875 -12.546875 24.671875 -12.90625 
Q 26.484375 -13.28125 28.78125 -13.28125 
Q 31.65625 -13.28125 33.125 -12.109375 
Q 34.59375 -10.9375 34.59375 -8.6875 
Q 34.59375 -7.234375 33.53125 -5.109375 
Q 32.484375 -2.984375 30.296875 0 
z
" id="DejaVuSans-231"/>
     </defs>
     <g transform="translate(12.707812 239.39675)rotate(-90)scale(0.1 -0.1)">
      <use xlink:href="#DejaVuSans-78"/>
      <use x="74.804688" xlink:href="#DejaVuSans-111"/>
      <use x="135.986328" xlink:href="#DejaVuSans-109"/>
      <use x="233.398438" xlink:href="#DejaVuSans-98"/>
      <use x="296.875" xlink:href="#DejaVuSans-114"/>
      <use x="337.957031" xlink:href="#DejaVuSans-101"/>
      <use x="399.480469" xlink:href="#DejaVuSans-32"/>
      <use x="431.267578" xlink:href="#DejaVuSans-100"/>
      <use x="494.744141" xlink:href="#DejaVuSans-101"/>
      <use x="556.267578" xlink:href="#DejaVuSans-32"/>
      <use x="588.054688" xlink:href="#DejaVuSans-112"/>
      <use x="651.53125" xlink:href="#DejaVuSans-97"/>
      <use x="712.810547" xlink:href="#DejaVuSans-113"/>
      <use x="776.287109" xlink:href="#DejaVuSans-117"/>
      <use x="839.666016" xlink:href="#DejaVuSans-101"/>
      <use x="901.189453" xlink:href="#DejaVuSans-116"/>
      <use x="940.398438" xlink:href="#DejaVuSans-115"/>
      <use x="992.498047" xlink:href="#DejaVuSans-32"/>
      <use x="1024.285156" xlink:href="#DejaVuSans-114"/>
      <use x="1065.367188" xlink:href="#DejaVuSans-101"/>
      <use x="1126.890625" xlink:href="#DejaVuSans-231"/>
      <use x="1181.871094" xlink:href="#DejaVuSans-117"/>
      <use x="1245.25" xlink:href="#DejaVuSans-115"/>
     </g>
    </g>
   </g>
   <g id="line2d_27">
    <path clip-path="url(#pea99bbb733)" d="M 73.832727 295.426407 
L 77.994965 290.052461 
L 82.157203 284.647717 
L 86.319441 279.304567 
L 90.481678 273.899824 
L 94.643916 268.479682 
L 98.806154 263.090337 
L 102.968392 257.700992 
L 107.130629 252.37324 
L 111.292867 247.769199 
L 115.455105 242.102688 
L 119.617343 237.082898 
L 123.77958 233.52593 
L 127.941818 228.644723 
L 132.104056 225.087756 
L 136.266294 221.34601 
L 140.428531 218.235588 
L 144.590769 214.663222 
L 148.753007 210.012988 
L 152.915245 206.163455 
L 157.077483 205.732308 
L 161.23972 197.802272 
L 165.401958 193.521592 
L 169.564196 190.965502 
L 173.726434 184.837047 
L 177.888671 180.633358 
L 182.050909 179.509295 
L 186.213147 173.442432 
L 190.375385 172.041202 
L 194.537622 167.45256 
L 198.69986 163.017899 
L 202.862098 163.603028 
L 207.024336 162.1864 
L 211.186573 153.086106 
L 215.348811 152.916726 
L 219.511049 144.709524 
L 223.673287 143.446877 
L 227.835524 139.951502 
L 231.997762 144.555542 
L 236.16 131.051384 
L 240.322238 132.883761 
L 244.484476 129.85033 
L 248.646713 123.999041 
L 252.808951 117.485632 
L 256.971189 115.976616 
L 261.133427 112.65062 
L 265.295664 112.019297 
L 269.457902 107.723219 
L 273.62014 101.979717 
L 277.782378 101.317597 
L 281.944615 98.838498 
L 286.106853 90.230944 
L 290.269091 91.924739 
L 294.431329 88.752724 
L 298.593566 82.839843 
L 302.755804 80.88428 
L 306.918042 77.419701 
L 311.08028 73.108225 
L 315.242517 72.800263 
L 319.404755 66.456234 
L 323.566993 77.435099 
L 327.729231 65.978892 
L 331.891469 56.124089 
L 336.053706 60.697334 
L 340.215944 54.029944 
L 344.378182 59.065132 
L 348.54042 63.761561 
L 352.702657 53.568 
L 356.864895 68.935332 
L 361.027133 64.700847 
L 365.189371 74.201492 
L 369.351608 64.177311 
L 373.513846 70.136386 
L 377.676084 79.914198 
L 381.838322 74.986797 
L 386.000559 68.504185 
L 390.162797 77.496692 
L 394.325035 75.156176 
L 398.487273 77.974034 
" style="fill:none;stroke:#0000ff;stroke-linecap:square;"/>
    <defs>
     <path d="M 0 1 
C 0.265203 1 0.51958 0.894634 0.707107 0.707107 
C 0.894634 0.51958 1 0.265203 1 0 
C 1 -0.265203 0.894634 -0.51958 0.707107 -0.707107 
C 0.51958 -0.894634 0.265203 -1 0 -1 
C -0.265203 -1 -0.51958 -0.894634 -0.707107 -0.707107 
C -0.894634 -0.51958 -1 -0.265203 -1 0 
C -1 0.265203 -0.894634 0.51958 -0.707107 0.707107 
C -0.51958 0.894634 -0.265203 1 0 1 
z
" id="maa4c0d4682" style="stroke:#0000ff;"/>
    </defs>
    <g clip-path="url(#pea99bbb733)">
     <use style="fill:#0000ff;stroke:#0000ff;" x="73.832727" xlink:href="#maa4c0d4682" y="295.426407"/>
     <use style="fill:#0000ff;stroke:#0000ff;" x="77.994965" xlink:href="#maa4c0d4682" y="290.052461"/>
     <use style="fill:#0000ff;stroke:#0000ff;" x="82.157203" xlink:href="#maa4c0d4682" y="284.647717"/>
     <use style="fill:#0000ff;stroke:#0000ff;" x="86.319441" xlink:href="#maa4c0d4682" y="279.304567"/>
     <use style="fill:#0000ff;stroke:#0000ff;" x="90.481678" xlink:href="#maa4c0d4682" y="273.899824"/>
     <use style="fill:#0000ff;stroke:#0000ff;" x="94.643916" xlink:href="#maa4c0d4682" y="268.479682"/>
     <use style="fill:#0000ff;stroke:#0000ff;" x="98.806154" xlink:href="#maa4c0d4682" y="263.090337"/>
     <use style="fill:#0000ff;stroke:#0000ff;" x="102.968392" xlink:href="#maa4c0d4682" y="257.700992"/>
     <use style="fill:#0000ff;stroke:#0000ff;" x="107.130629" xlink:href="#maa4c0d4682" y="252.37324"/>
     <use style="fill:#0000ff;stroke:#0000ff;" x="111.292867" xlink:href="#maa4c0d4682" y="247.769199"/>
     <use style="fill:#0000ff;stroke:#0000ff;" x="115.455105" xlink:href="#maa4c0d4682" y="242.102688"/>
     <use style="fill:#0000ff;stroke:#0000ff;" x="119.617343" xlink:href="#maa4c0d4682" y="237.082898"/>
     <use style="fill:#0000ff;stroke:#0000ff;" x="123.77958" xlink:href="#maa4c0d4682" y="233.52593"/>
     <use style="fill:#0000ff;stroke:#0000ff;" x="127.941818" xlink:href="#maa4c0d4682" y="228.644723"/>
     <use style="fill:#0000ff;stroke:#0000ff;" x="132.104056" xlink:href="#maa4c0d4682" y="225.087756"/>
     <use style="fill:#0000ff;stroke:#0000ff;" x="136.266294" xlink:href="#maa4c0d4682" y="221.34601"/>
     <use style="fill:#0000ff;stroke:#0000ff;" x="140.428531" xlink:href="#maa4c0d4682" y="218.235588"/>
     <use style="fill:#0000ff;stroke:#0000ff;" x="144.590769" xlink:href="#maa4c0d4682" y="214.663222"/>
     <use style="fill:#0000ff;stroke:#0000ff;" x="148.753007" xlink:href="#maa4c0d4682" y="210.012988"/>
     <use style="fill:#0000ff;stroke:#0000ff;" x="152.915245" xlink:href="#maa4c0d4682" y="206.163455"/>
     <use style="fill:#0000ff;stroke:#0000ff;" x="157.077483" xlink:href="#maa4c0d4682" y="205.732308"/>
     <use style="fill:#0000ff;stroke:#0000ff;" x="161.23972" xlink:href="#maa4c0d4682" y="197.802272"/>
     <use style="fill:#0000ff;stroke:#0000ff;" x="165.401958" xlink:href="#maa4c0d4682" y="193.521592"/>
     <use style="fill:#0000ff;stroke:#0000ff;" x="169.564196" xlink:href="#maa4c0d4682" y="190.965502"/>
     <use style="fill:#0000ff;stroke:#0000ff;" x="173.726434" xlink:href="#maa4c0d4682" y="184.837047"/>
     <use style="fill:#0000ff;stroke:#0000ff;" x="177.888671" xlink:href="#maa4c0d4682" y="180.633358"/>
     <use style="fill:#0000ff;stroke:#0000ff;" x="182.050909" xlink:href="#maa4c0d4682" y="179.509295"/>
     <use style="fill:#0000ff;stroke:#0000ff;" x="186.213147" xlink:href="#maa4c0d4682" y="173.442432"/>
     <use style="fill:#0000ff;stroke:#0000ff;" x="190.375385" xlink:href="#maa4c0d4682" y="172.041202"/>
     <use style="fill:#0000ff;stroke:#0000ff;" x="194.537622" xlink:href="#maa4c0d4682" y="167.45256"/>
     <use style="fill:#0000ff;stroke:#0000ff;" x="198.69986" xlink:href="#maa4c0d4682" y="163.017899"/>
     <use style="fill:#0000ff;stroke:#0000ff;" x="202.862098" xlink:href="#maa4c0d4682" y="163.603028"/>
     <use style="fill:#0000ff;stroke:#0000ff;" x="207.024336" xlink:href="#maa4c0d4682" y="162.1864"/>
     <use style="fill:#0000ff;stroke:#0000ff;" x="211.186573" xlink:href="#maa4c0d4682" y="153.086106"/>
     <use style="fill:#0000ff;stroke:#0000ff;" x="215.348811" xlink:href="#maa4c0d4682" y="152.916726"/>
     <use style="fill:#0000ff;stroke:#0000ff;" x="219.511049" xlink:href="#maa4c0d4682" y="144.709524"/>
     <use style="fill:#0000ff;stroke:#0000ff;" x="223.673287" xlink:href="#maa4c0d4682" y="143.446877"/>
     <use style="fill:#0000ff;stroke:#0000ff;" x="227.835524" xlink:href="#maa4c0d4682" y="139.951502"/>
     <use style="fill:#0000ff;stroke:#0000ff;" x="231.997762" xlink:href="#maa4c0d4682" y="144.555542"/>
     <use style="fill:#0000ff;stroke:#0000ff;" x="236.16" xlink:href="#maa4c0d4682" y="131.051384"/>
     <use style="fill:#0000ff;stroke:#0000ff;" x="240.322238" xlink:href="#maa4c0d4682" y="132.883761"/>
     <use style="fill:#0000ff;stroke:#0000ff;" x="244.484476" xlink:href="#maa4c0d4682" y="129.85033"/>
     <use style="fill:#0000ff;stroke:#0000ff;" x="248.646713" xlink:href="#maa4c0d4682" y="123.999041"/>
     <use style="fill:#0000ff;stroke:#0000ff;" x="252.808951" xlink:href="#maa4c0d4682" y="117.485632"/>
     <use style="fill:#0000ff;stroke:#0000ff;" x="256.971189" xlink:href="#maa4c0d4682" y="115.976616"/>
     <use style="fill:#0000ff;stroke:#0000ff;" x="261.133427" xlink:href="#maa4c0d4682" y="112.65062"/>
     <use style="fill:#0000ff;stroke:#0000ff;" x="265.295664" xlink:href="#maa4c0d4682" y="112.019297"/>
     <use style="fill:#0000ff;stroke:#0000ff;" x="269.457902" xlink:href="#maa4c0d4682" y="107.723219"/>
     <use style="fill:#0000ff;stroke:#0000ff;" x="273.62014" xlink:href="#maa4c0d4682" y="101.979717"/>
     <use style="fill:#0000ff;stroke:#0000ff;" x="277.782378" xlink:href="#maa4c0d4682" y="101.317597"/>
     <use style="fill:#0000ff;stroke:#0000ff;" x="281.944615" xlink:href="#maa4c0d4682" y="98.838498"/>
     <use style="fill:#0000ff;stroke:#0000ff;" x="286.106853" xlink:href="#maa4c0d4682" y="90.230944"/>
     <use style="fill:#0000ff;stroke:#0000ff;" x="290.269091" xlink:href="#maa4c0d4682" y="91.924739"/>
     <use style="fill:#0000ff;stroke:#0000ff;" x="294.431329" xlink:href="#maa4c0d4682" y="88.752724"/>
     <use style="fill:#0000ff;stroke:#0000ff;" x="298.593566" xlink:href="#maa4c0d4682" y="82.839843"/>
     <use style="fill:#0000ff;stroke:#0000ff;" x="302.755804" xlink:href="#maa4c0d4682" y="80.88428"/>
     <use style="fill:#0000ff;stroke:#0000ff;" x="306.918042" xlink:href="#maa4c0d4682" y="77.419701"/>
     <use style="fill:#0000ff;stroke:#0000ff;" x="311.08028" xlink:href="#maa4c0d4682" y="73.108225"/>
     <use style="fill:#0000ff;stroke:#0000ff;" x="315.242517" xlink:href="#maa4c0d4682" y="72.800263"/>
     <use style="fill:#0000ff;stroke:#0000ff;" x="319.404755" xlink:href="#maa4c0d4682" y="66.456234"/>
     <use style="fill:#0000ff;stroke:#0000ff;" x="323.566993" xlink:href="#maa4c0d4682" y="77.435099"/>
     <use style="fill:#0000ff;stroke:#0000ff;" x="327.729231" xlink:href="#maa4c0d4682" y="65.978892"/>
     <use style="fill:#0000ff;stroke:#0000ff;" x="331.891469" xlink:href="#maa4c0d4682" y="56.124089"/>
     <use style="fill:#0000ff;stroke:#0000ff;" x="336.053706" xlink:href="#maa4c0d4682" y="60.697334"/>
     <use style="fill:#0000ff;stroke:#0000ff;" x="340.215944" xlink:href="#maa4c0d4682" y="54.029944"/>
     <use style="fill:#0000ff;stroke:#0000ff;" x="344.378182" xlink:href="#maa4c0d4682" y="59.065132"/>
     <use style="fill:#0000ff;stroke:#0000ff;" x="348.54042" xlink:href="#maa4c0d4682" y="63.761561"/>
     <use style="fill:#0000ff;stroke:#0000ff;" x="352.702657" xlink:href="#maa4c0d4682" y="53.568"/>
     <use style="fill:#0000ff;stroke:#0000ff;" x="356.864895" xlink:href="#maa4c0d4682" y="68.935332"/>
     <use style="fill:#0000ff;stroke:#0000ff;" x="361.027133" xlink:href="#maa4c0d4682" y="64.700847"/>
     <use style="fill:#0000ff;stroke:#0000ff;" x="365.189371" xlink:href="#maa4c0d4682" y="74.201492"/>
     <use style="fill:#0000ff;stroke:#0000ff;" x="369.351608" xlink:href="#maa4c0d4682" y="64.177311"/>
     <use style="fill:#0000ff;stroke:#0000ff;" x="373.513846" xlink:href="#maa4c0d4682" y="70.136386"/>
     <use style="fill:#0000ff;stroke:#0000ff;" x="377.676084" xlink:href="#maa4c0d4682" y="79.914198"/>
     <use style="fill:#0000ff;stroke:#0000ff;" x="381.838322" xlink:href="#maa4c0d4682" y="74.986797"/>
     <use style="fill:#0000ff;stroke:#0000ff;" x="386.000559" xlink:href="#maa4c0d4682" y="68.504185"/>
     <use style="fill:#0000ff;stroke:#0000ff;" x="390.162797" xlink:href="#maa4c0d4682" y="77.496692"/>
     <use style="fill:#0000ff;stroke:#0000ff;" x="394.325035" xlink:href="#maa4c0d4682" y="75.156176"/>
     <use style="fill:#0000ff;stroke:#0000ff;" x="398.487273" xlink:href="#maa4c0d4682" y="77.974034"/>
    </g>
   </g>
   <g id="line2d_28">
    <path clip-path="url(#pea99bbb733)" d="M 73.832727 295.488 
L 77.994965 290.175646 
L 82.157203 284.801699 
L 86.319441 279.535539 
L 90.481678 274.146194 
L 94.643916 268.895432 
L 98.806154 263.429096 
L 102.968392 258.085945 
L 107.130629 252.94297 
L 111.292867 247.738403 
L 115.455105 243.334538 
L 119.617343 238.437933 
L 123.77958 234.18805 
L 127.941818 229.891972 
L 132.104056 224.979969 
L 136.266294 220.683891 
L 140.428531 216.880553 
L 144.590769 213.400576 
L 148.753007 210.474931 
L 152.915245 205.070188 
L 157.077483 202.052155 
L 161.23972 197.910058 
L 165.401958 195.67733 
L 169.564196 189.456486 
L 173.726434 185.776333 
L 177.888671 182.049986 
L 182.050909 177.368955 
L 186.213147 174.581893 
L 190.375385 171.579258 
L 194.537622 168.85379 
L 198.69986 163.58763 
L 202.862098 162.67914 
L 207.024336 161.185521 
L 211.186573 154.456539 
L 215.348811 150.591609 
L 219.511049 148.574454 
L 223.673287 145.464032 
L 227.835524 143.878025 
L 231.997762 136.59471 
L 236.16 135.085693 
L 240.322238 130.035107 
L 244.484476 128.834053 
L 248.646713 129.157414 
L 252.808951 119.856944 
L 256.971189 119.718361 
L 261.133427 109.647985 
L 265.295664 113.112564 
L 269.457902 109.60179 
L 273.62014 102.811216 
L 277.782378 104.889963 
L 281.944615 101.286801 
L 286.106853 92.648451 
L 290.269091 96.251613 
L 294.431329 88.244586 
L 298.593566 89.93838 
L 302.755804 80.653308 
L 306.918042 83.51736 
L 311.08028 77.481294 
L 315.242517 78.99031 
L 319.404755 70.305766 
L 323.566993 68.088435 
L 327.729231 60.789722 
L 331.891469 59.034336 
L 336.053706 63.161034 
L 340.215944 58.926549 
L 344.378182 62.591303 
L 348.54042 68.519583 
L 352.702657 62.822275 
L 356.864895 59.280706 
L 361.027133 62.714488 
L 365.189371 62.45272 
L 369.351608 64.161913 
L 373.513846 63.669172 
L 377.676084 63.823154 
L 381.838322 63.576784 
L 386.000559 63.022451 
L 390.162797 62.360331 
L 394.325035 66.887381 
L 398.487273 71.291246 
" style="fill:none;stroke:#ff0000;stroke-linecap:square;"/>
    <defs>
     <path d="M 0 1 
C 0.265203 1 0.51958 0.894634 0.707107 0.707107 
C 0.894634 0.51958 1 0.265203 1 0 
C 1 -0.265203 0.894634 -0.51958 0.707107 -0.707107 
C 0.51958 -0.894634 0.265203 -1 0 -1 
C -0.265203 -1 -0.51958 -0.894634 -0.707107 -0.707107 
C -0.894634 -0.51958 -1 -0.265203 -1 0 
C -1 0.265203 -0.894634 0.51958 -0.707107 0.707107 
C -0.51958 0.894634 -0.265203 1 0 1 
z
" id="m37f335a2b3" style="stroke:#ff0000;"/>
    </defs>
    <g clip-path="url(#pea99bbb733)">
     <use style="fill:#ff0000;stroke:#ff0000;" x="73.832727" xlink:href="#m37f335a2b3" y="295.488"/>
     <use style="fill:#ff0000;stroke:#ff0000;" x="77.994965" xlink:href="#m37f335a2b3" y="290.175646"/>
     <use style="fill:#ff0000;stroke:#ff0000;" x="82.157203" xlink:href="#m37f335a2b3" y="284.801699"/>
     <use style="fill:#ff0000;stroke:#ff0000;" x="86.319441" xlink:href="#m37f335a2b3" y="279.535539"/>
     <use style="fill:#ff0000;stroke:#ff0000;" x="90.481678" xlink:href="#m37f335a2b3" y="274.146194"/>
     <use style="fill:#ff0000;stroke:#ff0000;" x="94.643916" xlink:href="#m37f335a2b3" y="268.895432"/>
     <use style="fill:#ff0000;stroke:#ff0000;" x="98.806154" xlink:href="#m37f335a2b3" y="263.429096"/>
     <use style="fill:#ff0000;stroke:#ff0000;" x="102.968392" xlink:href="#m37f335a2b3" y="258.085945"/>
     <use style="fill:#ff0000;stroke:#ff0000;" x="107.130629" xlink:href="#m37f335a2b3" y="252.94297"/>
     <use style="fill:#ff0000;stroke:#ff0000;" x="111.292867" xlink:href="#m37f335a2b3" y="247.738403"/>
     <use style="fill:#ff0000;stroke:#ff0000;" x="115.455105" xlink:href="#m37f335a2b3" y="243.334538"/>
     <use style="fill:#ff0000;stroke:#ff0000;" x="119.617343" xlink:href="#m37f335a2b3" y="238.437933"/>
     <use style="fill:#ff0000;stroke:#ff0000;" x="123.77958" xlink:href="#m37f335a2b3" y="234.18805"/>
     <use style="fill:#ff0000;stroke:#ff0000;" x="127.941818" xlink:href="#m37f335a2b3" y="229.891972"/>
     <use style="fill:#ff0000;stroke:#ff0000;" x="132.104056" xlink:href="#m37f335a2b3" y="224.979969"/>
     <use style="fill:#ff0000;stroke:#ff0000;" x="136.266294" xlink:href="#m37f335a2b3" y="220.683891"/>
     <use style="fill:#ff0000;stroke:#ff0000;" x="140.428531" xlink:href="#m37f335a2b3" y="216.880553"/>
     <use style="fill:#ff0000;stroke:#ff0000;" x="144.590769" xlink:href="#m37f335a2b3" y="213.400576"/>
     <use style="fill:#ff0000;stroke:#ff0000;" x="148.753007" xlink:href="#m37f335a2b3" y="210.474931"/>
     <use style="fill:#ff0000;stroke:#ff0000;" x="152.915245" xlink:href="#m37f335a2b3" y="205.070188"/>
     <use style="fill:#ff0000;stroke:#ff0000;" x="157.077483" xlink:href="#m37f335a2b3" y="202.052155"/>
     <use style="fill:#ff0000;stroke:#ff0000;" x="161.23972" xlink:href="#m37f335a2b3" y="197.910058"/>
     <use style="fill:#ff0000;stroke:#ff0000;" x="165.401958" xlink:href="#m37f335a2b3" y="195.67733"/>
     <use style="fill:#ff0000;stroke:#ff0000;" x="169.564196" xlink:href="#m37f335a2b3" y="189.456486"/>
     <use style="fill:#ff0000;stroke:#ff0000;" x="173.726434" xlink:href="#m37f335a2b3" y="185.776333"/>
     <use style="fill:#ff0000;stroke:#ff0000;" x="177.888671" xlink:href="#m37f335a2b3" y="182.049986"/>
     <use style="fill:#ff0000;stroke:#ff0000;" x="182.050909" xlink:href="#m37f335a2b3" y="177.368955"/>
     <use style="fill:#ff0000;stroke:#ff0000;" x="186.213147" xlink:href="#m37f335a2b3" y="174.581893"/>
     <use style="fill:#ff0000;stroke:#ff0000;" x="190.375385" xlink:href="#m37f335a2b3" y="171.579258"/>
     <use style="fill:#ff0000;stroke:#ff0000;" x="194.537622" xlink:href="#m37f335a2b3" y="168.85379"/>
     <use style="fill:#ff0000;stroke:#ff0000;" x="198.69986" xlink:href="#m37f335a2b3" y="163.58763"/>
     <use style="fill:#ff0000;stroke:#ff0000;" x="202.862098" xlink:href="#m37f335a2b3" y="162.67914"/>
     <use style="fill:#ff0000;stroke:#ff0000;" x="207.024336" xlink:href="#m37f335a2b3" y="161.185521"/>
     <use style="fill:#ff0000;stroke:#ff0000;" x="211.186573" xlink:href="#m37f335a2b3" y="154.456539"/>
     <use style="fill:#ff0000;stroke:#ff0000;" x="215.348811" xlink:href="#m37f335a2b3" y="150.591609"/>
     <use style="fill:#ff0000;stroke:#ff0000;" x="219.511049" xlink:href="#m37f335a2b3" y="148.574454"/>
     <use style="fill:#ff0000;stroke:#ff0000;" x="223.673287" xlink:href="#m37f335a2b3" y="145.464032"/>
     <use style="fill:#ff0000;stroke:#ff0000;" x="227.835524" xlink:href="#m37f335a2b3" y="143.878025"/>
     <use style="fill:#ff0000;stroke:#ff0000;" x="231.997762" xlink:href="#m37f335a2b3" y="136.59471"/>
     <use style="fill:#ff0000;stroke:#ff0000;" x="236.16" xlink:href="#m37f335a2b3" y="135.085693"/>
     <use style="fill:#ff0000;stroke:#ff0000;" x="240.322238" xlink:href="#m37f335a2b3" y="130.035107"/>
     <use style="fill:#ff0000;stroke:#ff0000;" x="244.484476" xlink:href="#m37f335a2b3" y="128.834053"/>
     <use style="fill:#ff0000;stroke:#ff0000;" x="248.646713" xlink:href="#m37f335a2b3" y="129.157414"/>
     <use style="fill:#ff0000;stroke:#ff0000;" x="252.808951" xlink:href="#m37f335a2b3" y="119.856944"/>
     <use style="fill:#ff0000;stroke:#ff0000;" x="256.971189" xlink:href="#m37f335a2b3" y="119.718361"/>
     <use style="fill:#ff0000;stroke:#ff0000;" x="261.133427" xlink:href="#m37f335a2b3" y="109.647985"/>
     <use style="fill:#ff0000;stroke:#ff0000;" x="265.295664" xlink:href="#m37f335a2b3" y="113.112564"/>
     <use style="fill:#ff0000;stroke:#ff0000;" x="269.457902" xlink:href="#m37f335a2b3" y="109.60179"/>
     <use style="fill:#ff0000;stroke:#ff0000;" x="273.62014" xlink:href="#m37f335a2b3" y="102.811216"/>
     <use style="fill:#ff0000;stroke:#ff0000;" x="277.782378" xlink:href="#m37f335a2b3" y="104.889963"/>
     <use style="fill:#ff0000;stroke:#ff0000;" x="281.944615" xlink:href="#m37f335a2b3" y="101.286801"/>
     <use style="fill:#ff0000;stroke:#ff0000;" x="286.106853" xlink:href="#m37f335a2b3" y="92.648451"/>
     <use style="fill:#ff0000;stroke:#ff0000;" x="290.269091" xlink:href="#m37f335a2b3" y="96.251613"/>
     <use style="fill:#ff0000;stroke:#ff0000;" x="294.431329" xlink:href="#m37f335a2b3" y="88.244586"/>
     <use style="fill:#ff0000;stroke:#ff0000;" x="298.593566" xlink:href="#m37f335a2b3" y="89.93838"/>
     <use style="fill:#ff0000;stroke:#ff0000;" x="302.755804" xlink:href="#m37f335a2b3" y="80.653308"/>
     <use style="fill:#ff0000;stroke:#ff0000;" x="306.918042" xlink:href="#m37f335a2b3" y="83.51736"/>
     <use style="fill:#ff0000;stroke:#ff0000;" x="311.08028" xlink:href="#m37f335a2b3" y="77.481294"/>
     <use style="fill:#ff0000;stroke:#ff0000;" x="315.242517" xlink:href="#m37f335a2b3" y="78.99031"/>
     <use style="fill:#ff0000;stroke:#ff0000;" x="319.404755" xlink:href="#m37f335a2b3" y="70.305766"/>
     <use style="fill:#ff0000;stroke:#ff0000;" x="323.566993" xlink:href="#m37f335a2b3" y="68.088435"/>
     <use style="fill:#ff0000;stroke:#ff0000;" x="327.729231" xlink:href="#m37f335a2b3" y="60.789722"/>
     <use style="fill:#ff0000;stroke:#ff0000;" x="331.891469" xlink:href="#m37f335a2b3" y="59.034336"/>
     <use style="fill:#ff0000;stroke:#ff0000;" x="336.053706" xlink:href="#m37f335a2b3" y="63.161034"/>
     <use style="fill:#ff0000;stroke:#ff0000;" x="340.215944" xlink:href="#m37f335a2b3" y="58.926549"/>
     <use style="fill:#ff0000;stroke:#ff0000;" x="344.378182" xlink:href="#m37f335a2b3" y="62.591303"/>
     <use style="fill:#ff0000;stroke:#ff0000;" x="348.54042" xlink:href="#m37f335a2b3" y="68.519583"/>
     <use style="fill:#ff0000;stroke:#ff0000;" x="352.702657" xlink:href="#m37f335a2b3" y="62.822275"/>
     <use style="fill:#ff0000;stroke:#ff0000;" x="356.864895" xlink:href="#m37f335a2b3" y="59.280706"/>
     <use style="fill:#ff0000;stroke:#ff0000;" x="361.027133" xlink:href="#m37f335a2b3" y="62.714488"/>
     <use style="fill:#ff0000;stroke:#ff0000;" x="365.189371" xlink:href="#m37f335a2b3" y="62.45272"/>
     <use style="fill:#ff0000;stroke:#ff0000;" x="369.351608" xlink:href="#m37f335a2b3" y="64.161913"/>
     <use style="fill:#ff0000;stroke:#ff0000;" x="373.513846" xlink:href="#m37f335a2b3" y="63.669172"/>
     <use style="fill:#ff0000;stroke:#ff0000;" x="377.676084" xlink:href="#m37f335a2b3" y="63.823154"/>
     <use style="fill:#ff0000;stroke:#ff0000;" x="381.838322" xlink:href="#m37f335a2b3" y="63.576784"/>
     <use style="fill:#ff0000;stroke:#ff0000;" x="386.000559" xlink:href="#m37f335a2b3" y="63.022451"/>
     <use style="fill:#ff0000;stroke:#ff0000;" x="390.162797" xlink:href="#m37f335a2b3" y="62.360331"/>
     <use style="fill:#ff0000;stroke:#ff0000;" x="394.325035" xlink:href="#m37f335a2b3" y="66.887381"/>
     <use style="fill:#ff0000;stroke:#ff0000;" x="398.487273" xlink:href="#m37f335a2b3" y="71.291246"/>
    </g>
   </g>
   <g id="patch_3">
    <path d="M 57.6 307.584 
L 57.6 41.472 
" style="fill:none;stroke:#000000;stroke-linecap:square;stroke-linejoin:miter;stroke-width:0.8;"/>
   </g>
   <g id="patch_4">
    <path d="M 414.72 307.584 
L 414.72 41.472 
" style="fill:none;stroke:#000000;stroke-linecap:square;stroke-linejoin:miter;stroke-width:0.8;"/>
   </g>
   <g id="patch_5">
    <path d="M 57.6 307.584 
L 414.72 307.584 
" style="fill:none;stroke:#000000;stroke-linecap:square;stroke-linejoin:miter;stroke-width:0.8;"/>
   </g>
   <g id="patch_6">
    <path d="M 57.6 41.472 
L 414.72 41.472 
" style="fill:none;stroke:#000000;stroke-linecap:square;stroke-linejoin:miter;stroke-width:0.8;"/>
   </g>
   <g id="legend_1">
    <g id="patch_7">
     <path d="M 64.6 78.82825 
L 125.85 78.82825 
Q 127.85 78.82825 127.85 76.82825 
L 127.85 48.472 
Q 127.85 46.472 125.85 46.472 
L 64.6 46.472 
Q 62.6 46.472 62.6 48.472 
L 62.6 76.82825 
Q 62.6 78.82825 64.6 78.82825 
z
" style="fill:#ffffff;opacity:0.8;stroke:#cccccc;stroke-linejoin:miter;"/>
    </g>
    <g id="line2d_29">
     <path d="M 66.6 54.570437 
L 86.6 54.570437 
" style="fill:none;stroke:#0000ff;stroke-linecap:square;"/>
    </g>
    <g id="line2d_30">
     <g>
      <use style="fill:#0000ff;stroke:#0000ff;" x="76.6" xlink:href="#maa4c0d4682" y="54.570437"/>
     </g>
    </g>
    <g id="text_29">
     <!-- OLSR -->
     <defs>
      <path d="M 39.40625 66.21875 
Q 28.65625 66.21875 22.328125 58.203125 
Q 16.015625 50.203125 16.015625 36.375 
Q 16.015625 22.609375 22.328125 14.59375 
Q 28.65625 6.59375 39.40625 6.59375 
Q 50.140625 6.59375 56.421875 14.59375 
Q 62.703125 22.609375 62.703125 36.375 
Q 62.703125 50.203125 56.421875 58.203125 
Q 50.140625 66.21875 39.40625 66.21875 
z
M 39.40625 74.21875 
Q 54.734375 74.21875 63.90625 63.9375 
Q 73.09375 53.65625 73.09375 36.375 
Q 73.09375 19.140625 63.90625 8.859375 
Q 54.734375 -1.421875 39.40625 -1.421875 
Q 24.03125 -1.421875 14.8125 8.828125 
Q 5.609375 19.09375 5.609375 36.375 
Q 5.609375 53.65625 14.8125 63.9375 
Q 24.03125 74.21875 39.40625 74.21875 
z
" id="DejaVuSans-79"/>
      <path d="M 9.8125 72.90625 
L 19.671875 72.90625 
L 19.671875 8.296875 
L 55.171875 8.296875 
L 55.171875 0 
L 9.8125 0 
z
" id="DejaVuSans-76"/>
      <path d="M 53.515625 70.515625 
L 53.515625 60.890625 
Q 47.90625 63.578125 42.921875 64.890625 
Q 37.9375 66.21875 33.296875 66.21875 
Q 25.25 66.21875 20.875 63.09375 
Q 16.5 59.96875 16.5 54.203125 
Q 16.5 49.359375 19.40625 46.890625 
Q 22.3125 44.4375 30.421875 42.921875 
L 36.375 41.703125 
Q 47.40625 39.59375 52.65625 34.296875 
Q 57.90625 29 57.90625 20.125 
Q 57.90625 9.515625 50.796875 4.046875 
Q 43.703125 -1.421875 29.984375 -1.421875 
Q 24.8125 -1.421875 18.96875 -0.25 
Q 13.140625 0.921875 6.890625 3.21875 
L 6.890625 13.375 
Q 12.890625 10.015625 18.65625 8.296875 
Q 24.421875 6.59375 29.984375 6.59375 
Q 38.421875 6.59375 43.015625 9.90625 
Q 47.609375 13.234375 47.609375 19.390625 
Q 47.609375 24.75 44.3125 27.78125 
Q 41.015625 30.8125 33.5 32.328125 
L 27.484375 33.5 
Q 16.453125 35.6875 11.515625 40.375 
Q 6.59375 45.0625 6.59375 53.421875 
Q 6.59375 63.09375 13.40625 68.65625 
Q 20.21875 74.21875 32.171875 74.21875 
Q 37.3125 74.21875 42.625 73.28125 
Q 47.953125 72.359375 53.515625 70.515625 
z
" id="DejaVuSans-83"/>
      <path d="M 44.390625 34.1875 
Q 47.5625 33.109375 50.5625 29.59375 
Q 53.5625 26.078125 56.59375 19.921875 
L 66.609375 0 
L 56 0 
L 46.6875 18.703125 
Q 43.0625 26.03125 39.671875 28.421875 
Q 36.28125 30.8125 30.421875 30.8125 
L 19.671875 30.8125 
L 19.671875 0 
L 9.8125 0 
L 9.8125 72.90625 
L 32.078125 72.90625 
Q 44.578125 72.90625 50.734375 67.671875 
Q 56.890625 62.453125 56.890625 51.90625 
Q 56.890625 45.015625 53.6875 40.46875 
Q 50.484375 35.9375 44.390625 34.1875 
z
M 19.671875 64.796875 
L 19.671875 38.921875 
L 32.078125 38.921875 
Q 39.203125 38.921875 42.84375 42.21875 
Q 46.484375 45.515625 46.484375 51.90625 
Q 46.484375 58.296875 42.84375 61.546875 
Q 39.203125 64.796875 32.078125 64.796875 
z
" id="DejaVuSans-82"/>
     </defs>
     <g transform="translate(94.6 58.070437)scale(0.1 -0.1)">
      <use xlink:href="#DejaVuSans-79"/>
      <use x="78.710938" xlink:href="#DejaVuSans-76"/>
      <use x="134.423828" xlink:href="#DejaVuSans-83"/>
      <use x="197.900391" xlink:href="#DejaVuSans-82"/>
     </g>
    </g>
    <g id="line2d_31">
     <path d="M 66.6 69.248562 
L 86.6 69.248562 
" style="fill:none;stroke:#ff0000;stroke-linecap:square;"/>
    </g>
    <g id="line2d_32">
     <g>
      <use style="fill:#ff0000;stroke:#ff0000;" x="76.6" xlink:href="#m37f335a2b3" y="69.248562"/>
     </g>
    </g>
    <g id="text_30">
     <!-- AODV -->
     <defs>
      <path d="M 34.1875 63.1875 
L 20.796875 26.90625 
L 47.609375 26.90625 
z
M 28.609375 72.90625 
L 39.796875 72.90625 
L 67.578125 0 
L 57.328125 0 
L 50.6875 18.703125 
L 17.828125 18.703125 
L 11.1875 0 
L 0.78125 0 
z
" id="DejaVuSans-65"/>
      <path d="M 28.609375 0 
L 0.78125 72.90625 
L 11.078125 72.90625 
L 34.1875 11.53125 
L 57.328125 72.90625 
L 67.578125 72.90625 
L 39.796875 0 
z
" id="DejaVuSans-86"/>
     </defs>
     <g transform="translate(94.6 72.748562)scale(0.1 -0.1)">
      <use xlink:href="#DejaVuSans-65"/>
      <use x="68.392578" xlink:href="#DejaVuSans-79"/>
      <use x="147.103516" xlink:href="#DejaVuSans-68"/>
      <use x="224.089844" xlink:href="#DejaVuSans-86"/>
     </g>
    </g>
   </g>
  </g>
  <g id="text_31">
   <!-- Nombre de paquets reçus en fonction du débit source -->
   <defs>
    <path d="M 54.890625 33.015625 
L 54.890625 0 
L 45.90625 0 
L 45.90625 32.71875 
Q 45.90625 40.484375 42.875 44.328125 
Q 39.84375 48.1875 33.796875 48.1875 
Q 26.515625 48.1875 22.3125 43.546875 
Q 18.109375 38.921875 18.109375 30.90625 
L 18.109375 0 
L 9.078125 0 
L 9.078125 54.6875 
L 18.109375 54.6875 
L 18.109375 46.1875 
Q 21.34375 51.125 25.703125 53.5625 
Q 30.078125 56 35.796875 56 
Q 45.21875 56 50.046875 50.171875 
Q 54.890625 44.34375 54.890625 33.015625 
z
" id="DejaVuSans-110"/>
    <path d="M 37.109375 75.984375 
L 37.109375 68.5 
L 28.515625 68.5 
Q 23.6875 68.5 21.796875 66.546875 
Q 19.921875 64.59375 19.921875 59.515625 
L 19.921875 54.6875 
L 34.71875 54.6875 
L 34.71875 47.703125 
L 19.921875 47.703125 
L 19.921875 0 
L 10.890625 0 
L 10.890625 47.703125 
L 2.296875 47.703125 
L 2.296875 54.6875 
L 10.890625 54.6875 
L 10.890625 58.5 
Q 10.890625 67.625 15.140625 71.796875 
Q 19.390625 75.984375 28.609375 75.984375 
z
" id="DejaVuSans-102"/>
   </defs>
   <g transform="translate(68.155313 16.510125)scale(0.12 -0.12)">
    <use xlink:href="#DejaVuSans-78"/>
    <use x="74.804688" xlink:href="#DejaVuSans-111"/>
    <use x="135.986328" xlink:href="#DejaVuSans-109"/>
    <use x="233.398438" xlink:href="#DejaVuSans-98"/>
    <use x="296.875" xlink:href="#DejaVuSans-114"/>
    <use x="337.957031" xlink:href="#DejaVuSans-101"/>
    <use x="399.480469" xlink:href="#DejaVuSans-32"/>
    <use x="431.267578" xlink:href="#DejaVuSans-100"/>
    <use x="494.744141" xlink:href="#DejaVuSans-101"/>
    <use x="556.267578" xlink:href="#DejaVuSans-32"/>
    <use x="588.054688" xlink:href="#DejaVuSans-112"/>
    <use x="651.53125" xlink:href="#DejaVuSans-97"/>
    <use x="712.810547" xlink:href="#DejaVuSans-113"/>
    <use x="776.287109" xlink:href="#DejaVuSans-117"/>
    <use x="839.666016" xlink:href="#DejaVuSans-101"/>
    <use x="901.189453" xlink:href="#DejaVuSans-116"/>
    <use x="940.398438" xlink:href="#DejaVuSans-115"/>
    <use x="992.498047" xlink:href="#DejaVuSans-32"/>
    <use x="1024.285156" xlink:href="#DejaVuSans-114"/>
    <use x="1065.367188" xlink:href="#DejaVuSans-101"/>
    <use x="1126.890625" xlink:href="#DejaVuSans-231"/>
    <use x="1181.871094" xlink:href="#DejaVuSans-117"/>
    <use x="1245.25" xlink:href="#DejaVuSans-115"/>
    <use x="1297.349609" xlink:href="#DejaVuSans-32"/>
    <use x="1329.136719" xlink:href="#DejaVuSans-101"/>
    <use x="1390.660156" xlink:href="#DejaVuSans-110"/>
    <use x="1454.039062" xlink:href="#DejaVuSans-32"/>
    <use x="1485.826172" xlink:href="#DejaVuSans-102"/>
    <use x="1521.03125" xlink:href="#DejaVuSans-111"/>
    <use x="1582.212891" xlink:href="#DejaVuSans-110"/>
    <use x="1645.591797" xlink:href="#DejaVuSans-99"/>
    <use x="1700.572266" xlink:href="#DejaVuSans-116"/>
    <use x="1739.78125" xlink:href="#DejaVuSans-105"/>
    <use x="1767.564453" xlink:href="#DejaVuSans-111"/>
    <use x="1828.746094" xlink:href="#DejaVuSans-110"/>
    <use x="1892.125" xlink:href="#DejaVuSans-32"/>
    <use x="1923.912109" xlink:href="#DejaVuSans-100"/>
    <use x="1987.388672" xlink:href="#DejaVuSans-117"/>
    <use x="2050.767578" xlink:href="#DejaVuSans-32"/>
    <use x="2082.554688" xlink:href="#DejaVuSans-100"/>
    <use x="2146.03125" xlink:href="#DejaVuSans-233"/>
    <use x="2207.554688" xlink:href="#DejaVuSans-98"/>
    <use x="2271.03125" xlink:href="#DejaVuSans-105"/>
    <use x="2298.814453" xlink:href="#DejaVuSans-116"/>
    <use x="2338.023438" xlink:href="#DejaVuSans-32"/>
    <use x="2369.810547" xlink:href="#DejaVuSans-115"/>
    <use x="2421.910156" xlink:href="#DejaVuSans-111"/>
    <use x="2483.091797" xlink:href="#DejaVuSans-117"/>
    <use x="2546.470703" xlink:href="#DejaVuSans-114"/>
    <use x="2587.552734" xlink:href="#DejaVuSans-99"/>
    <use x="2642.533203" xlink:href="#DejaVuSans-101"/>
   </g>
  </g>
 </g>
 <defs>
  <clipPath id="pea99bbb733">
   <rect height="266.112" width="357.12" x="57.6" y="41.472"/>
  </clipPath>
 </defs>
</svg>
