<?xml version="1.0" encoding="utf-8" standalone="no"?>
<!DOCTYPE svg PUBLIC "-//W3C//DTD SVG 1.1//EN"
  "http://www.w3.org/Graphics/SVG/1.1/DTD/svg11.dtd">
<!-- Created with matplotlib (https://matplotlib.org/) -->
<svg height="345.6pt" version="1.1" viewBox="0 0 460.8 345.6" width="460.8pt" xmlns="http://www.w3.org/2000/svg" xmlns:xlink="http://www.w3.org/1999/xlink">
 <defs>
  <style type="text/css">
*{stroke-linecap:butt;stroke-linejoin:round;}
  </style>
 </defs>
 <g id="figure_1">
  <g id="patch_1">
   <path d="M 0 345.6 
L 460.8 345.6 
L 460.8 0 
L 0 0 
z
" style="fill:#ffffff;"/>
  </g>
  <g id="axes_1">
   <g id="patch_2">
    <path d="M 57.6 307.584 
L 414.72 307.584 
L 414.72 41.472 
L 57.6 41.472 
z
" style="fill:#ffffff;"/>
   </g>
   <g id="matplotlib.axis_1">
    <g id="xtick_1">
     <g id="line2d_1">
      <defs>
       <path d="M 0 0 
L 0 3.5 
" id="m606eb88bee" style="stroke:#000000;stroke-width:0.8;"/>
      </defs>
      <g>
       <use style="stroke:#000000;stroke-width:0.8;" x="71.639115" xlink:href="#m606eb88bee" y="307.584"/>
      </g>
     </g>
     <g id="text_1">
      <!-- 0 -->
      <defs>
       <path d="M 31.78125 66.40625 
Q 24.171875 66.40625 20.328125 58.90625 
Q 16.5 51.421875 16.5 36.375 
Q 16.5 21.390625 20.328125 13.890625 
Q 24.171875 6.390625 31.78125 6.390625 
Q 39.453125 6.390625 43.28125 13.890625 
Q 47.125 21.390625 47.125 36.375 
Q 47.125 51.421875 43.28125 58.90625 
Q 39.453125 66.40625 31.78125 66.40625 
z
M 31.78125 74.21875 
Q 44.046875 74.21875 50.515625 64.515625 
Q 56.984375 54.828125 56.984375 36.375 
Q 56.984375 17.96875 50.515625 8.265625 
Q 44.046875 -1.421875 31.78125 -1.421875 
Q 19.53125 -1.421875 13.0625 8.265625 
Q 6.59375 17.96875 6.59375 36.375 
Q 6.59375 54.828125 13.0625 64.515625 
Q 19.53125 74.21875 31.78125 74.21875 
z
" id="DejaVuSans-48"/>
      </defs>
      <g transform="translate(68.457865 322.182437)scale(0.1 -0.1)">
       <use xlink:href="#DejaVuSans-48"/>
      </g>
     </g>
    </g>
    <g id="xtick_2">
     <g id="line2d_2">
      <g>
       <use style="stroke:#000000;stroke-width:0.8;" x="115.511351" xlink:href="#m606eb88bee" y="307.584"/>
      </g>
     </g>
     <g id="text_2">
      <!-- 20 -->
      <defs>
       <path d="M 19.1875 8.296875 
L 53.609375 8.296875 
L 53.609375 0 
L 7.328125 0 
L 7.328125 8.296875 
Q 12.9375 14.109375 22.625 23.890625 
Q 32.328125 33.6875 34.8125 36.53125 
Q 39.546875 41.84375 41.421875 45.53125 
Q 43.3125 49.21875 43.3125 52.78125 
Q 43.3125 58.59375 39.234375 62.25 
Q 35.15625 65.921875 28.609375 65.921875 
Q 23.96875 65.921875 18.8125 64.3125 
Q 13.671875 62.703125 7.8125 59.421875 
L 7.8125 69.390625 
Q 13.765625 71.78125 18.9375 73 
Q 24.125 74.21875 28.421875 74.21875 
Q 39.75 74.21875 46.484375 68.546875 
Q 53.21875 62.890625 53.21875 53.421875 
Q 53.21875 48.921875 51.53125 44.890625 
Q 49.859375 40.875 45.40625 35.40625 
Q 44.1875 33.984375 37.640625 27.21875 
Q 31.109375 20.453125 19.1875 8.296875 
z
" id="DejaVuSans-50"/>
      </defs>
      <g transform="translate(109.148851 322.182437)scale(0.1 -0.1)">
       <use xlink:href="#DejaVuSans-50"/>
       <use x="63.623047" xlink:href="#DejaVuSans-48"/>
      </g>
     </g>
    </g>
    <g id="xtick_3">
     <g id="line2d_3">
      <g>
       <use style="stroke:#000000;stroke-width:0.8;" x="159.383587" xlink:href="#m606eb88bee" y="307.584"/>
      </g>
     </g>
     <g id="text_3">
      <!-- 40 -->
      <defs>
       <path d="M 37.796875 64.3125 
L 12.890625 25.390625 
L 37.796875 25.390625 
z
M 35.203125 72.90625 
L 47.609375 72.90625 
L 47.609375 25.390625 
L 58.015625 25.390625 
L 58.015625 17.1875 
L 47.609375 17.1875 
L 47.609375 0 
L 37.796875 0 
L 37.796875 17.1875 
L 4.890625 17.1875 
L 4.890625 26.703125 
z
" id="DejaVuSans-52"/>
      </defs>
      <g transform="translate(153.021087 322.182437)scale(0.1 -0.1)">
       <use xlink:href="#DejaVuSans-52"/>
       <use x="63.623047" xlink:href="#DejaVuSans-48"/>
      </g>
     </g>
    </g>
    <g id="xtick_4">
     <g id="line2d_4">
      <g>
       <use style="stroke:#000000;stroke-width:0.8;" x="203.255823" xlink:href="#m606eb88bee" y="307.584"/>
      </g>
     </g>
     <g id="text_4">
      <!-- 60 -->
      <defs>
       <path d="M 33.015625 40.375 
Q 26.375 40.375 22.484375 35.828125 
Q 18.609375 31.296875 18.609375 23.390625 
Q 18.609375 15.53125 22.484375 10.953125 
Q 26.375 6.390625 33.015625 6.390625 
Q 39.65625 6.390625 43.53125 10.953125 
Q 47.40625 15.53125 47.40625 23.390625 
Q 47.40625 31.296875 43.53125 35.828125 
Q 39.65625 40.375 33.015625 40.375 
z
M 52.59375 71.296875 
L 52.59375 62.3125 
Q 48.875 64.0625 45.09375 64.984375 
Q 41.3125 65.921875 37.59375 65.921875 
Q 27.828125 65.921875 22.671875 59.328125 
Q 17.53125 52.734375 16.796875 39.40625 
Q 19.671875 43.65625 24.015625 45.921875 
Q 28.375 48.1875 33.59375 48.1875 
Q 44.578125 48.1875 50.953125 41.515625 
Q 57.328125 34.859375 57.328125 23.390625 
Q 57.328125 12.15625 50.6875 5.359375 
Q 44.046875 -1.421875 33.015625 -1.421875 
Q 20.359375 -1.421875 13.671875 8.265625 
Q 6.984375 17.96875 6.984375 36.375 
Q 6.984375 53.65625 15.1875 63.9375 
Q 23.390625 74.21875 37.203125 74.21875 
Q 40.921875 74.21875 44.703125 73.484375 
Q 48.484375 72.75 52.59375 71.296875 
z
" id="DejaVuSans-54"/>
      </defs>
      <g transform="translate(196.893323 322.182437)scale(0.1 -0.1)">
       <use xlink:href="#DejaVuSans-54"/>
       <use x="63.623047" xlink:href="#DejaVuSans-48"/>
      </g>
     </g>
    </g>
    <g id="xtick_5">
     <g id="line2d_5">
      <g>
       <use style="stroke:#000000;stroke-width:0.8;" x="247.128059" xlink:href="#m606eb88bee" y="307.584"/>
      </g>
     </g>
     <g id="text_5">
      <!-- 80 -->
      <defs>
       <path d="M 31.78125 34.625 
Q 24.75 34.625 20.71875 30.859375 
Q 16.703125 27.09375 16.703125 20.515625 
Q 16.703125 13.921875 20.71875 10.15625 
Q 24.75 6.390625 31.78125 6.390625 
Q 38.8125 6.390625 42.859375 10.171875 
Q 46.921875 13.96875 46.921875 20.515625 
Q 46.921875 27.09375 42.890625 30.859375 
Q 38.875 34.625 31.78125 34.625 
z
M 21.921875 38.8125 
Q 15.578125 40.375 12.03125 44.71875 
Q 8.5 49.078125 8.5 55.328125 
Q 8.5 64.0625 14.71875 69.140625 
Q 20.953125 74.21875 31.78125 74.21875 
Q 42.671875 74.21875 48.875 69.140625 
Q 55.078125 64.0625 55.078125 55.328125 
Q 55.078125 49.078125 51.53125 44.71875 
Q 48 40.375 41.703125 38.8125 
Q 48.828125 37.15625 52.796875 32.3125 
Q 56.78125 27.484375 56.78125 20.515625 
Q 56.78125 9.90625 50.3125 4.234375 
Q 43.84375 -1.421875 31.78125 -1.421875 
Q 19.734375 -1.421875 13.25 4.234375 
Q 6.78125 9.90625 6.78125 20.515625 
Q 6.78125 27.484375 10.78125 32.3125 
Q 14.796875 37.15625 21.921875 38.8125 
z
M 18.3125 54.390625 
Q 18.3125 48.734375 21.84375 45.5625 
Q 25.390625 42.390625 31.78125 42.390625 
Q 38.140625 42.390625 41.71875 45.5625 
Q 45.3125 48.734375 45.3125 54.390625 
Q 45.3125 60.0625 41.71875 63.234375 
Q 38.140625 66.40625 31.78125 66.40625 
Q 25.390625 66.40625 21.84375 63.234375 
Q 18.3125 60.0625 18.3125 54.390625 
z
" id="DejaVuSans-56"/>
      </defs>
      <g transform="translate(240.765559 322.182437)scale(0.1 -0.1)">
       <use xlink:href="#DejaVuSans-56"/>
       <use x="63.623047" xlink:href="#DejaVuSans-48"/>
      </g>
     </g>
    </g>
    <g id="xtick_6">
     <g id="line2d_6">
      <g>
       <use style="stroke:#000000;stroke-width:0.8;" x="291.000295" xlink:href="#m606eb88bee" y="307.584"/>
      </g>
     </g>
     <g id="text_6">
      <!-- 100 -->
      <defs>
       <path d="M 12.40625 8.296875 
L 28.515625 8.296875 
L 28.515625 63.921875 
L 10.984375 60.40625 
L 10.984375 69.390625 
L 28.421875 72.90625 
L 38.28125 72.90625 
L 38.28125 8.296875 
L 54.390625 8.296875 
L 54.390625 0 
L 12.40625 0 
z
" id="DejaVuSans-49"/>
      </defs>
      <g transform="translate(281.456545 322.182437)scale(0.1 -0.1)">
       <use xlink:href="#DejaVuSans-49"/>
       <use x="63.623047" xlink:href="#DejaVuSans-48"/>
       <use x="127.246094" xlink:href="#DejaVuSans-48"/>
      </g>
     </g>
    </g>
    <g id="xtick_7">
     <g id="line2d_7">
      <g>
       <use style="stroke:#000000;stroke-width:0.8;" x="334.872531" xlink:href="#m606eb88bee" y="307.584"/>
      </g>
     </g>
     <g id="text_7">
      <!-- 120 -->
      <g transform="translate(325.328781 322.182437)scale(0.1 -0.1)">
       <use xlink:href="#DejaVuSans-49"/>
       <use x="63.623047" xlink:href="#DejaVuSans-50"/>
       <use x="127.246094" xlink:href="#DejaVuSans-48"/>
      </g>
     </g>
    </g>
    <g id="xtick_8">
     <g id="line2d_8">
      <g>
       <use style="stroke:#000000;stroke-width:0.8;" x="378.744767" xlink:href="#m606eb88bee" y="307.584"/>
      </g>
     </g>
     <g id="text_8">
      <!-- 140 -->
      <g transform="translate(369.201017 322.182437)scale(0.1 -0.1)">
       <use xlink:href="#DejaVuSans-49"/>
       <use x="63.623047" xlink:href="#DejaVuSans-52"/>
       <use x="127.246094" xlink:href="#DejaVuSans-48"/>
      </g>
     </g>
    </g>
    <g id="text_9">
     <!-- Distance (m) -->
     <defs>
      <path d="M 19.671875 64.796875 
L 19.671875 8.109375 
L 31.59375 8.109375 
Q 46.6875 8.109375 53.6875 14.9375 
Q 60.6875 21.78125 60.6875 36.53125 
Q 60.6875 51.171875 53.6875 57.984375 
Q 46.6875 64.796875 31.59375 64.796875 
z
M 9.8125 72.90625 
L 30.078125 72.90625 
Q 51.265625 72.90625 61.171875 64.09375 
Q 71.09375 55.28125 71.09375 36.53125 
Q 71.09375 17.671875 61.125 8.828125 
Q 51.171875 0 30.078125 0 
L 9.8125 0 
z
" id="DejaVuSans-68"/>
      <path d="M 9.421875 54.6875 
L 18.40625 54.6875 
L 18.40625 0 
L 9.421875 0 
z
M 9.421875 75.984375 
L 18.40625 75.984375 
L 18.40625 64.59375 
L 9.421875 64.59375 
z
" id="DejaVuSans-105"/>
      <path d="M 44.28125 53.078125 
L 44.28125 44.578125 
Q 40.484375 46.53125 36.375 47.5 
Q 32.28125 48.484375 27.875 48.484375 
Q 21.1875 48.484375 17.84375 46.4375 
Q 14.5 44.390625 14.5 40.28125 
Q 14.5 37.15625 16.890625 35.375 
Q 19.28125 33.59375 26.515625 31.984375 
L 29.59375 31.296875 
Q 39.15625 29.25 43.1875 25.515625 
Q 47.21875 21.78125 47.21875 15.09375 
Q 47.21875 7.46875 41.1875 3.015625 
Q 35.15625 -1.421875 24.609375 -1.421875 
Q 20.21875 -1.421875 15.453125 -0.5625 
Q 10.6875 0.296875 5.421875 2 
L 5.421875 11.28125 
Q 10.40625 8.6875 15.234375 7.390625 
Q 20.0625 6.109375 24.8125 6.109375 
Q 31.15625 6.109375 34.5625 8.28125 
Q 37.984375 10.453125 37.984375 14.40625 
Q 37.984375 18.0625 35.515625 20.015625 
Q 33.0625 21.96875 24.703125 23.78125 
L 21.578125 24.515625 
Q 13.234375 26.265625 9.515625 29.90625 
Q 5.8125 33.546875 5.8125 39.890625 
Q 5.8125 47.609375 11.28125 51.796875 
Q 16.75 56 26.8125 56 
Q 31.78125 56 36.171875 55.265625 
Q 40.578125 54.546875 44.28125 53.078125 
z
" id="DejaVuSans-115"/>
      <path d="M 18.3125 70.21875 
L 18.3125 54.6875 
L 36.8125 54.6875 
L 36.8125 47.703125 
L 18.3125 47.703125 
L 18.3125 18.015625 
Q 18.3125 11.328125 20.140625 9.421875 
Q 21.96875 7.515625 27.59375 7.515625 
L 36.8125 7.515625 
L 36.8125 0 
L 27.59375 0 
Q 17.1875 0 13.234375 3.875 
Q 9.28125 7.765625 9.28125 18.015625 
L 9.28125 47.703125 
L 2.6875 47.703125 
L 2.6875 54.6875 
L 9.28125 54.6875 
L 9.28125 70.21875 
z
" id="DejaVuSans-116"/>
      <path d="M 34.28125 27.484375 
Q 23.390625 27.484375 19.1875 25 
Q 14.984375 22.515625 14.984375 16.5 
Q 14.984375 11.71875 18.140625 8.90625 
Q 21.296875 6.109375 26.703125 6.109375 
Q 34.1875 6.109375 38.703125 11.40625 
Q 43.21875 16.703125 43.21875 25.484375 
L 43.21875 27.484375 
z
M 52.203125 31.203125 
L 52.203125 0 
L 43.21875 0 
L 43.21875 8.296875 
Q 40.140625 3.328125 35.546875 0.953125 
Q 30.953125 -1.421875 24.3125 -1.421875 
Q 15.921875 -1.421875 10.953125 3.296875 
Q 6 8.015625 6 15.921875 
Q 6 25.140625 12.171875 29.828125 
Q 18.359375 34.515625 30.609375 34.515625 
L 43.21875 34.515625 
L 43.21875 35.40625 
Q 43.21875 41.609375 39.140625 45 
Q 35.0625 48.390625 27.6875 48.390625 
Q 23 48.390625 18.546875 47.265625 
Q 14.109375 46.140625 10.015625 43.890625 
L 10.015625 52.203125 
Q 14.9375 54.109375 19.578125 55.046875 
Q 24.21875 56 28.609375 56 
Q 40.484375 56 46.34375 49.84375 
Q 52.203125 43.703125 52.203125 31.203125 
z
" id="DejaVuSans-97"/>
      <path d="M 54.890625 33.015625 
L 54.890625 0 
L 45.90625 0 
L 45.90625 32.71875 
Q 45.90625 40.484375 42.875 44.328125 
Q 39.84375 48.1875 33.796875 48.1875 
Q 26.515625 48.1875 22.3125 43.546875 
Q 18.109375 38.921875 18.109375 30.90625 
L 18.109375 0 
L 9.078125 0 
L 9.078125 54.6875 
L 18.109375 54.6875 
L 18.109375 46.1875 
Q 21.34375 51.125 25.703125 53.5625 
Q 30.078125 56 35.796875 56 
Q 45.21875 56 50.046875 50.171875 
Q 54.890625 44.34375 54.890625 33.015625 
z
" id="DejaVuSans-110"/>
      <path d="M 48.78125 52.59375 
L 48.78125 44.1875 
Q 44.96875 46.296875 41.140625 47.34375 
Q 37.3125 48.390625 33.40625 48.390625 
Q 24.65625 48.390625 19.8125 42.84375 
Q 14.984375 37.3125 14.984375 27.296875 
Q 14.984375 17.28125 19.8125 11.734375 
Q 24.65625 6.203125 33.40625 6.203125 
Q 37.3125 6.203125 41.140625 7.25 
Q 44.96875 8.296875 48.78125 10.40625 
L 48.78125 2.09375 
Q 45.015625 0.34375 40.984375 -0.53125 
Q 36.96875 -1.421875 32.421875 -1.421875 
Q 20.0625 -1.421875 12.78125 6.34375 
Q 5.515625 14.109375 5.515625 27.296875 
Q 5.515625 40.671875 12.859375 48.328125 
Q 20.21875 56 33.015625 56 
Q 37.15625 56 41.109375 55.140625 
Q 45.0625 54.296875 48.78125 52.59375 
z
" id="DejaVuSans-99"/>
      <path d="M 56.203125 29.59375 
L 56.203125 25.203125 
L 14.890625 25.203125 
Q 15.484375 15.921875 20.484375 11.0625 
Q 25.484375 6.203125 34.421875 6.203125 
Q 39.59375 6.203125 44.453125 7.46875 
Q 49.3125 8.734375 54.109375 11.28125 
L 54.109375 2.78125 
Q 49.265625 0.734375 44.1875 -0.34375 
Q 39.109375 -1.421875 33.890625 -1.421875 
Q 20.796875 -1.421875 13.15625 6.1875 
Q 5.515625 13.8125 5.515625 26.8125 
Q 5.515625 40.234375 12.765625 48.109375 
Q 20.015625 56 32.328125 56 
Q 43.359375 56 49.78125 48.890625 
Q 56.203125 41.796875 56.203125 29.59375 
z
M 47.21875 32.234375 
Q 47.125 39.59375 43.09375 43.984375 
Q 39.0625 48.390625 32.421875 48.390625 
Q 24.90625 48.390625 20.390625 44.140625 
Q 15.875 39.890625 15.1875 32.171875 
z
" id="DejaVuSans-101"/>
      <path id="DejaVuSans-32"/>
      <path d="M 31 75.875 
Q 24.46875 64.65625 21.28125 53.65625 
Q 18.109375 42.671875 18.109375 31.390625 
Q 18.109375 20.125 21.3125 9.0625 
Q 24.515625 -2 31 -13.1875 
L 23.1875 -13.1875 
Q 15.875 -1.703125 12.234375 9.375 
Q 8.59375 20.453125 8.59375 31.390625 
Q 8.59375 42.28125 12.203125 53.3125 
Q 15.828125 64.359375 23.1875 75.875 
z
" id="DejaVuSans-40"/>
      <path d="M 52 44.1875 
Q 55.375 50.25 60.0625 53.125 
Q 64.75 56 71.09375 56 
Q 79.640625 56 84.28125 50.015625 
Q 88.921875 44.046875 88.921875 33.015625 
L 88.921875 0 
L 79.890625 0 
L 79.890625 32.71875 
Q 79.890625 40.578125 77.09375 44.375 
Q 74.3125 48.1875 68.609375 48.1875 
Q 61.625 48.1875 57.5625 43.546875 
Q 53.515625 38.921875 53.515625 30.90625 
L 53.515625 0 
L 44.484375 0 
L 44.484375 32.71875 
Q 44.484375 40.625 41.703125 44.40625 
Q 38.921875 48.1875 33.109375 48.1875 
Q 26.21875 48.1875 22.15625 43.53125 
Q 18.109375 38.875 18.109375 30.90625 
L 18.109375 0 
L 9.078125 0 
L 9.078125 54.6875 
L 18.109375 54.6875 
L 18.109375 46.1875 
Q 21.1875 51.21875 25.484375 53.609375 
Q 29.78125 56 35.6875 56 
Q 41.65625 56 45.828125 52.96875 
Q 50 49.953125 52 44.1875 
z
" id="DejaVuSans-109"/>
      <path d="M 8.015625 75.875 
L 15.828125 75.875 
Q 23.140625 64.359375 26.78125 53.3125 
Q 30.421875 42.28125 30.421875 31.390625 
Q 30.421875 20.453125 26.78125 9.375 
Q 23.140625 -1.703125 15.828125 -13.1875 
L 8.015625 -13.1875 
Q 14.5 -2 17.703125 9.0625 
Q 20.90625 20.125 20.90625 31.390625 
Q 20.90625 42.671875 17.703125 53.65625 
Q 14.5 64.65625 8.015625 75.875 
z
" id="DejaVuSans-41"/>
     </defs>
     <g transform="translate(203.936562 335.860562)scale(0.1 -0.1)">
      <use xlink:href="#DejaVuSans-68"/>
      <use x="77.001953" xlink:href="#DejaVuSans-105"/>
      <use x="104.785156" xlink:href="#DejaVuSans-115"/>
      <use x="156.884766" xlink:href="#DejaVuSans-116"/>
      <use x="196.09375" xlink:href="#DejaVuSans-97"/>
      <use x="257.373047" xlink:href="#DejaVuSans-110"/>
      <use x="320.751953" xlink:href="#DejaVuSans-99"/>
      <use x="375.732422" xlink:href="#DejaVuSans-101"/>
      <use x="437.255859" xlink:href="#DejaVuSans-32"/>
      <use x="469.042969" xlink:href="#DejaVuSans-40"/>
      <use x="508.056641" xlink:href="#DejaVuSans-109"/>
      <use x="605.46875" xlink:href="#DejaVuSans-41"/>
     </g>
    </g>
   </g>
   <g id="matplotlib.axis_2">
    <g id="ytick_1">
     <g id="line2d_9">
      <defs>
       <path d="M 0 0 
L -3.5 0 
" id="m70155edaf7" style="stroke:#000000;stroke-width:0.8;"/>
      </defs>
      <g>
       <use style="stroke:#000000;stroke-width:0.8;" x="57.6" xlink:href="#m70155edaf7" y="295.488"/>
      </g>
     </g>
     <g id="text_10">
      <!-- 0 -->
      <g transform="translate(44.2375 299.287219)scale(0.1 -0.1)">
       <use xlink:href="#DejaVuSans-48"/>
      </g>
     </g>
    </g>
    <g id="ytick_2">
     <g id="line2d_10">
      <g>
       <use style="stroke:#000000;stroke-width:0.8;" x="57.6" xlink:href="#m70155edaf7" y="274.592478"/>
      </g>
     </g>
     <g id="text_11">
      <!-- 5 -->
      <defs>
       <path d="M 10.796875 72.90625 
L 49.515625 72.90625 
L 49.515625 64.59375 
L 19.828125 64.59375 
L 19.828125 46.734375 
Q 21.96875 47.46875 24.109375 47.828125 
Q 26.265625 48.1875 28.421875 48.1875 
Q 40.625 48.1875 47.75 41.5 
Q 54.890625 34.8125 54.890625 23.390625 
Q 54.890625 11.625 47.5625 5.09375 
Q 40.234375 -1.421875 26.90625 -1.421875 
Q 22.3125 -1.421875 17.546875 -0.640625 
Q 12.796875 0.140625 7.71875 1.703125 
L 7.71875 11.625 
Q 12.109375 9.234375 16.796875 8.0625 
Q 21.484375 6.890625 26.703125 6.890625 
Q 35.15625 6.890625 40.078125 11.328125 
Q 45.015625 15.765625 45.015625 23.390625 
Q 45.015625 31 40.078125 35.4375 
Q 35.15625 39.890625 26.703125 39.890625 
Q 22.75 39.890625 18.8125 39.015625 
Q 14.890625 38.140625 10.796875 36.28125 
z
" id="DejaVuSans-53"/>
      </defs>
      <g transform="translate(44.2375 278.391696)scale(0.1 -0.1)">
       <use xlink:href="#DejaVuSans-53"/>
      </g>
     </g>
    </g>
    <g id="ytick_3">
     <g id="line2d_11">
      <g>
       <use style="stroke:#000000;stroke-width:0.8;" x="57.6" xlink:href="#m70155edaf7" y="253.696955"/>
      </g>
     </g>
     <g id="text_12">
      <!-- 10 -->
      <g transform="translate(37.875 257.496174)scale(0.1 -0.1)">
       <use xlink:href="#DejaVuSans-49"/>
       <use x="63.623047" xlink:href="#DejaVuSans-48"/>
      </g>
     </g>
    </g>
    <g id="ytick_4">
     <g id="line2d_12">
      <g>
       <use style="stroke:#000000;stroke-width:0.8;" x="57.6" xlink:href="#m70155edaf7" y="232.801433"/>
      </g>
     </g>
     <g id="text_13">
      <!-- 15 -->
      <g transform="translate(37.875 236.600652)scale(0.1 -0.1)">
       <use xlink:href="#DejaVuSans-49"/>
       <use x="63.623047" xlink:href="#DejaVuSans-53"/>
      </g>
     </g>
    </g>
    <g id="ytick_5">
     <g id="line2d_13">
      <g>
       <use style="stroke:#000000;stroke-width:0.8;" x="57.6" xlink:href="#m70155edaf7" y="211.90591"/>
      </g>
     </g>
     <g id="text_14">
      <!-- 20 -->
      <g transform="translate(37.875 215.705129)scale(0.1 -0.1)">
       <use xlink:href="#DejaVuSans-50"/>
       <use x="63.623047" xlink:href="#DejaVuSans-48"/>
      </g>
     </g>
    </g>
    <g id="ytick_6">
     <g id="line2d_14">
      <g>
       <use style="stroke:#000000;stroke-width:0.8;" x="57.6" xlink:href="#m70155edaf7" y="191.010388"/>
      </g>
     </g>
     <g id="text_15">
      <!-- 25 -->
      <g transform="translate(37.875 194.809607)scale(0.1 -0.1)">
       <use xlink:href="#DejaVuSans-50"/>
       <use x="63.623047" xlink:href="#DejaVuSans-53"/>
      </g>
     </g>
    </g>
    <g id="ytick_7">
     <g id="line2d_15">
      <g>
       <use style="stroke:#000000;stroke-width:0.8;" x="57.6" xlink:href="#m70155edaf7" y="170.114866"/>
      </g>
     </g>
     <g id="text_16">
      <!-- 30 -->
      <defs>
       <path d="M 40.578125 39.3125 
Q 47.65625 37.796875 51.625 33 
Q 55.609375 28.21875 55.609375 21.1875 
Q 55.609375 10.40625 48.1875 4.484375 
Q 40.765625 -1.421875 27.09375 -1.421875 
Q 22.515625 -1.421875 17.65625 -0.515625 
Q 12.796875 0.390625 7.625 2.203125 
L 7.625 11.71875 
Q 11.71875 9.328125 16.59375 8.109375 
Q 21.484375 6.890625 26.8125 6.890625 
Q 36.078125 6.890625 40.9375 10.546875 
Q 45.796875 14.203125 45.796875 21.1875 
Q 45.796875 27.640625 41.28125 31.265625 
Q 36.765625 34.90625 28.71875 34.90625 
L 20.21875 34.90625 
L 20.21875 43.015625 
L 29.109375 43.015625 
Q 36.375 43.015625 40.234375 45.921875 
Q 44.09375 48.828125 44.09375 54.296875 
Q 44.09375 59.90625 40.109375 62.90625 
Q 36.140625 65.921875 28.71875 65.921875 
Q 24.65625 65.921875 20.015625 65.03125 
Q 15.375 64.15625 9.8125 62.3125 
L 9.8125 71.09375 
Q 15.4375 72.65625 20.34375 73.4375 
Q 25.25 74.21875 29.59375 74.21875 
Q 40.828125 74.21875 47.359375 69.109375 
Q 53.90625 64.015625 53.90625 55.328125 
Q 53.90625 49.265625 50.4375 45.09375 
Q 46.96875 40.921875 40.578125 39.3125 
z
" id="DejaVuSans-51"/>
      </defs>
      <g transform="translate(37.875 173.914084)scale(0.1 -0.1)">
       <use xlink:href="#DejaVuSans-51"/>
       <use x="63.623047" xlink:href="#DejaVuSans-48"/>
      </g>
     </g>
    </g>
    <g id="ytick_8">
     <g id="line2d_16">
      <g>
       <use style="stroke:#000000;stroke-width:0.8;" x="57.6" xlink:href="#m70155edaf7" y="149.219343"/>
      </g>
     </g>
     <g id="text_17">
      <!-- 35 -->
      <g transform="translate(37.875 153.018562)scale(0.1 -0.1)">
       <use xlink:href="#DejaVuSans-51"/>
       <use x="63.623047" xlink:href="#DejaVuSans-53"/>
      </g>
     </g>
    </g>
    <g id="ytick_9">
     <g id="line2d_17">
      <g>
       <use style="stroke:#000000;stroke-width:0.8;" x="57.6" xlink:href="#m70155edaf7" y="128.323821"/>
      </g>
     </g>
     <g id="text_18">
      <!-- 40 -->
      <g transform="translate(37.875 132.12304)scale(0.1 -0.1)">
       <use xlink:href="#DejaVuSans-52"/>
       <use x="63.623047" xlink:href="#DejaVuSans-48"/>
      </g>
     </g>
    </g>
    <g id="ytick_10">
     <g id="line2d_18">
      <g>
       <use style="stroke:#000000;stroke-width:0.8;" x="57.6" xlink:href="#m70155edaf7" y="107.428299"/>
      </g>
     </g>
     <g id="text_19">
      <!-- 45 -->
      <g transform="translate(37.875 111.227517)scale(0.1 -0.1)">
       <use xlink:href="#DejaVuSans-52"/>
       <use x="63.623047" xlink:href="#DejaVuSans-53"/>
      </g>
     </g>
    </g>
    <g id="ytick_11">
     <g id="line2d_19">
      <g>
       <use style="stroke:#000000;stroke-width:0.8;" x="57.6" xlink:href="#m70155edaf7" y="86.532776"/>
      </g>
     </g>
     <g id="text_20">
      <!-- 50 -->
      <g transform="translate(37.875 90.331995)scale(0.1 -0.1)">
       <use xlink:href="#DejaVuSans-53"/>
       <use x="63.623047" xlink:href="#DejaVuSans-48"/>
      </g>
     </g>
    </g>
    <g id="ytick_12">
     <g id="line2d_20">
      <g>
       <use style="stroke:#000000;stroke-width:0.8;" x="57.6" xlink:href="#m70155edaf7" y="65.637254"/>
      </g>
     </g>
     <g id="text_21">
      <!-- 55 -->
      <g transform="translate(37.875 69.436472)scale(0.1 -0.1)">
       <use xlink:href="#DejaVuSans-53"/>
       <use x="63.623047" xlink:href="#DejaVuSans-53"/>
      </g>
     </g>
    </g>
    <g id="ytick_13">
     <g id="line2d_21">
      <g>
       <use style="stroke:#000000;stroke-width:0.8;" x="57.6" xlink:href="#m70155edaf7" y="44.741731"/>
      </g>
     </g>
     <g id="text_22">
      <!-- 60 -->
      <g transform="translate(37.875 48.54095)scale(0.1 -0.1)">
       <use xlink:href="#DejaVuSans-54"/>
       <use x="63.623047" xlink:href="#DejaVuSans-48"/>
      </g>
     </g>
    </g>
    <g id="text_23">
     <!-- Debit en reception (Mbps) -->
     <defs>
      <path d="M 48.6875 27.296875 
Q 48.6875 37.203125 44.609375 42.84375 
Q 40.53125 48.484375 33.40625 48.484375 
Q 26.265625 48.484375 22.1875 42.84375 
Q 18.109375 37.203125 18.109375 27.296875 
Q 18.109375 17.390625 22.1875 11.75 
Q 26.265625 6.109375 33.40625 6.109375 
Q 40.53125 6.109375 44.609375 11.75 
Q 48.6875 17.390625 48.6875 27.296875 
z
M 18.109375 46.390625 
Q 20.953125 51.265625 25.265625 53.625 
Q 29.59375 56 35.59375 56 
Q 45.5625 56 51.78125 48.09375 
Q 58.015625 40.1875 58.015625 27.296875 
Q 58.015625 14.40625 51.78125 6.484375 
Q 45.5625 -1.421875 35.59375 -1.421875 
Q 29.59375 -1.421875 25.265625 0.953125 
Q 20.953125 3.328125 18.109375 8.203125 
L 18.109375 0 
L 9.078125 0 
L 9.078125 75.984375 
L 18.109375 75.984375 
z
" id="DejaVuSans-98"/>
      <path d="M 41.109375 46.296875 
Q 39.59375 47.171875 37.8125 47.578125 
Q 36.03125 48 33.890625 48 
Q 26.265625 48 22.1875 43.046875 
Q 18.109375 38.09375 18.109375 28.8125 
L 18.109375 0 
L 9.078125 0 
L 9.078125 54.6875 
L 18.109375 54.6875 
L 18.109375 46.1875 
Q 20.953125 51.171875 25.484375 53.578125 
Q 30.03125 56 36.53125 56 
Q 37.453125 56 38.578125 55.875 
Q 39.703125 55.765625 41.0625 55.515625 
z
" id="DejaVuSans-114"/>
      <path d="M 18.109375 8.203125 
L 18.109375 -20.796875 
L 9.078125 -20.796875 
L 9.078125 54.6875 
L 18.109375 54.6875 
L 18.109375 46.390625 
Q 20.953125 51.265625 25.265625 53.625 
Q 29.59375 56 35.59375 56 
Q 45.5625 56 51.78125 48.09375 
Q 58.015625 40.1875 58.015625 27.296875 
Q 58.015625 14.40625 51.78125 6.484375 
Q 45.5625 -1.421875 35.59375 -1.421875 
Q 29.59375 -1.421875 25.265625 0.953125 
Q 20.953125 3.328125 18.109375 8.203125 
z
M 48.6875 27.296875 
Q 48.6875 37.203125 44.609375 42.84375 
Q 40.53125 48.484375 33.40625 48.484375 
Q 26.265625 48.484375 22.1875 42.84375 
Q 18.109375 37.203125 18.109375 27.296875 
Q 18.109375 17.390625 22.1875 11.75 
Q 26.265625 6.109375 33.40625 6.109375 
Q 40.53125 6.109375 44.609375 11.75 
Q 48.6875 17.390625 48.6875 27.296875 
z
" id="DejaVuSans-112"/>
      <path d="M 30.609375 48.390625 
Q 23.390625 48.390625 19.1875 42.75 
Q 14.984375 37.109375 14.984375 27.296875 
Q 14.984375 17.484375 19.15625 11.84375 
Q 23.34375 6.203125 30.609375 6.203125 
Q 37.796875 6.203125 41.984375 11.859375 
Q 46.1875 17.53125 46.1875 27.296875 
Q 46.1875 37.015625 41.984375 42.703125 
Q 37.796875 48.390625 30.609375 48.390625 
z
M 30.609375 56 
Q 42.328125 56 49.015625 48.375 
Q 55.71875 40.765625 55.71875 27.296875 
Q 55.71875 13.875 49.015625 6.21875 
Q 42.328125 -1.421875 30.609375 -1.421875 
Q 18.84375 -1.421875 12.171875 6.21875 
Q 5.515625 13.875 5.515625 27.296875 
Q 5.515625 40.765625 12.171875 48.375 
Q 18.84375 56 30.609375 56 
z
" id="DejaVuSans-111"/>
      <path d="M 9.8125 72.90625 
L 24.515625 72.90625 
L 43.109375 23.296875 
L 61.8125 72.90625 
L 76.515625 72.90625 
L 76.515625 0 
L 66.890625 0 
L 66.890625 64.015625 
L 48.09375 14.015625 
L 38.1875 14.015625 
L 19.390625 64.015625 
L 19.390625 0 
L 9.8125 0 
z
" id="DejaVuSans-77"/>
     </defs>
     <g transform="translate(31.795312 239.867062)rotate(-90)scale(0.1 -0.1)">
      <use xlink:href="#DejaVuSans-68"/>
      <use x="77.001953" xlink:href="#DejaVuSans-101"/>
      <use x="138.525391" xlink:href="#DejaVuSans-98"/>
      <use x="202.001953" xlink:href="#DejaVuSans-105"/>
      <use x="229.785156" xlink:href="#DejaVuSans-116"/>
      <use x="268.994141" xlink:href="#DejaVuSans-32"/>
      <use x="300.78125" xlink:href="#DejaVuSans-101"/>
      <use x="362.304688" xlink:href="#DejaVuSans-110"/>
      <use x="425.683594" xlink:href="#DejaVuSans-32"/>
      <use x="457.470703" xlink:href="#DejaVuSans-114"/>
      <use x="498.552734" xlink:href="#DejaVuSans-101"/>
      <use x="560.076172" xlink:href="#DejaVuSans-99"/>
      <use x="615.056641" xlink:href="#DejaVuSans-101"/>
      <use x="676.580078" xlink:href="#DejaVuSans-112"/>
      <use x="740.056641" xlink:href="#DejaVuSans-116"/>
      <use x="779.265625" xlink:href="#DejaVuSans-105"/>
      <use x="807.048828" xlink:href="#DejaVuSans-111"/>
      <use x="868.230469" xlink:href="#DejaVuSans-110"/>
      <use x="931.609375" xlink:href="#DejaVuSans-32"/>
      <use x="963.396484" xlink:href="#DejaVuSans-40"/>
      <use x="1002.410156" xlink:href="#DejaVuSans-77"/>
      <use x="1088.689453" xlink:href="#DejaVuSans-98"/>
      <use x="1152.166016" xlink:href="#DejaVuSans-112"/>
      <use x="1215.642578" xlink:href="#DejaVuSans-115"/>
      <use x="1267.742188" xlink:href="#DejaVuSans-41"/>
     </g>
    </g>
   </g>
   <g id="line2d_22">
    <path clip-path="url(#p338a9c4840)" d="M 73.832727 273.698149 
L 78.219951 273.698149 
L 82.607174 273.698149 
L 86.994398 273.723224 
L 91.381622 273.723224 
L 95.768845 273.723224 
L 100.156069 273.723224 
L 104.543292 273.723224 
L 108.930516 273.723224 
L 113.31774 273.723224 
L 117.704963 273.723224 
L 122.092187 273.723224 
L 126.47941 273.723224 
L 130.866634 273.723224 
L 135.253857 273.723224 
L 139.641081 273.723224 
L 144.028305 273.723224 
L 148.415528 273.723224 
L 152.802752 273.723224 
L 157.189975 273.723224 
L 161.577199 273.723224 
L 165.964423 273.723224 
L 170.351646 273.723224 
L 174.73887 273.723224 
L 179.126093 273.723224 
L 183.513317 273.723224 
L 187.900541 295.488 
L 192.287764 295.488 
L 196.674988 295.488 
L 201.062211 295.488 
L 205.449435 295.488 
L 209.836658 295.488 
L 214.223882 295.488 
L 218.611106 295.488 
L 222.998329 295.488 
L 227.385553 295.488 
L 231.772776 295.488 
L 236.16 295.488 
L 240.547224 295.488 
L 244.934447 295.488 
L 249.321671 295.488 
L 253.708894 295.488 
L 258.096118 295.488 
L 262.483342 295.488 
L 266.870565 295.488 
L 271.257789 295.488 
L 275.645012 295.488 
L 280.032236 295.488 
L 284.419459 295.488 
L 288.806683 295.488 
L 293.193907 295.488 
L 297.58113 295.488 
L 301.968354 295.488 
L 306.355577 295.488 
L 310.742801 295.488 
L 315.130025 295.488 
L 319.517248 295.488 
L 323.904472 295.488 
L 328.291695 295.488 
L 332.678919 295.488 
L 337.066143 295.488 
L 341.453366 295.488 
L 345.84059 295.488 
L 350.227813 295.488 
L 354.615037 295.488 
L 359.00226 295.488 
L 363.389484 295.488 
L 367.776708 295.488 
L 372.163931 295.488 
L 376.551155 295.488 
L 380.938378 295.488 
L 385.325602 295.488 
L 389.712826 295.488 
L 394.100049 295.488 
L 398.487273 295.488 
" style="fill:none;stroke:#ff0000;stroke-linecap:square;"/>
    <defs>
     <path d="M -0 1 
L 1 -1 
L -1 -1 
z
" id="m4dbd5bdade" style="stroke:#ff0000;stroke-linejoin:miter;"/>
    </defs>
    <g clip-path="url(#p338a9c4840)">
     <use style="fill:#bf00bf;stroke:#ff0000;stroke-linejoin:miter;" x="73.832727" xlink:href="#m4dbd5bdade" y="273.698149"/>
     <use style="fill:#bf00bf;stroke:#ff0000;stroke-linejoin:miter;" x="78.219951" xlink:href="#m4dbd5bdade" y="273.698149"/>
     <use style="fill:#bf00bf;stroke:#ff0000;stroke-linejoin:miter;" x="82.607174" xlink:href="#m4dbd5bdade" y="273.698149"/>
     <use style="fill:#bf00bf;stroke:#ff0000;stroke-linejoin:miter;" x="86.994398" xlink:href="#m4dbd5bdade" y="273.723224"/>
     <use style="fill:#bf00bf;stroke:#ff0000;stroke-linejoin:miter;" x="91.381622" xlink:href="#m4dbd5bdade" y="273.723224"/>
     <use style="fill:#bf00bf;stroke:#ff0000;stroke-linejoin:miter;" x="95.768845" xlink:href="#m4dbd5bdade" y="273.723224"/>
     <use style="fill:#bf00bf;stroke:#ff0000;stroke-linejoin:miter;" x="100.156069" xlink:href="#m4dbd5bdade" y="273.723224"/>
     <use style="fill:#bf00bf;stroke:#ff0000;stroke-linejoin:miter;" x="104.543292" xlink:href="#m4dbd5bdade" y="273.723224"/>
     <use style="fill:#bf00bf;stroke:#ff0000;stroke-linejoin:miter;" x="108.930516" xlink:href="#m4dbd5bdade" y="273.723224"/>
     <use style="fill:#bf00bf;stroke:#ff0000;stroke-linejoin:miter;" x="113.31774" xlink:href="#m4dbd5bdade" y="273.723224"/>
     <use style="fill:#bf00bf;stroke:#ff0000;stroke-linejoin:miter;" x="117.704963" xlink:href="#m4dbd5bdade" y="273.723224"/>
     <use style="fill:#bf00bf;stroke:#ff0000;stroke-linejoin:miter;" x="122.092187" xlink:href="#m4dbd5bdade" y="273.723224"/>
     <use style="fill:#bf00bf;stroke:#ff0000;stroke-linejoin:miter;" x="126.47941" xlink:href="#m4dbd5bdade" y="273.723224"/>
     <use style="fill:#bf00bf;stroke:#ff0000;stroke-linejoin:miter;" x="130.866634" xlink:href="#m4dbd5bdade" y="273.723224"/>
     <use style="fill:#bf00bf;stroke:#ff0000;stroke-linejoin:miter;" x="135.253857" xlink:href="#m4dbd5bdade" y="273.723224"/>
     <use style="fill:#bf00bf;stroke:#ff0000;stroke-linejoin:miter;" x="139.641081" xlink:href="#m4dbd5bdade" y="273.723224"/>
     <use style="fill:#bf00bf;stroke:#ff0000;stroke-linejoin:miter;" x="144.028305" xlink:href="#m4dbd5bdade" y="273.723224"/>
     <use style="fill:#bf00bf;stroke:#ff0000;stroke-linejoin:miter;" x="148.415528" xlink:href="#m4dbd5bdade" y="273.723224"/>
     <use style="fill:#bf00bf;stroke:#ff0000;stroke-linejoin:miter;" x="152.802752" xlink:href="#m4dbd5bdade" y="273.723224"/>
     <use style="fill:#bf00bf;stroke:#ff0000;stroke-linejoin:miter;" x="157.189975" xlink:href="#m4dbd5bdade" y="273.723224"/>
     <use style="fill:#bf00bf;stroke:#ff0000;stroke-linejoin:miter;" x="161.577199" xlink:href="#m4dbd5bdade" y="273.723224"/>
     <use style="fill:#bf00bf;stroke:#ff0000;stroke-linejoin:miter;" x="165.964423" xlink:href="#m4dbd5bdade" y="273.723224"/>
     <use style="fill:#bf00bf;stroke:#ff0000;stroke-linejoin:miter;" x="170.351646" xlink:href="#m4dbd5bdade" y="273.723224"/>
     <use style="fill:#bf00bf;stroke:#ff0000;stroke-linejoin:miter;" x="174.73887" xlink:href="#m4dbd5bdade" y="273.723224"/>
     <use style="fill:#bf00bf;stroke:#ff0000;stroke-linejoin:miter;" x="179.126093" xlink:href="#m4dbd5bdade" y="273.723224"/>
     <use style="fill:#bf00bf;stroke:#ff0000;stroke-linejoin:miter;" x="183.513317" xlink:href="#m4dbd5bdade" y="273.723224"/>
     <use style="fill:#bf00bf;stroke:#ff0000;stroke-linejoin:miter;" x="187.900541" xlink:href="#m4dbd5bdade" y="295.488"/>
     <use style="fill:#bf00bf;stroke:#ff0000;stroke-linejoin:miter;" x="192.287764" xlink:href="#m4dbd5bdade" y="295.488"/>
     <use style="fill:#bf00bf;stroke:#ff0000;stroke-linejoin:miter;" x="196.674988" xlink:href="#m4dbd5bdade" y="295.488"/>
     <use style="fill:#bf00bf;stroke:#ff0000;stroke-linejoin:miter;" x="201.062211" xlink:href="#m4dbd5bdade" y="295.488"/>
     <use style="fill:#bf00bf;stroke:#ff0000;stroke-linejoin:miter;" x="205.449435" xlink:href="#m4dbd5bdade" y="295.488"/>
     <use style="fill:#bf00bf;stroke:#ff0000;stroke-linejoin:miter;" x="209.836658" xlink:href="#m4dbd5bdade" y="295.488"/>
     <use style="fill:#bf00bf;stroke:#ff0000;stroke-linejoin:miter;" x="214.223882" xlink:href="#m4dbd5bdade" y="295.488"/>
     <use style="fill:#bf00bf;stroke:#ff0000;stroke-linejoin:miter;" x="218.611106" xlink:href="#m4dbd5bdade" y="295.488"/>
     <use style="fill:#bf00bf;stroke:#ff0000;stroke-linejoin:miter;" x="222.998329" xlink:href="#m4dbd5bdade" y="295.488"/>
     <use style="fill:#bf00bf;stroke:#ff0000;stroke-linejoin:miter;" x="227.385553" xlink:href="#m4dbd5bdade" y="295.488"/>
     <use style="fill:#bf00bf;stroke:#ff0000;stroke-linejoin:miter;" x="231.772776" xlink:href="#m4dbd5bdade" y="295.488"/>
     <use style="fill:#bf00bf;stroke:#ff0000;stroke-linejoin:miter;" x="236.16" xlink:href="#m4dbd5bdade" y="295.488"/>
     <use style="fill:#bf00bf;stroke:#ff0000;stroke-linejoin:miter;" x="240.547224" xlink:href="#m4dbd5bdade" y="295.488"/>
     <use style="fill:#bf00bf;stroke:#ff0000;stroke-linejoin:miter;" x="244.934447" xlink:href="#m4dbd5bdade" y="295.488"/>
     <use style="fill:#bf00bf;stroke:#ff0000;stroke-linejoin:miter;" x="249.321671" xlink:href="#m4dbd5bdade" y="295.488"/>
     <use style="fill:#bf00bf;stroke:#ff0000;stroke-linejoin:miter;" x="253.708894" xlink:href="#m4dbd5bdade" y="295.488"/>
     <use style="fill:#bf00bf;stroke:#ff0000;stroke-linejoin:miter;" x="258.096118" xlink:href="#m4dbd5bdade" y="295.488"/>
     <use style="fill:#bf00bf;stroke:#ff0000;stroke-linejoin:miter;" x="262.483342" xlink:href="#m4dbd5bdade" y="295.488"/>
     <use style="fill:#bf00bf;stroke:#ff0000;stroke-linejoin:miter;" x="266.870565" xlink:href="#m4dbd5bdade" y="295.488"/>
     <use style="fill:#bf00bf;stroke:#ff0000;stroke-linejoin:miter;" x="271.257789" xlink:href="#m4dbd5bdade" y="295.488"/>
     <use style="fill:#bf00bf;stroke:#ff0000;stroke-linejoin:miter;" x="275.645012" xlink:href="#m4dbd5bdade" y="295.488"/>
     <use style="fill:#bf00bf;stroke:#ff0000;stroke-linejoin:miter;" x="280.032236" xlink:href="#m4dbd5bdade" y="295.488"/>
     <use style="fill:#bf00bf;stroke:#ff0000;stroke-linejoin:miter;" x="284.419459" xlink:href="#m4dbd5bdade" y="295.488"/>
     <use style="fill:#bf00bf;stroke:#ff0000;stroke-linejoin:miter;" x="288.806683" xlink:href="#m4dbd5bdade" y="295.488"/>
     <use style="fill:#bf00bf;stroke:#ff0000;stroke-linejoin:miter;" x="293.193907" xlink:href="#m4dbd5bdade" y="295.488"/>
     <use style="fill:#bf00bf;stroke:#ff0000;stroke-linejoin:miter;" x="297.58113" xlink:href="#m4dbd5bdade" y="295.488"/>
     <use style="fill:#bf00bf;stroke:#ff0000;stroke-linejoin:miter;" x="301.968354" xlink:href="#m4dbd5bdade" y="295.488"/>
     <use style="fill:#bf00bf;stroke:#ff0000;stroke-linejoin:miter;" x="306.355577" xlink:href="#m4dbd5bdade" y="295.488"/>
     <use style="fill:#bf00bf;stroke:#ff0000;stroke-linejoin:miter;" x="310.742801" xlink:href="#m4dbd5bdade" y="295.488"/>
     <use style="fill:#bf00bf;stroke:#ff0000;stroke-linejoin:miter;" x="315.130025" xlink:href="#m4dbd5bdade" y="295.488"/>
     <use style="fill:#bf00bf;stroke:#ff0000;stroke-linejoin:miter;" x="319.517248" xlink:href="#m4dbd5bdade" y="295.488"/>
     <use style="fill:#bf00bf;stroke:#ff0000;stroke-linejoin:miter;" x="323.904472" xlink:href="#m4dbd5bdade" y="295.488"/>
     <use style="fill:#bf00bf;stroke:#ff0000;stroke-linejoin:miter;" x="328.291695" xlink:href="#m4dbd5bdade" y="295.488"/>
     <use style="fill:#bf00bf;stroke:#ff0000;stroke-linejoin:miter;" x="332.678919" xlink:href="#m4dbd5bdade" y="295.488"/>
     <use style="fill:#bf00bf;stroke:#ff0000;stroke-linejoin:miter;" x="337.066143" xlink:href="#m4dbd5bdade" y="295.488"/>
     <use style="fill:#bf00bf;stroke:#ff0000;stroke-linejoin:miter;" x="341.453366" xlink:href="#m4dbd5bdade" y="295.488"/>
     <use style="fill:#bf00bf;stroke:#ff0000;stroke-linejoin:miter;" x="345.84059" xlink:href="#m4dbd5bdade" y="295.488"/>
     <use style="fill:#bf00bf;stroke:#ff0000;stroke-linejoin:miter;" x="350.227813" xlink:href="#m4dbd5bdade" y="295.488"/>
     <use style="fill:#bf00bf;stroke:#ff0000;stroke-linejoin:miter;" x="354.615037" xlink:href="#m4dbd5bdade" y="295.488"/>
     <use style="fill:#bf00bf;stroke:#ff0000;stroke-linejoin:miter;" x="359.00226" xlink:href="#m4dbd5bdade" y="295.488"/>
     <use style="fill:#bf00bf;stroke:#ff0000;stroke-linejoin:miter;" x="363.389484" xlink:href="#m4dbd5bdade" y="295.488"/>
     <use style="fill:#bf00bf;stroke:#ff0000;stroke-linejoin:miter;" x="367.776708" xlink:href="#m4dbd5bdade" y="295.488"/>
     <use style="fill:#bf00bf;stroke:#ff0000;stroke-linejoin:miter;" x="372.163931" xlink:href="#m4dbd5bdade" y="295.488"/>
     <use style="fill:#bf00bf;stroke:#ff0000;stroke-linejoin:miter;" x="376.551155" xlink:href="#m4dbd5bdade" y="295.488"/>
     <use style="fill:#bf00bf;stroke:#ff0000;stroke-linejoin:miter;" x="380.938378" xlink:href="#m4dbd5bdade" y="295.488"/>
     <use style="fill:#bf00bf;stroke:#ff0000;stroke-linejoin:miter;" x="385.325602" xlink:href="#m4dbd5bdade" y="295.488"/>
     <use style="fill:#bf00bf;stroke:#ff0000;stroke-linejoin:miter;" x="389.712826" xlink:href="#m4dbd5bdade" y="295.488"/>
     <use style="fill:#bf00bf;stroke:#ff0000;stroke-linejoin:miter;" x="394.100049" xlink:href="#m4dbd5bdade" y="295.488"/>
     <use style="fill:#bf00bf;stroke:#ff0000;stroke-linejoin:miter;" x="398.487273" xlink:href="#m4dbd5bdade" y="295.488"/>
    </g>
   </g>
   <g id="line2d_23">
    <path clip-path="url(#p338a9c4840)" d="M 73.832727 173.224119 
L 78.219951 173.249194 
L 82.607174 173.249194 
L 86.994398 173.249194 
L 91.381622 173.249194 
L 95.768845 173.249194 
L 100.156069 173.249194 
L 104.543292 173.274269 
L 108.930516 173.274269 
L 113.31774 173.274269 
L 117.704963 173.775761 
L 122.092187 199.452179 
L 126.47941 295.16203 
L 130.866634 295.488 
L 135.253857 295.488 
L 139.641081 295.488 
L 144.028305 295.488 
L 148.415528 295.488 
L 152.802752 295.488 
L 157.189975 295.488 
L 161.577199 295.488 
L 165.964423 295.488 
L 170.351646 295.488 
L 174.73887 295.488 
L 179.126093 295.488 
L 183.513317 295.488 
L 187.900541 295.488 
L 192.287764 295.488 
L 196.674988 295.488 
L 201.062211 295.488 
L 205.449435 295.488 
L 209.836658 295.488 
L 214.223882 295.488 
L 218.611106 295.488 
L 222.998329 295.488 
L 227.385553 295.488 
L 231.772776 295.488 
L 236.16 295.488 
L 240.547224 295.488 
L 244.934447 295.488 
L 249.321671 295.488 
L 253.708894 295.488 
L 258.096118 295.488 
L 262.483342 295.488 
L 266.870565 295.488 
L 271.257789 295.488 
L 275.645012 295.488 
L 280.032236 295.488 
L 284.419459 295.488 
L 288.806683 295.488 
L 293.193907 295.488 
L 297.58113 295.488 
L 301.968354 295.488 
L 306.355577 295.488 
L 310.742801 295.488 
L 315.130025 295.488 
L 319.517248 295.488 
L 323.904472 295.488 
L 328.291695 295.488 
L 332.678919 295.488 
L 337.066143 295.488 
L 341.453366 295.488 
L 345.84059 295.488 
L 350.227813 295.488 
L 354.615037 295.488 
L 359.00226 295.488 
L 363.389484 295.488 
L 367.776708 295.488 
L 372.163931 295.488 
L 376.551155 295.488 
L 380.938378 295.488 
L 385.325602 295.488 
L 389.712826 295.488 
L 394.100049 295.488 
L 398.487273 295.488 
" style="fill:none;stroke:#ff0000;stroke-linecap:square;"/>
    <defs>
     <path d="M 0 -1 
L -1 1 
L 1 1 
z
" id="m3b56ef729e" style="stroke:#ff0000;stroke-linejoin:miter;"/>
    </defs>
    <g clip-path="url(#p338a9c4840)">
     <use style="fill:#008000;stroke:#ff0000;stroke-linejoin:miter;" x="73.832727" xlink:href="#m3b56ef729e" y="173.224119"/>
     <use style="fill:#008000;stroke:#ff0000;stroke-linejoin:miter;" x="78.219951" xlink:href="#m3b56ef729e" y="173.249194"/>
     <use style="fill:#008000;stroke:#ff0000;stroke-linejoin:miter;" x="82.607174" xlink:href="#m3b56ef729e" y="173.249194"/>
     <use style="fill:#008000;stroke:#ff0000;stroke-linejoin:miter;" x="86.994398" xlink:href="#m3b56ef729e" y="173.249194"/>
     <use style="fill:#008000;stroke:#ff0000;stroke-linejoin:miter;" x="91.381622" xlink:href="#m3b56ef729e" y="173.249194"/>
     <use style="fill:#008000;stroke:#ff0000;stroke-linejoin:miter;" x="95.768845" xlink:href="#m3b56ef729e" y="173.249194"/>
     <use style="fill:#008000;stroke:#ff0000;stroke-linejoin:miter;" x="100.156069" xlink:href="#m3b56ef729e" y="173.249194"/>
     <use style="fill:#008000;stroke:#ff0000;stroke-linejoin:miter;" x="104.543292" xlink:href="#m3b56ef729e" y="173.274269"/>
     <use style="fill:#008000;stroke:#ff0000;stroke-linejoin:miter;" x="108.930516" xlink:href="#m3b56ef729e" y="173.274269"/>
     <use style="fill:#008000;stroke:#ff0000;stroke-linejoin:miter;" x="113.31774" xlink:href="#m3b56ef729e" y="173.274269"/>
     <use style="fill:#008000;stroke:#ff0000;stroke-linejoin:miter;" x="117.704963" xlink:href="#m3b56ef729e" y="173.775761"/>
     <use style="fill:#008000;stroke:#ff0000;stroke-linejoin:miter;" x="122.092187" xlink:href="#m3b56ef729e" y="199.452179"/>
     <use style="fill:#008000;stroke:#ff0000;stroke-linejoin:miter;" x="126.47941" xlink:href="#m3b56ef729e" y="295.16203"/>
     <use style="fill:#008000;stroke:#ff0000;stroke-linejoin:miter;" x="130.866634" xlink:href="#m3b56ef729e" y="295.488"/>
     <use style="fill:#008000;stroke:#ff0000;stroke-linejoin:miter;" x="135.253857" xlink:href="#m3b56ef729e" y="295.488"/>
     <use style="fill:#008000;stroke:#ff0000;stroke-linejoin:miter;" x="139.641081" xlink:href="#m3b56ef729e" y="295.488"/>
     <use style="fill:#008000;stroke:#ff0000;stroke-linejoin:miter;" x="144.028305" xlink:href="#m3b56ef729e" y="295.488"/>
     <use style="fill:#008000;stroke:#ff0000;stroke-linejoin:miter;" x="148.415528" xlink:href="#m3b56ef729e" y="295.488"/>
     <use style="fill:#008000;stroke:#ff0000;stroke-linejoin:miter;" x="152.802752" xlink:href="#m3b56ef729e" y="295.488"/>
     <use style="fill:#008000;stroke:#ff0000;stroke-linejoin:miter;" x="157.189975" xlink:href="#m3b56ef729e" y="295.488"/>
     <use style="fill:#008000;stroke:#ff0000;stroke-linejoin:miter;" x="161.577199" xlink:href="#m3b56ef729e" y="295.488"/>
     <use style="fill:#008000;stroke:#ff0000;stroke-linejoin:miter;" x="165.964423" xlink:href="#m3b56ef729e" y="295.488"/>
     <use style="fill:#008000;stroke:#ff0000;stroke-linejoin:miter;" x="170.351646" xlink:href="#m3b56ef729e" y="295.488"/>
     <use style="fill:#008000;stroke:#ff0000;stroke-linejoin:miter;" x="174.73887" xlink:href="#m3b56ef729e" y="295.488"/>
     <use style="fill:#008000;stroke:#ff0000;stroke-linejoin:miter;" x="179.126093" xlink:href="#m3b56ef729e" y="295.488"/>
     <use style="fill:#008000;stroke:#ff0000;stroke-linejoin:miter;" x="183.513317" xlink:href="#m3b56ef729e" y="295.488"/>
     <use style="fill:#008000;stroke:#ff0000;stroke-linejoin:miter;" x="187.900541" xlink:href="#m3b56ef729e" y="295.488"/>
     <use style="fill:#008000;stroke:#ff0000;stroke-linejoin:miter;" x="192.287764" xlink:href="#m3b56ef729e" y="295.488"/>
     <use style="fill:#008000;stroke:#ff0000;stroke-linejoin:miter;" x="196.674988" xlink:href="#m3b56ef729e" y="295.488"/>
     <use style="fill:#008000;stroke:#ff0000;stroke-linejoin:miter;" x="201.062211" xlink:href="#m3b56ef729e" y="295.488"/>
     <use style="fill:#008000;stroke:#ff0000;stroke-linejoin:miter;" x="205.449435" xlink:href="#m3b56ef729e" y="295.488"/>
     <use style="fill:#008000;stroke:#ff0000;stroke-linejoin:miter;" x="209.836658" xlink:href="#m3b56ef729e" y="295.488"/>
     <use style="fill:#008000;stroke:#ff0000;stroke-linejoin:miter;" x="214.223882" xlink:href="#m3b56ef729e" y="295.488"/>
     <use style="fill:#008000;stroke:#ff0000;stroke-linejoin:miter;" x="218.611106" xlink:href="#m3b56ef729e" y="295.488"/>
     <use style="fill:#008000;stroke:#ff0000;stroke-linejoin:miter;" x="222.998329" xlink:href="#m3b56ef729e" y="295.488"/>
     <use style="fill:#008000;stroke:#ff0000;stroke-linejoin:miter;" x="227.385553" xlink:href="#m3b56ef729e" y="295.488"/>
     <use style="fill:#008000;stroke:#ff0000;stroke-linejoin:miter;" x="231.772776" xlink:href="#m3b56ef729e" y="295.488"/>
     <use style="fill:#008000;stroke:#ff0000;stroke-linejoin:miter;" x="236.16" xlink:href="#m3b56ef729e" y="295.488"/>
     <use style="fill:#008000;stroke:#ff0000;stroke-linejoin:miter;" x="240.547224" xlink:href="#m3b56ef729e" y="295.488"/>
     <use style="fill:#008000;stroke:#ff0000;stroke-linejoin:miter;" x="244.934447" xlink:href="#m3b56ef729e" y="295.488"/>
     <use style="fill:#008000;stroke:#ff0000;stroke-linejoin:miter;" x="249.321671" xlink:href="#m3b56ef729e" y="295.488"/>
     <use style="fill:#008000;stroke:#ff0000;stroke-linejoin:miter;" x="253.708894" xlink:href="#m3b56ef729e" y="295.488"/>
     <use style="fill:#008000;stroke:#ff0000;stroke-linejoin:miter;" x="258.096118" xlink:href="#m3b56ef729e" y="295.488"/>
     <use style="fill:#008000;stroke:#ff0000;stroke-linejoin:miter;" x="262.483342" xlink:href="#m3b56ef729e" y="295.488"/>
     <use style="fill:#008000;stroke:#ff0000;stroke-linejoin:miter;" x="266.870565" xlink:href="#m3b56ef729e" y="295.488"/>
     <use style="fill:#008000;stroke:#ff0000;stroke-linejoin:miter;" x="271.257789" xlink:href="#m3b56ef729e" y="295.488"/>
     <use style="fill:#008000;stroke:#ff0000;stroke-linejoin:miter;" x="275.645012" xlink:href="#m3b56ef729e" y="295.488"/>
     <use style="fill:#008000;stroke:#ff0000;stroke-linejoin:miter;" x="280.032236" xlink:href="#m3b56ef729e" y="295.488"/>
     <use style="fill:#008000;stroke:#ff0000;stroke-linejoin:miter;" x="284.419459" xlink:href="#m3b56ef729e" y="295.488"/>
     <use style="fill:#008000;stroke:#ff0000;stroke-linejoin:miter;" x="288.806683" xlink:href="#m3b56ef729e" y="295.488"/>
     <use style="fill:#008000;stroke:#ff0000;stroke-linejoin:miter;" x="293.193907" xlink:href="#m3b56ef729e" y="295.488"/>
     <use style="fill:#008000;stroke:#ff0000;stroke-linejoin:miter;" x="297.58113" xlink:href="#m3b56ef729e" y="295.488"/>
     <use style="fill:#008000;stroke:#ff0000;stroke-linejoin:miter;" x="301.968354" xlink:href="#m3b56ef729e" y="295.488"/>
     <use style="fill:#008000;stroke:#ff0000;stroke-linejoin:miter;" x="306.355577" xlink:href="#m3b56ef729e" y="295.488"/>
     <use style="fill:#008000;stroke:#ff0000;stroke-linejoin:miter;" x="310.742801" xlink:href="#m3b56ef729e" y="295.488"/>
     <use style="fill:#008000;stroke:#ff0000;stroke-linejoin:miter;" x="315.130025" xlink:href="#m3b56ef729e" y="295.488"/>
     <use style="fill:#008000;stroke:#ff0000;stroke-linejoin:miter;" x="319.517248" xlink:href="#m3b56ef729e" y="295.488"/>
     <use style="fill:#008000;stroke:#ff0000;stroke-linejoin:miter;" x="323.904472" xlink:href="#m3b56ef729e" y="295.488"/>
     <use style="fill:#008000;stroke:#ff0000;stroke-linejoin:miter;" x="328.291695" xlink:href="#m3b56ef729e" y="295.488"/>
     <use style="fill:#008000;stroke:#ff0000;stroke-linejoin:miter;" x="332.678919" xlink:href="#m3b56ef729e" y="295.488"/>
     <use style="fill:#008000;stroke:#ff0000;stroke-linejoin:miter;" x="337.066143" xlink:href="#m3b56ef729e" y="295.488"/>
     <use style="fill:#008000;stroke:#ff0000;stroke-linejoin:miter;" x="341.453366" xlink:href="#m3b56ef729e" y="295.488"/>
     <use style="fill:#008000;stroke:#ff0000;stroke-linejoin:miter;" x="345.84059" xlink:href="#m3b56ef729e" y="295.488"/>
     <use style="fill:#008000;stroke:#ff0000;stroke-linejoin:miter;" x="350.227813" xlink:href="#m3b56ef729e" y="295.488"/>
     <use style="fill:#008000;stroke:#ff0000;stroke-linejoin:miter;" x="354.615037" xlink:href="#m3b56ef729e" y="295.488"/>
     <use style="fill:#008000;stroke:#ff0000;stroke-linejoin:miter;" x="359.00226" xlink:href="#m3b56ef729e" y="295.488"/>
     <use style="fill:#008000;stroke:#ff0000;stroke-linejoin:miter;" x="363.389484" xlink:href="#m3b56ef729e" y="295.488"/>
     <use style="fill:#008000;stroke:#ff0000;stroke-linejoin:miter;" x="367.776708" xlink:href="#m3b56ef729e" y="295.488"/>
     <use style="fill:#008000;stroke:#ff0000;stroke-linejoin:miter;" x="372.163931" xlink:href="#m3b56ef729e" y="295.488"/>
     <use style="fill:#008000;stroke:#ff0000;stroke-linejoin:miter;" x="376.551155" xlink:href="#m3b56ef729e" y="295.488"/>
     <use style="fill:#008000;stroke:#ff0000;stroke-linejoin:miter;" x="380.938378" xlink:href="#m3b56ef729e" y="295.488"/>
     <use style="fill:#008000;stroke:#ff0000;stroke-linejoin:miter;" x="385.325602" xlink:href="#m3b56ef729e" y="295.488"/>
     <use style="fill:#008000;stroke:#ff0000;stroke-linejoin:miter;" x="389.712826" xlink:href="#m3b56ef729e" y="295.488"/>
     <use style="fill:#008000;stroke:#ff0000;stroke-linejoin:miter;" x="394.100049" xlink:href="#m3b56ef729e" y="295.488"/>
     <use style="fill:#008000;stroke:#ff0000;stroke-linejoin:miter;" x="398.487273" xlink:href="#m3b56ef729e" y="295.488"/>
    </g>
   </g>
   <g id="line2d_24">
    <path clip-path="url(#p338a9c4840)" d="M 73.832727 200.104119 
L 78.219951 200.129194 
L 82.607174 200.129194 
L 86.994398 200.129194 
L 91.381622 200.129194 
L 95.768845 200.129194 
L 100.156069 200.129194 
L 104.543292 200.129194 
L 108.930516 200.129194 
L 113.31774 200.129194 
L 117.704963 200.70591 
L 122.092187 205.41994 
L 126.47941 221.542925 
L 130.866634 217.530985 
L 135.253857 217.530985 
L 139.641081 217.530985 
L 144.028305 217.806806 
L 148.415528 222.295164 
L 152.802752 234.255761 
L 157.189975 234.255761 
L 161.577199 234.255761 
L 165.964423 234.932776 
L 170.351646 239.847403 
L 174.73887 245.489194 
L 179.126093 245.489194 
L 183.513317 245.489194 
L 187.900541 295.488 
L 192.287764 295.488 
L 196.674988 295.488 
L 201.062211 295.488 
L 205.449435 295.488 
L 209.836658 295.488 
L 214.223882 295.488 
L 218.611106 295.488 
L 222.998329 295.488 
L 227.385553 295.488 
L 231.772776 295.488 
L 236.16 295.488 
L 240.547224 295.488 
L 244.934447 295.488 
L 249.321671 295.488 
L 253.708894 295.488 
L 258.096118 295.488 
L 262.483342 295.488 
L 266.870565 295.488 
L 271.257789 295.488 
L 275.645012 295.488 
L 280.032236 295.488 
L 284.419459 295.488 
L 288.806683 295.488 
L 293.193907 295.488 
L 297.58113 295.488 
L 301.968354 295.488 
L 306.355577 295.488 
L 310.742801 295.488 
L 315.130025 295.488 
L 319.517248 295.488 
L 323.904472 295.488 
L 328.291695 295.488 
L 332.678919 295.488 
L 337.066143 295.488 
L 341.453366 295.488 
L 345.84059 295.488 
L 350.227813 295.488 
L 354.615037 295.488 
L 359.00226 295.488 
L 363.389484 295.488 
L 367.776708 295.488 
L 372.163931 295.488 
L 376.551155 295.488 
L 380.938378 295.488 
L 385.325602 295.488 
L 389.712826 295.488 
L 394.100049 295.488 
L 398.487273 295.488 
" style="fill:none;stroke:#0000ff;stroke-linecap:square;"/>
    <defs>
     <path d="M 0 1 
C 0.265203 1 0.51958 0.894634 0.707107 0.707107 
C 0.894634 0.51958 1 0.265203 1 0 
C 1 -0.265203 0.894634 -0.51958 0.707107 -0.707107 
C 0.51958 -0.894634 0.265203 -1 0 -1 
C -0.265203 -1 -0.51958 -0.894634 -0.707107 -0.707107 
C -0.894634 -0.51958 -1 -0.265203 -1 0 
C -1 0.265203 -0.894634 0.51958 -0.707107 0.707107 
C -0.51958 0.894634 -0.265203 1 0 1 
z
" id="mea34c4efce" style="stroke:#0000ff;"/>
    </defs>
    <g clip-path="url(#p338a9c4840)">
     <use style="fill:#0000ff;stroke:#0000ff;" x="73.832727" xlink:href="#mea34c4efce" y="200.104119"/>
     <use style="fill:#0000ff;stroke:#0000ff;" x="78.219951" xlink:href="#mea34c4efce" y="200.129194"/>
     <use style="fill:#0000ff;stroke:#0000ff;" x="82.607174" xlink:href="#mea34c4efce" y="200.129194"/>
     <use style="fill:#0000ff;stroke:#0000ff;" x="86.994398" xlink:href="#mea34c4efce" y="200.129194"/>
     <use style="fill:#0000ff;stroke:#0000ff;" x="91.381622" xlink:href="#mea34c4efce" y="200.129194"/>
     <use style="fill:#0000ff;stroke:#0000ff;" x="95.768845" xlink:href="#mea34c4efce" y="200.129194"/>
     <use style="fill:#0000ff;stroke:#0000ff;" x="100.156069" xlink:href="#mea34c4efce" y="200.129194"/>
     <use style="fill:#0000ff;stroke:#0000ff;" x="104.543292" xlink:href="#mea34c4efce" y="200.129194"/>
     <use style="fill:#0000ff;stroke:#0000ff;" x="108.930516" xlink:href="#mea34c4efce" y="200.129194"/>
     <use style="fill:#0000ff;stroke:#0000ff;" x="113.31774" xlink:href="#mea34c4efce" y="200.129194"/>
     <use style="fill:#0000ff;stroke:#0000ff;" x="117.704963" xlink:href="#mea34c4efce" y="200.70591"/>
     <use style="fill:#0000ff;stroke:#0000ff;" x="122.092187" xlink:href="#mea34c4efce" y="205.41994"/>
     <use style="fill:#0000ff;stroke:#0000ff;" x="126.47941" xlink:href="#mea34c4efce" y="221.542925"/>
     <use style="fill:#0000ff;stroke:#0000ff;" x="130.866634" xlink:href="#mea34c4efce" y="217.530985"/>
     <use style="fill:#0000ff;stroke:#0000ff;" x="135.253857" xlink:href="#mea34c4efce" y="217.530985"/>
     <use style="fill:#0000ff;stroke:#0000ff;" x="139.641081" xlink:href="#mea34c4efce" y="217.530985"/>
     <use style="fill:#0000ff;stroke:#0000ff;" x="144.028305" xlink:href="#mea34c4efce" y="217.806806"/>
     <use style="fill:#0000ff;stroke:#0000ff;" x="148.415528" xlink:href="#mea34c4efce" y="222.295164"/>
     <use style="fill:#0000ff;stroke:#0000ff;" x="152.802752" xlink:href="#mea34c4efce" y="234.255761"/>
     <use style="fill:#0000ff;stroke:#0000ff;" x="157.189975" xlink:href="#mea34c4efce" y="234.255761"/>
     <use style="fill:#0000ff;stroke:#0000ff;" x="161.577199" xlink:href="#mea34c4efce" y="234.255761"/>
     <use style="fill:#0000ff;stroke:#0000ff;" x="165.964423" xlink:href="#mea34c4efce" y="234.932776"/>
     <use style="fill:#0000ff;stroke:#0000ff;" x="170.351646" xlink:href="#mea34c4efce" y="239.847403"/>
     <use style="fill:#0000ff;stroke:#0000ff;" x="174.73887" xlink:href="#mea34c4efce" y="245.489194"/>
     <use style="fill:#0000ff;stroke:#0000ff;" x="179.126093" xlink:href="#mea34c4efce" y="245.489194"/>
     <use style="fill:#0000ff;stroke:#0000ff;" x="183.513317" xlink:href="#mea34c4efce" y="245.489194"/>
     <use style="fill:#0000ff;stroke:#0000ff;" x="187.900541" xlink:href="#mea34c4efce" y="295.488"/>
     <use style="fill:#0000ff;stroke:#0000ff;" x="192.287764" xlink:href="#mea34c4efce" y="295.488"/>
     <use style="fill:#0000ff;stroke:#0000ff;" x="196.674988" xlink:href="#mea34c4efce" y="295.488"/>
     <use style="fill:#0000ff;stroke:#0000ff;" x="201.062211" xlink:href="#mea34c4efce" y="295.488"/>
     <use style="fill:#0000ff;stroke:#0000ff;" x="205.449435" xlink:href="#mea34c4efce" y="295.488"/>
     <use style="fill:#0000ff;stroke:#0000ff;" x="209.836658" xlink:href="#mea34c4efce" y="295.488"/>
     <use style="fill:#0000ff;stroke:#0000ff;" x="214.223882" xlink:href="#mea34c4efce" y="295.488"/>
     <use style="fill:#0000ff;stroke:#0000ff;" x="218.611106" xlink:href="#mea34c4efce" y="295.488"/>
     <use style="fill:#0000ff;stroke:#0000ff;" x="222.998329" xlink:href="#mea34c4efce" y="295.488"/>
     <use style="fill:#0000ff;stroke:#0000ff;" x="227.385553" xlink:href="#mea34c4efce" y="295.488"/>
     <use style="fill:#0000ff;stroke:#0000ff;" x="231.772776" xlink:href="#mea34c4efce" y="295.488"/>
     <use style="fill:#0000ff;stroke:#0000ff;" x="236.16" xlink:href="#mea34c4efce" y="295.488"/>
     <use style="fill:#0000ff;stroke:#0000ff;" x="240.547224" xlink:href="#mea34c4efce" y="295.488"/>
     <use style="fill:#0000ff;stroke:#0000ff;" x="244.934447" xlink:href="#mea34c4efce" y="295.488"/>
     <use style="fill:#0000ff;stroke:#0000ff;" x="249.321671" xlink:href="#mea34c4efce" y="295.488"/>
     <use style="fill:#0000ff;stroke:#0000ff;" x="253.708894" xlink:href="#mea34c4efce" y="295.488"/>
     <use style="fill:#0000ff;stroke:#0000ff;" x="258.096118" xlink:href="#mea34c4efce" y="295.488"/>
     <use style="fill:#0000ff;stroke:#0000ff;" x="262.483342" xlink:href="#mea34c4efce" y="295.488"/>
     <use style="fill:#0000ff;stroke:#0000ff;" x="266.870565" xlink:href="#mea34c4efce" y="295.488"/>
     <use style="fill:#0000ff;stroke:#0000ff;" x="271.257789" xlink:href="#mea34c4efce" y="295.488"/>
     <use style="fill:#0000ff;stroke:#0000ff;" x="275.645012" xlink:href="#mea34c4efce" y="295.488"/>
     <use style="fill:#0000ff;stroke:#0000ff;" x="280.032236" xlink:href="#mea34c4efce" y="295.488"/>
     <use style="fill:#0000ff;stroke:#0000ff;" x="284.419459" xlink:href="#mea34c4efce" y="295.488"/>
     <use style="fill:#0000ff;stroke:#0000ff;" x="288.806683" xlink:href="#mea34c4efce" y="295.488"/>
     <use style="fill:#0000ff;stroke:#0000ff;" x="293.193907" xlink:href="#mea34c4efce" y="295.488"/>
     <use style="fill:#0000ff;stroke:#0000ff;" x="297.58113" xlink:href="#mea34c4efce" y="295.488"/>
     <use style="fill:#0000ff;stroke:#0000ff;" x="301.968354" xlink:href="#mea34c4efce" y="295.488"/>
     <use style="fill:#0000ff;stroke:#0000ff;" x="306.355577" xlink:href="#mea34c4efce" y="295.488"/>
     <use style="fill:#0000ff;stroke:#0000ff;" x="310.742801" xlink:href="#mea34c4efce" y="295.488"/>
     <use style="fill:#0000ff;stroke:#0000ff;" x="315.130025" xlink:href="#mea34c4efce" y="295.488"/>
     <use style="fill:#0000ff;stroke:#0000ff;" x="319.517248" xlink:href="#mea34c4efce" y="295.488"/>
     <use style="fill:#0000ff;stroke:#0000ff;" x="323.904472" xlink:href="#mea34c4efce" y="295.488"/>
     <use style="fill:#0000ff;stroke:#0000ff;" x="328.291695" xlink:href="#mea34c4efce" y="295.488"/>
     <use style="fill:#0000ff;stroke:#0000ff;" x="332.678919" xlink:href="#mea34c4efce" y="295.488"/>
     <use style="fill:#0000ff;stroke:#0000ff;" x="337.066143" xlink:href="#mea34c4efce" y="295.488"/>
     <use style="fill:#0000ff;stroke:#0000ff;" x="341.453366" xlink:href="#mea34c4efce" y="295.488"/>
     <use style="fill:#0000ff;stroke:#0000ff;" x="345.84059" xlink:href="#mea34c4efce" y="295.488"/>
     <use style="fill:#0000ff;stroke:#0000ff;" x="350.227813" xlink:href="#mea34c4efce" y="295.488"/>
     <use style="fill:#0000ff;stroke:#0000ff;" x="354.615037" xlink:href="#mea34c4efce" y="295.488"/>
     <use style="fill:#0000ff;stroke:#0000ff;" x="359.00226" xlink:href="#mea34c4efce" y="295.488"/>
     <use style="fill:#0000ff;stroke:#0000ff;" x="363.389484" xlink:href="#mea34c4efce" y="295.488"/>
     <use style="fill:#0000ff;stroke:#0000ff;" x="367.776708" xlink:href="#mea34c4efce" y="295.488"/>
     <use style="fill:#0000ff;stroke:#0000ff;" x="372.163931" xlink:href="#mea34c4efce" y="295.488"/>
     <use style="fill:#0000ff;stroke:#0000ff;" x="376.551155" xlink:href="#mea34c4efce" y="295.488"/>
     <use style="fill:#0000ff;stroke:#0000ff;" x="380.938378" xlink:href="#mea34c4efce" y="295.488"/>
     <use style="fill:#0000ff;stroke:#0000ff;" x="385.325602" xlink:href="#mea34c4efce" y="295.488"/>
     <use style="fill:#0000ff;stroke:#0000ff;" x="389.712826" xlink:href="#mea34c4efce" y="295.488"/>
     <use style="fill:#0000ff;stroke:#0000ff;" x="394.100049" xlink:href="#mea34c4efce" y="295.488"/>
     <use style="fill:#0000ff;stroke:#0000ff;" x="398.487273" xlink:href="#mea34c4efce" y="295.488"/>
    </g>
   </g>
   <g id="line2d_25">
    <path clip-path="url(#p338a9c4840)" d="M 73.832727 53.568 
L 78.219951 53.568 
L 82.607174 53.568 
L 86.994398 53.568 
L 91.381622 53.568 
L 95.768845 53.568 
L 100.156069 53.568 
L 104.543292 53.568 
L 108.930516 53.568 
L 113.31774 61.491582 
L 117.704963 89.224119 
L 122.092187 108.180537 
L 126.47941 219.311284 
L 130.866634 150.656955 
L 135.253857 150.656955 
L 139.641081 150.732179 
L 144.028305 153.214567 
L 148.415528 184.708299 
L 152.802752 198.950687 
L 157.189975 198.975761 
L 161.577199 199.301731 
L 165.964423 202.937552 
L 170.351646 225.605015 
L 174.73887 223.273075 
L 179.126093 223.273075 
L 183.513317 223.273075 
L 187.900541 295.488 
L 192.287764 295.488 
L 196.674988 295.488 
L 201.062211 295.488 
L 205.449435 295.488 
L 209.836658 295.488 
L 214.223882 295.488 
L 218.611106 295.488 
L 222.998329 295.488 
L 227.385553 295.488 
L 231.772776 295.488 
L 236.16 295.488 
L 240.547224 295.488 
L 244.934447 295.488 
L 249.321671 295.488 
L 253.708894 295.488 
L 258.096118 295.488 
L 262.483342 295.488 
L 266.870565 295.488 
L 271.257789 295.488 
L 275.645012 295.488 
L 280.032236 295.488 
L 284.419459 295.488 
L 288.806683 295.488 
L 293.193907 295.488 
L 297.58113 295.488 
L 301.968354 295.488 
L 306.355577 295.488 
L 310.742801 295.488 
L 315.130025 295.488 
L 319.517248 295.488 
L 323.904472 295.488 
L 328.291695 295.488 
L 332.678919 295.488 
L 337.066143 295.488 
L 341.453366 295.488 
L 345.84059 295.488 
L 350.227813 295.488 
L 354.615037 295.488 
L 359.00226 295.488 
L 363.389484 295.488 
L 367.776708 295.488 
L 372.163931 295.488 
L 376.551155 295.488 
L 380.938378 295.488 
L 385.325602 295.488 
L 389.712826 295.488 
L 394.100049 295.488 
L 398.487273 295.488 
" style="fill:none;stroke:#008000;stroke-linecap:square;"/>
    <defs>
     <path d="M 0 1 
C 0.265203 1 0.51958 0.894634 0.707107 0.707107 
C 0.894634 0.51958 1 0.265203 1 0 
C 1 -0.265203 0.894634 -0.51958 0.707107 -0.707107 
C 0.51958 -0.894634 0.265203 -1 0 -1 
C -0.265203 -1 -0.51958 -0.894634 -0.707107 -0.707107 
C -0.894634 -0.51958 -1 -0.265203 -1 0 
C -1 0.265203 -0.894634 0.51958 -0.707107 0.707107 
C -0.51958 0.894634 -0.265203 1 0 1 
z
" id="mf21c1f3755" style="stroke:#008000;"/>
    </defs>
    <g clip-path="url(#p338a9c4840)">
     <use style="fill:#008000;stroke:#008000;" x="73.832727" xlink:href="#mf21c1f3755" y="53.568"/>
     <use style="fill:#008000;stroke:#008000;" x="78.219951" xlink:href="#mf21c1f3755" y="53.568"/>
     <use style="fill:#008000;stroke:#008000;" x="82.607174" xlink:href="#mf21c1f3755" y="53.568"/>
     <use style="fill:#008000;stroke:#008000;" x="86.994398" xlink:href="#mf21c1f3755" y="53.568"/>
     <use style="fill:#008000;stroke:#008000;" x="91.381622" xlink:href="#mf21c1f3755" y="53.568"/>
     <use style="fill:#008000;stroke:#008000;" x="95.768845" xlink:href="#mf21c1f3755" y="53.568"/>
     <use style="fill:#008000;stroke:#008000;" x="100.156069" xlink:href="#mf21c1f3755" y="53.568"/>
     <use style="fill:#008000;stroke:#008000;" x="104.543292" xlink:href="#mf21c1f3755" y="53.568"/>
     <use style="fill:#008000;stroke:#008000;" x="108.930516" xlink:href="#mf21c1f3755" y="53.568"/>
     <use style="fill:#008000;stroke:#008000;" x="113.31774" xlink:href="#mf21c1f3755" y="61.491582"/>
     <use style="fill:#008000;stroke:#008000;" x="117.704963" xlink:href="#mf21c1f3755" y="89.224119"/>
     <use style="fill:#008000;stroke:#008000;" x="122.092187" xlink:href="#mf21c1f3755" y="108.180537"/>
     <use style="fill:#008000;stroke:#008000;" x="126.47941" xlink:href="#mf21c1f3755" y="219.311284"/>
     <use style="fill:#008000;stroke:#008000;" x="130.866634" xlink:href="#mf21c1f3755" y="150.656955"/>
     <use style="fill:#008000;stroke:#008000;" x="135.253857" xlink:href="#mf21c1f3755" y="150.656955"/>
     <use style="fill:#008000;stroke:#008000;" x="139.641081" xlink:href="#mf21c1f3755" y="150.732179"/>
     <use style="fill:#008000;stroke:#008000;" x="144.028305" xlink:href="#mf21c1f3755" y="153.214567"/>
     <use style="fill:#008000;stroke:#008000;" x="148.415528" xlink:href="#mf21c1f3755" y="184.708299"/>
     <use style="fill:#008000;stroke:#008000;" x="152.802752" xlink:href="#mf21c1f3755" y="198.950687"/>
     <use style="fill:#008000;stroke:#008000;" x="157.189975" xlink:href="#mf21c1f3755" y="198.975761"/>
     <use style="fill:#008000;stroke:#008000;" x="161.577199" xlink:href="#mf21c1f3755" y="199.301731"/>
     <use style="fill:#008000;stroke:#008000;" x="165.964423" xlink:href="#mf21c1f3755" y="202.937552"/>
     <use style="fill:#008000;stroke:#008000;" x="170.351646" xlink:href="#mf21c1f3755" y="225.605015"/>
     <use style="fill:#008000;stroke:#008000;" x="174.73887" xlink:href="#mf21c1f3755" y="223.273075"/>
     <use style="fill:#008000;stroke:#008000;" x="179.126093" xlink:href="#mf21c1f3755" y="223.273075"/>
     <use style="fill:#008000;stroke:#008000;" x="183.513317" xlink:href="#mf21c1f3755" y="223.273075"/>
     <use style="fill:#008000;stroke:#008000;" x="187.900541" xlink:href="#mf21c1f3755" y="295.488"/>
     <use style="fill:#008000;stroke:#008000;" x="192.287764" xlink:href="#mf21c1f3755" y="295.488"/>
     <use style="fill:#008000;stroke:#008000;" x="196.674988" xlink:href="#mf21c1f3755" y="295.488"/>
     <use style="fill:#008000;stroke:#008000;" x="201.062211" xlink:href="#mf21c1f3755" y="295.488"/>
     <use style="fill:#008000;stroke:#008000;" x="205.449435" xlink:href="#mf21c1f3755" y="295.488"/>
     <use style="fill:#008000;stroke:#008000;" x="209.836658" xlink:href="#mf21c1f3755" y="295.488"/>
     <use style="fill:#008000;stroke:#008000;" x="214.223882" xlink:href="#mf21c1f3755" y="295.488"/>
     <use style="fill:#008000;stroke:#008000;" x="218.611106" xlink:href="#mf21c1f3755" y="295.488"/>
     <use style="fill:#008000;stroke:#008000;" x="222.998329" xlink:href="#mf21c1f3755" y="295.488"/>
     <use style="fill:#008000;stroke:#008000;" x="227.385553" xlink:href="#mf21c1f3755" y="295.488"/>
     <use style="fill:#008000;stroke:#008000;" x="231.772776" xlink:href="#mf21c1f3755" y="295.488"/>
     <use style="fill:#008000;stroke:#008000;" x="236.16" xlink:href="#mf21c1f3755" y="295.488"/>
     <use style="fill:#008000;stroke:#008000;" x="240.547224" xlink:href="#mf21c1f3755" y="295.488"/>
     <use style="fill:#008000;stroke:#008000;" x="244.934447" xlink:href="#mf21c1f3755" y="295.488"/>
     <use style="fill:#008000;stroke:#008000;" x="249.321671" xlink:href="#mf21c1f3755" y="295.488"/>
     <use style="fill:#008000;stroke:#008000;" x="253.708894" xlink:href="#mf21c1f3755" y="295.488"/>
     <use style="fill:#008000;stroke:#008000;" x="258.096118" xlink:href="#mf21c1f3755" y="295.488"/>
     <use style="fill:#008000;stroke:#008000;" x="262.483342" xlink:href="#mf21c1f3755" y="295.488"/>
     <use style="fill:#008000;stroke:#008000;" x="266.870565" xlink:href="#mf21c1f3755" y="295.488"/>
     <use style="fill:#008000;stroke:#008000;" x="271.257789" xlink:href="#mf21c1f3755" y="295.488"/>
     <use style="fill:#008000;stroke:#008000;" x="275.645012" xlink:href="#mf21c1f3755" y="295.488"/>
     <use style="fill:#008000;stroke:#008000;" x="280.032236" xlink:href="#mf21c1f3755" y="295.488"/>
     <use style="fill:#008000;stroke:#008000;" x="284.419459" xlink:href="#mf21c1f3755" y="295.488"/>
     <use style="fill:#008000;stroke:#008000;" x="288.806683" xlink:href="#mf21c1f3755" y="295.488"/>
     <use style="fill:#008000;stroke:#008000;" x="293.193907" xlink:href="#mf21c1f3755" y="295.488"/>
     <use style="fill:#008000;stroke:#008000;" x="297.58113" xlink:href="#mf21c1f3755" y="295.488"/>
     <use style="fill:#008000;stroke:#008000;" x="301.968354" xlink:href="#mf21c1f3755" y="295.488"/>
     <use style="fill:#008000;stroke:#008000;" x="306.355577" xlink:href="#mf21c1f3755" y="295.488"/>
     <use style="fill:#008000;stroke:#008000;" x="310.742801" xlink:href="#mf21c1f3755" y="295.488"/>
     <use style="fill:#008000;stroke:#008000;" x="315.130025" xlink:href="#mf21c1f3755" y="295.488"/>
     <use style="fill:#008000;stroke:#008000;" x="319.517248" xlink:href="#mf21c1f3755" y="295.488"/>
     <use style="fill:#008000;stroke:#008000;" x="323.904472" xlink:href="#mf21c1f3755" y="295.488"/>
     <use style="fill:#008000;stroke:#008000;" x="328.291695" xlink:href="#mf21c1f3755" y="295.488"/>
     <use style="fill:#008000;stroke:#008000;" x="332.678919" xlink:href="#mf21c1f3755" y="295.488"/>
     <use style="fill:#008000;stroke:#008000;" x="337.066143" xlink:href="#mf21c1f3755" y="295.488"/>
     <use style="fill:#008000;stroke:#008000;" x="341.453366" xlink:href="#mf21c1f3755" y="295.488"/>
     <use style="fill:#008000;stroke:#008000;" x="345.84059" xlink:href="#mf21c1f3755" y="295.488"/>
     <use style="fill:#008000;stroke:#008000;" x="350.227813" xlink:href="#mf21c1f3755" y="295.488"/>
     <use style="fill:#008000;stroke:#008000;" x="354.615037" xlink:href="#mf21c1f3755" y="295.488"/>
     <use style="fill:#008000;stroke:#008000;" x="359.00226" xlink:href="#mf21c1f3755" y="295.488"/>
     <use style="fill:#008000;stroke:#008000;" x="363.389484" xlink:href="#mf21c1f3755" y="295.488"/>
     <use style="fill:#008000;stroke:#008000;" x="367.776708" xlink:href="#mf21c1f3755" y="295.488"/>
     <use style="fill:#008000;stroke:#008000;" x="372.163931" xlink:href="#mf21c1f3755" y="295.488"/>
     <use style="fill:#008000;stroke:#008000;" x="376.551155" xlink:href="#mf21c1f3755" y="295.488"/>
     <use style="fill:#008000;stroke:#008000;" x="380.938378" xlink:href="#mf21c1f3755" y="295.488"/>
     <use style="fill:#008000;stroke:#008000;" x="385.325602" xlink:href="#mf21c1f3755" y="295.488"/>
     <use style="fill:#008000;stroke:#008000;" x="389.712826" xlink:href="#mf21c1f3755" y="295.488"/>
     <use style="fill:#008000;stroke:#008000;" x="394.100049" xlink:href="#mf21c1f3755" y="295.488"/>
     <use style="fill:#008000;stroke:#008000;" x="398.487273" xlink:href="#mf21c1f3755" y="295.488"/>
    </g>
   </g>
   <g id="patch_3">
    <path d="M 57.6 307.584 
L 57.6 41.472 
" style="fill:none;stroke:#000000;stroke-linecap:square;stroke-linejoin:miter;stroke-width:0.8;"/>
   </g>
   <g id="patch_4">
    <path d="M 414.72 307.584 
L 414.72 41.472 
" style="fill:none;stroke:#000000;stroke-linecap:square;stroke-linejoin:miter;stroke-width:0.8;"/>
   </g>
   <g id="patch_5">
    <path d="M 57.6 307.584 
L 414.72 307.584 
" style="fill:none;stroke:#000000;stroke-linecap:square;stroke-linejoin:miter;stroke-width:0.8;"/>
   </g>
   <g id="patch_6">
    <path d="M 57.6 41.472 
L 414.72 41.472 
" style="fill:none;stroke:#000000;stroke-linecap:square;stroke-linejoin:miter;stroke-width:0.8;"/>
   </g>
   <g id="legend_1">
    <g id="patch_7">
     <path d="M 290.341875 108.74075 
L 407.72 108.74075 
Q 409.72 108.74075 409.72 106.74075 
L 409.72 48.472 
Q 409.72 46.472 407.72 46.472 
L 290.341875 46.472 
Q 288.341875 46.472 288.341875 48.472 
L 288.341875 106.74075 
Q 288.341875 108.74075 290.341875 108.74075 
z
" style="fill:#ffffff;opacity:0.8;stroke:#cccccc;stroke-linejoin:miter;"/>
    </g>
    <g id="line2d_26">
     <path d="M 292.341875 54.570438 
L 312.341875 54.570438 
" style="fill:none;stroke:#ff0000;stroke-linecap:square;"/>
    </g>
    <g id="line2d_27">
     <g>
      <use style="fill:#bf00bf;stroke:#ff0000;stroke-linejoin:miter;" x="302.341875" xlink:href="#m4dbd5bdade" y="54.570438"/>
     </g>
    </g>
    <g id="text_24">
     <!-- 802.11a_6Mbps  -->
     <defs>
      <path d="M 10.6875 12.40625 
L 21 12.40625 
L 21 0 
L 10.6875 0 
z
" id="DejaVuSans-46"/>
      <path d="M 50.984375 -16.609375 
L 50.984375 -23.578125 
L -0.984375 -23.578125 
L -0.984375 -16.609375 
z
" id="DejaVuSans-95"/>
     </defs>
     <g transform="translate(320.341875 58.070438)scale(0.1 -0.1)">
      <use xlink:href="#DejaVuSans-56"/>
      <use x="63.623047" xlink:href="#DejaVuSans-48"/>
      <use x="127.246094" xlink:href="#DejaVuSans-50"/>
      <use x="190.869141" xlink:href="#DejaVuSans-46"/>
      <use x="222.65625" xlink:href="#DejaVuSans-49"/>
      <use x="286.279297" xlink:href="#DejaVuSans-49"/>
      <use x="349.902344" xlink:href="#DejaVuSans-97"/>
      <use x="411.181641" xlink:href="#DejaVuSans-95"/>
      <use x="461.181641" xlink:href="#DejaVuSans-54"/>
      <use x="524.804688" xlink:href="#DejaVuSans-77"/>
      <use x="611.083984" xlink:href="#DejaVuSans-98"/>
      <use x="674.560547" xlink:href="#DejaVuSans-112"/>
      <use x="738.037109" xlink:href="#DejaVuSans-115"/>
      <use x="790.136719" xlink:href="#DejaVuSans-32"/>
     </g>
    </g>
    <g id="line2d_28">
     <path d="M 292.341875 69.526688 
L 312.341875 69.526688 
" style="fill:none;stroke:#ff0000;stroke-linecap:square;"/>
    </g>
    <g id="line2d_29">
     <g>
      <use style="fill:#008000;stroke:#ff0000;stroke-linejoin:miter;" x="302.341875" xlink:href="#m3b56ef729e" y="69.526688"/>
     </g>
    </g>
    <g id="text_25">
     <!-- 802.11a_54Mbps -->
     <g transform="translate(320.341875 73.026688)scale(0.1 -0.1)">
      <use xlink:href="#DejaVuSans-56"/>
      <use x="63.623047" xlink:href="#DejaVuSans-48"/>
      <use x="127.246094" xlink:href="#DejaVuSans-50"/>
      <use x="190.869141" xlink:href="#DejaVuSans-46"/>
      <use x="222.65625" xlink:href="#DejaVuSans-49"/>
      <use x="286.279297" xlink:href="#DejaVuSans-49"/>
      <use x="349.902344" xlink:href="#DejaVuSans-97"/>
      <use x="411.181641" xlink:href="#DejaVuSans-95"/>
      <use x="461.181641" xlink:href="#DejaVuSans-53"/>
      <use x="524.804688" xlink:href="#DejaVuSans-52"/>
      <use x="588.427734" xlink:href="#DejaVuSans-77"/>
      <use x="674.707031" xlink:href="#DejaVuSans-98"/>
      <use x="738.183594" xlink:href="#DejaVuSans-112"/>
      <use x="801.660156" xlink:href="#DejaVuSans-115"/>
     </g>
    </g>
    <g id="line2d_30">
     <path d="M 292.341875 84.482938 
L 312.341875 84.482938 
" style="fill:none;stroke:#0000ff;stroke-linecap:square;"/>
    </g>
    <g id="line2d_31">
     <g>
      <use style="fill:#0000ff;stroke:#0000ff;" x="302.341875" xlink:href="#mea34c4efce" y="84.482938"/>
     </g>
    </g>
    <g id="text_26">
     <!-- 802.11g -->
     <defs>
      <path d="M 45.40625 27.984375 
Q 45.40625 37.75 41.375 43.109375 
Q 37.359375 48.484375 30.078125 48.484375 
Q 22.859375 48.484375 18.828125 43.109375 
Q 14.796875 37.75 14.796875 27.984375 
Q 14.796875 18.265625 18.828125 12.890625 
Q 22.859375 7.515625 30.078125 7.515625 
Q 37.359375 7.515625 41.375 12.890625 
Q 45.40625 18.265625 45.40625 27.984375 
z
M 54.390625 6.78125 
Q 54.390625 -7.171875 48.1875 -13.984375 
Q 42 -20.796875 29.203125 -20.796875 
Q 24.46875 -20.796875 20.265625 -20.09375 
Q 16.0625 -19.390625 12.109375 -17.921875 
L 12.109375 -9.1875 
Q 16.0625 -11.328125 19.921875 -12.34375 
Q 23.78125 -13.375 27.78125 -13.375 
Q 36.625 -13.375 41.015625 -8.765625 
Q 45.40625 -4.15625 45.40625 5.171875 
L 45.40625 9.625 
Q 42.625 4.78125 38.28125 2.390625 
Q 33.9375 0 27.875 0 
Q 17.828125 0 11.671875 7.65625 
Q 5.515625 15.328125 5.515625 27.984375 
Q 5.515625 40.671875 11.671875 48.328125 
Q 17.828125 56 27.875 56 
Q 33.9375 56 38.28125 53.609375 
Q 42.625 51.21875 45.40625 46.390625 
L 45.40625 54.6875 
L 54.390625 54.6875 
z
" id="DejaVuSans-103"/>
     </defs>
     <g transform="translate(320.341875 87.982938)scale(0.1 -0.1)">
      <use xlink:href="#DejaVuSans-56"/>
      <use x="63.623047" xlink:href="#DejaVuSans-48"/>
      <use x="127.246094" xlink:href="#DejaVuSans-50"/>
      <use x="190.869141" xlink:href="#DejaVuSans-46"/>
      <use x="222.65625" xlink:href="#DejaVuSans-49"/>
      <use x="286.279297" xlink:href="#DejaVuSans-49"/>
      <use x="349.902344" xlink:href="#DejaVuSans-103"/>
     </g>
    </g>
    <g id="line2d_32">
     <path d="M 292.341875 99.161063 
L 312.341875 99.161063 
" style="fill:none;stroke:#008000;stroke-linecap:square;"/>
    </g>
    <g id="line2d_33">
     <g>
      <use style="fill:#008000;stroke:#008000;" x="302.341875" xlink:href="#mf21c1f3755" y="99.161063"/>
     </g>
    </g>
    <g id="text_27">
     <!-- 802.11n -->
     <g transform="translate(320.341875 102.661063)scale(0.1 -0.1)">
      <use xlink:href="#DejaVuSans-56"/>
      <use x="63.623047" xlink:href="#DejaVuSans-48"/>
      <use x="127.246094" xlink:href="#DejaVuSans-50"/>
      <use x="190.869141" xlink:href="#DejaVuSans-46"/>
      <use x="222.65625" xlink:href="#DejaVuSans-49"/>
      <use x="286.279297" xlink:href="#DejaVuSans-49"/>
      <use x="349.902344" xlink:href="#DejaVuSans-110"/>
     </g>
    </g>
   </g>
  </g>
  <g id="text_28">
   <!-- Debit en reception en fonction de la distance -->
   <defs>
    <path d="M 37.109375 75.984375 
L 37.109375 68.5 
L 28.515625 68.5 
Q 23.6875 68.5 21.796875 66.546875 
Q 19.921875 64.59375 19.921875 59.515625 
L 19.921875 54.6875 
L 34.71875 54.6875 
L 34.71875 47.703125 
L 19.921875 47.703125 
L 19.921875 0 
L 10.890625 0 
L 10.890625 47.703125 
L 2.296875 47.703125 
L 2.296875 54.6875 
L 10.890625 54.6875 
L 10.890625 58.5 
Q 10.890625 67.625 15.140625 71.796875 
Q 19.390625 75.984375 28.609375 75.984375 
z
" id="DejaVuSans-102"/>
    <path d="M 45.40625 46.390625 
L 45.40625 75.984375 
L 54.390625 75.984375 
L 54.390625 0 
L 45.40625 0 
L 45.40625 8.203125 
Q 42.578125 3.328125 38.25 0.953125 
Q 33.9375 -1.421875 27.875 -1.421875 
Q 17.96875 -1.421875 11.734375 6.484375 
Q 5.515625 14.40625 5.515625 27.296875 
Q 5.515625 40.1875 11.734375 48.09375 
Q 17.96875 56 27.875 56 
Q 33.9375 56 38.25 53.625 
Q 42.578125 51.265625 45.40625 46.390625 
z
M 14.796875 27.296875 
Q 14.796875 17.390625 18.875 11.75 
Q 22.953125 6.109375 30.078125 6.109375 
Q 37.203125 6.109375 41.296875 11.75 
Q 45.40625 17.390625 45.40625 27.296875 
Q 45.40625 37.203125 41.296875 42.84375 
Q 37.203125 48.484375 30.078125 48.484375 
Q 22.953125 48.484375 18.875 42.84375 
Q 14.796875 37.203125 14.796875 27.296875 
z
" id="DejaVuSans-100"/>
    <path d="M 9.421875 75.984375 
L 18.40625 75.984375 
L 18.40625 0 
L 9.421875 0 
z
" id="DejaVuSans-108"/>
   </defs>
   <g transform="translate(94.827188 16.030125)scale(0.12 -0.12)">
    <use xlink:href="#DejaVuSans-68"/>
    <use x="77.001953" xlink:href="#DejaVuSans-101"/>
    <use x="138.525391" xlink:href="#DejaVuSans-98"/>
    <use x="202.001953" xlink:href="#DejaVuSans-105"/>
    <use x="229.785156" xlink:href="#DejaVuSans-116"/>
    <use x="268.994141" xlink:href="#DejaVuSans-32"/>
    <use x="300.78125" xlink:href="#DejaVuSans-101"/>
    <use x="362.304688" xlink:href="#DejaVuSans-110"/>
    <use x="425.683594" xlink:href="#DejaVuSans-32"/>
    <use x="457.470703" xlink:href="#DejaVuSans-114"/>
    <use x="498.552734" xlink:href="#DejaVuSans-101"/>
    <use x="560.076172" xlink:href="#DejaVuSans-99"/>
    <use x="615.056641" xlink:href="#DejaVuSans-101"/>
    <use x="676.580078" xlink:href="#DejaVuSans-112"/>
    <use x="740.056641" xlink:href="#DejaVuSans-116"/>
    <use x="779.265625" xlink:href="#DejaVuSans-105"/>
    <use x="807.048828" xlink:href="#DejaVuSans-111"/>
    <use x="868.230469" xlink:href="#DejaVuSans-110"/>
    <use x="931.609375" xlink:href="#DejaVuSans-32"/>
    <use x="963.396484" xlink:href="#DejaVuSans-101"/>
    <use x="1024.919922" xlink:href="#DejaVuSans-110"/>
    <use x="1088.298828" xlink:href="#DejaVuSans-32"/>
    <use x="1120.085938" xlink:href="#DejaVuSans-102"/>
    <use x="1155.291016" xlink:href="#DejaVuSans-111"/>
    <use x="1216.472656" xlink:href="#DejaVuSans-110"/>
    <use x="1279.851562" xlink:href="#DejaVuSans-99"/>
    <use x="1334.832031" xlink:href="#DejaVuSans-116"/>
    <use x="1374.041016" xlink:href="#DejaVuSans-105"/>
    <use x="1401.824219" xlink:href="#DejaVuSans-111"/>
    <use x="1463.005859" xlink:href="#DejaVuSans-110"/>
    <use x="1526.384766" xlink:href="#DejaVuSans-32"/>
    <use x="1558.171875" xlink:href="#DejaVuSans-100"/>
    <use x="1621.648438" xlink:href="#DejaVuSans-101"/>
    <use x="1683.171875" xlink:href="#DejaVuSans-32"/>
    <use x="1714.958984" xlink:href="#DejaVuSans-108"/>
    <use x="1742.742188" xlink:href="#DejaVuSans-97"/>
    <use x="1804.021484" xlink:href="#DejaVuSans-32"/>
    <use x="1835.808594" xlink:href="#DejaVuSans-100"/>
    <use x="1899.285156" xlink:href="#DejaVuSans-105"/>
    <use x="1927.068359" xlink:href="#DejaVuSans-115"/>
    <use x="1979.167969" xlink:href="#DejaVuSans-116"/>
    <use x="2018.376953" xlink:href="#DejaVuSans-97"/>
    <use x="2079.65625" xlink:href="#DejaVuSans-110"/>
    <use x="2143.035156" xlink:href="#DejaVuSans-99"/>
    <use x="2198.015625" xlink:href="#DejaVuSans-101"/>
   </g>
  </g>
 </g>
 <defs>
  <clipPath id="p338a9c4840">
   <rect height="266.112" width="357.12" x="57.6" y="41.472"/>
  </clipPath>
 </defs>
</svg>
